<?xml version="1.0" encoding="UTF-8"?>
<svg version="1.1" xmlns="http://www.w3.org/2000/svg" width="512" height="512">
<path d="M0 0 C0.75178528 0.00215515 1.50357056 0.0043103 2.27813721 0.00653076 C13.22915017 0.05692377 23.61844163 0.46013068 34.25 3.3125 C35.013125 3.50585938 35.77625 3.69921875 36.5625 3.8984375 C74.01974621 13.49982023 106.62297474 37.15495392 126.71875 70.32421875 C150.92554972 111.52199533 152.4836545 157.60261254 141.25 203.3125 C139.55856619 209.75651468 137.51748631 216.04985592 135.25 222.3125 C134.96286133 223.10930176 134.67572266 223.90610352 134.37988281 224.72705078 C127.22458941 244.24746472 117.02205051 262.09126795 106.76171875 280.109375 C102.90660213 286.89438025 99.13722714 293.72576952 95.375 300.5625 C94.01443673 303.03391684 92.65373734 305.50525871 91.29296875 307.9765625 C90.95599976 308.58861542 90.61903076 309.20066833 90.27185059 309.83126831 C84.91325137 319.5601794 79.50763415 329.26305992 74.10888672 338.96972656 C70.98741651 344.5829614 67.8688631 350.1978163 64.75 355.8125 C63.50001382 358.06250768 62.25001382 360.31250768 61 362.5625 C60.38125 363.67625 59.7625 364.79 59.125 365.9375 C48.8125 384.5 48.8125 384.5 38.5 403.0625 C37.8802832 404.17802246 37.26056641 405.29354492 36.62207031 406.44287109 C35.38194666 408.67502897 34.14171371 410.90712612 32.90136719 413.13916016 C29.97549548 418.40465071 27.05073335 423.67074851 24.12988281 428.93902588 C22.75214347 431.42386577 21.3737766 433.90835729 19.99536133 436.39282227 C19.02429027 438.14370364 18.05412565 439.89508765 17.08398438 441.64648438 C16.49423828 442.70931641 15.90449219 443.77214844 15.296875 444.8671875 C14.77963867 445.80030762 14.26240234 446.73342773 13.72949219 447.69482422 C8.81872193 456.38348408 8.81872193 456.38348408 4.25 458.3125 C-1.07358232 459.10077892 -4.28810168 458.43862227 -8.75 455.3125 C-10.45654297 452.921875 -10.45654297 452.921875 -11.9921875 450.0625 C-12.57548828 448.99322266 -13.15878906 447.92394531 -13.75976562 446.82226562 C-14.37529297 445.66404297 -14.99082031 444.50582031 -15.625 443.3125 C-16.28443875 442.09496091 -16.94527136 440.87817582 -17.60742188 439.66210938 C-18.98165603 437.13569945 -20.3498414 434.60615382 -21.71386719 432.07421875 C-24.8367275 426.28941227 -28.04781955 420.55364251 -31.25 414.8125 C-32.50041524 412.56273074 -33.75041392 410.31272991 -35 408.0625 C-35.61875 406.94875 -36.2375 405.835 -36.875 404.6875 C-53.75 374.3125 -70.625 343.9375 -87.5 313.5625 C-88.1189917 312.44834717 -88.7379834 311.33419434 -89.37573242 310.1862793 C-90.62340161 307.94040974 -91.87096054 305.69447893 -93.1184082 303.44848633 C-96.27815977 297.75977836 -99.43993003 292.07220869 -102.60546875 286.38671875 C-105.7397024 280.75711162 -108.86440125 275.12227887 -111.98632812 269.48583984 C-113.67372003 266.44974904 -115.37455847 263.42156748 -117.078125 260.39453125 C-123.45745234 248.99055999 -129.13153994 237.54389337 -133.75 225.3125 C-134.16306396 224.22388672 -134.16306396 224.22388672 -134.58447266 223.11328125 C-142.79079172 201.07147428 -146.66563274 177.74541196 -147.75 154.3125 C-147.79253906 153.43851563 -147.83507812 152.56453125 -147.87890625 151.6640625 C-148.78376955 113.41850697 -135.03808709 75.40751207 -108.77685547 47.50097656 C-107.43850569 46.10104483 -106.09436499 44.70665629 -104.75 43.3125 C-104.03457031 42.53390625 -103.31914062 41.7553125 -102.58203125 40.953125 C-85.97477487 23.37996816 -63.13818715 11.7669421 -40.1875 5.0625 C-39.34936768 4.81604736 -38.51123535 4.56959473 -37.64770508 4.31567383 C-25.17624838 0.82935397 -12.8795058 -0.06650837 0 0 Z " fill="#42A5F5" transform="translate(255.75,-0.3125)"/>
<path d="M0 0 C12.44926842 9.59670464 21.63482148 22.59222095 25.13671875 38.046875 C25.30582764 38.65418457 25.47493652 39.26149414 25.64916992 39.88720703 C29.34753467 56.26964799 25.36148011 74.1347172 16.98828125 88.390625 C8.2183829 100.97191378 -2.72098333 109.2465777 -16.86328125 115.046875 C-17.65089844 115.40136719 -18.43851562 115.75585938 -19.25 116.12109375 C-32.44712988 120.79631016 -50.77871303 119.67478569 -63.640625 114.58984375 C-80.96678039 106.29429056 -93.99404844 93.07861113 -100.86328125 75.046875 C-101.18296875 74.26699219 -101.50265625 73.48710937 -101.83203125 72.68359375 C-106.65079554 58.69579185 -105.43320309 40.11762868 -99.38671875 26.79296875 C-90.33435539 8.95691948 -76.60591936 -3.50139946 -57.86328125 -10.453125 C-37.93055432 -15.95602507 -16.83193734 -11.48153979 0 0 Z " fill="#EDEDEE" transform="translate(294.86328125,93.953125)"/>
<path d="M0 0 C29.82763586 -0.64290804 29.82763586 -0.64290804 44 3 C44.77327637 3.19335938 45.54655273 3.38671875 46.34326172 3.5859375 C83.78489018 13.19662288 116.38049777 36.85487112 136.46875 70.01171875 C160.67554972 111.20949533 162.2336545 157.29011254 151 203 C149.30856619 209.44401468 147.26748631 215.73735592 145 222 C144.71286133 222.79680176 144.42572266 223.59360352 144.12988281 224.41455078 C136.97458941 243.93496472 126.77205051 261.77876795 116.51171875 279.796875 C112.65660213 286.58188025 108.88722714 293.41326952 105.125 300.25 C103.76443673 302.72141684 102.40373734 305.19275871 101.04296875 307.6640625 C100.70599976 308.27611542 100.36903076 308.88816833 100.02185059 309.51876831 C94.66325137 319.2476794 89.25763415 328.95055992 83.85888672 338.65722656 C80.73741651 344.2704614 77.6188631 349.8853163 74.5 355.5 C73.25001382 357.75000768 72.00001382 360.00000768 70.75 362.25 C70.13125 363.36375 69.5125 364.4775 68.875 365.625 C58.5625 384.1875 58.5625 384.1875 48.25 402.75 C47.6302832 403.86552246 47.01056641 404.98104492 46.37207031 406.13037109 C45.13194666 408.36252897 43.89171371 410.59462612 42.65136719 412.82666016 C39.72549548 418.09215071 36.80073335 423.35824851 33.87988281 428.62652588 C32.50214347 431.11136577 31.1237766 433.59585729 29.74536133 436.08032227 C28.77429027 437.83120364 27.80412565 439.58258765 26.83398438 441.33398438 C26.24423828 442.39681641 25.65449219 443.45964844 25.046875 444.5546875 C24.27102051 445.95436768 24.27102051 445.95436768 23.47949219 447.38232422 C18.56872193 456.07098408 18.56872193 456.07098408 14 458 C9.9298502 458.60267938 6.88592294 458.40444308 3.125 456.6875 C1 455 1 455 -1 452 C-0.65496141 448.06149077 0.83123816 445.07468847 2.703125 441.6328125 C3.26435059 440.59471436 3.82557617 439.55661621 4.40380859 438.48706055 C5.01305176 437.37758057 5.62229492 436.26810059 6.25 435.125 C6.88788403 433.9530721 7.52541131 432.78094996 8.16259766 431.60864258 C12.67863359 423.32117067 17.29966906 415.09362794 21.96630859 406.89013672 C26.33181445 399.21088055 30.61556342 391.48835749 34.875 383.75 C36.23563287 381.27862149 37.59629734 378.80726038 38.95703125 376.3359375 C39.29398514 375.72390976 39.63093903 375.11188202 39.97810364 374.48130798 C45.33673237 364.75237925 50.74235141 355.04946605 56.14111328 345.34277344 C58.63641646 340.85555369 61.12980031 336.36726896 63.62304688 331.87890625 C65.497175 328.5050856 67.37163409 325.13144896 69.24609375 321.7578125 C71.76027634 317.23241482 74.27317392 312.70630685 76.78515625 308.1796875 C78.04425814 305.91145129 79.30337268 303.6432221 80.5625 301.375 C81.18165283 300.25899414 81.80080566 299.14298828 82.4387207 297.99316406 C85.48672395 292.50412615 88.54638183 287.02222189 91.6328125 281.5546875 C107.17472049 254.44557676 107.17472049 254.44557676 120 226 C120.24411621 225.37561035 120.48823242 224.7512207 120.73974609 224.10791016 C135.75189357 185.31940766 141.02907273 137.53450724 126 98 C125.74202637 97.30712891 125.48405273 96.61425781 125.21826172 95.90039062 C117.90330484 76.48139079 107.29170813 60.11950724 93 45 C92.25363281 44.18917969 91.50726563 43.37835938 90.73828125 42.54296875 C75.32124606 26.36145247 55.21397124 14.74487769 34 8 C33.278125 7.76941895 32.55625 7.53883789 31.8125 7.30126953 C21.29294462 4.01162558 10.97060265 2.00140378 0 1 C0 0.67 0 0.34 0 0 Z " fill="#2196F3" transform="translate(246,0)"/>
<path d="M0 0 C0.70957356 -0.00523668 1.41914711 -0.01047336 2.1502229 -0.01586872 C4.53389052 -0.03090077 6.91734409 -0.03157457 9.30105591 -0.03224182 C11.00765344 -0.03986115 12.71424753 -0.04828825 14.4208374 -0.0574646 C19.06134993 -0.07943852 23.70179656 -0.08821234 28.34235525 -0.09329104 C31.24050399 -0.09693111 34.13863536 -0.10316932 37.0367775 -0.11029243 C47.14440929 -0.13479668 57.25198968 -0.147841 67.35964966 -0.15138245 C76.78633225 -0.1550188 86.21268946 -0.18491883 95.63927257 -0.22678703 C103.72852761 -0.26145795 111.81767466 -0.27693033 119.90700352 -0.27762848 C124.74017971 -0.27842237 129.57302459 -0.28721227 134.40612411 -0.31562614 C138.95182488 -0.3417522 143.49691836 -0.34404278 148.04265976 -0.3279705 C149.71118491 -0.32615166 151.37974454 -0.332886 153.04819489 -0.34878922 C155.32630928 -0.36918002 157.60228481 -0.35874239 159.88037109 -0.34057617 C161.15500151 -0.3425875 162.42963192 -0.34459883 163.7428875 -0.3466711 C167.9433571 0.43778702 169.40249092 2.01275316 172.06716919 5.27415466 C173.66278806 8.4653924 173.44708339 11.80160557 173.06716919 15.27415466 C171.43029734 18.85968347 170.37744336 20.06730521 167.06716919 22.27415466 C163.99456978 22.53421688 163.99456978 22.53421688 160.13433838 22.54830933 C159.06997804 22.55616434 159.06997804 22.55616434 157.98411548 22.56417805 C155.60044786 22.57921009 153.21699429 22.57988389 150.83328247 22.58055115 C149.12668494 22.58817047 147.42009085 22.59659758 145.71350098 22.60577393 C141.07298844 22.62774785 136.43254181 22.63652167 131.79198313 22.64160037 C128.89383439 22.64524043 125.99570301 22.65147865 123.09756088 22.65860176 C112.98992909 22.68310601 102.8823487 22.69615033 92.77468872 22.69969177 C83.34800613 22.70332813 73.92164892 22.73322815 64.49506581 22.77509636 C56.40581077 22.80976727 48.31666372 22.82523966 40.22733486 22.82593781 C35.39415867 22.8267317 30.56131379 22.83552159 25.72821426 22.86393547 C21.1825135 22.89006152 16.63742002 22.89235211 12.09167862 22.87627983 C10.42315347 22.87446098 8.75459384 22.88119533 7.08614349 22.89709854 C4.8080291 22.91748934 2.53205357 22.90705172 0.25396729 22.8888855 C-1.65797833 22.89190249 -1.65797833 22.89190249 -3.60854912 22.89498043 C-7.80901873 22.11052231 -9.26815254 20.53555616 -11.93283081 17.27415466 C-13.52844968 14.08291692 -13.31274501 10.74670375 -12.93283081 7.27415466 C-10.02118183 0.89625691 -6.72062219 0.0245348 0 0 Z " fill="#414141" transform="translate(175.93283081054688,489.72584533691406)"/>
</svg>
