<?xml version="1.0" encoding="UTF-8"?>
<svg id="Layer_1" data-name="Layer 1" xmlns="http://www.w3.org/2000/svg" viewBox="0 0 215 55">
  <defs>
    <style>
      .cls-1 {
        fill: #ae275f;
      }
    </style>
  </defs>
  <polygon class="cls-1" points="13.65 49.93 40.23 4.06 48.36 18.13 29.88 49.93 13.65 49.93"/>
  <polygon class="cls-1" points="56.92 32.5 66.82 49.93 50.59 49.93 40.58 32.5 56.92 32.5"/>
  <path class="cls-1" d="M134.14,19.89l5.64,9.4v-9.4h2.99v13.07h-3.57c-1.91-2.73-3.25-6.17-5.13-8.87-.14-.2.04-.42-.51-.3v9.17h-2.76v-13.07h3.34Z"/>
  <path class="cls-1" d="M161.76,19.89l5.64,9.4v-9.4h2.76v13.07h-3.34c-2.1-2.91-3.39-6.44-5.64-9.17v9.17h-2.76v-13.07h3.34Z"/>
  <path class="cls-1" d="M184.66,24.24l-2.76.69c-1.35-5.03-7.31-3.17-6.9,1.95s7.13,5.34,7.83.58l2.76.23c-.09,6.57-10.24,7.59-12.86,2.15-1.59-3.29-.63-8.34,3.04-9.76s8.12-.08,8.9,4.17Z"/>
  <path class="cls-1" d="M106.18,23.79c.11-2.97-5.28-2.52-4.51,0,.39,1.28,4.08,1.4,5.33,1.82,2.67.91,3.67,3.33,2.04,5.73-2.21,3.26-10.61,2.53-10.68-2.27l2.75-.47c-.18,2.97,5.71,3.52,5.76.8.02-1.14-.92-1.34-1.85-1.61-2.08-.61-5.87-.59-6.22-3.43-.72-5.83,8.78-6.57,10.13-1.39l-2.76.81Z"/>
  <polygon class="cls-1" points="88.68 19.89 92.13 19.89 88 26.19 92.37 32.96 89.03 32.96 85.81 28.15 82.58 32.96 79.25 32.96 83.58 26.15 79.48 19.89 82.81 19.89 85.81 24.24 88.68 19.89"/>
  <path class="cls-1" d="M65.67,32.96l4.71-12.85,3.47-.24,4.94,13.09-3-.1-.89-2.51-5.1-.03-.91,2.65h-3.22ZM74.18,28.14c-.57-1.85-.83-4.24-2.07-5.73l-1.84,5.73h3.91Z"/>
  <path class="cls-1" d="M143.92,32.96l4.62-12.71c.54-.75,2.64-.19,3.56-.38l4.94,13.09h-3.22l-.92-2.64c-.3-.18-3.7-.19-4.27-.12-1.16.13-1.25,1.81-1.48,2.77h-3.22ZM152.44,28.14c-.48-1.6-.92-3.68-1.6-5.17-.1-.23-.15-.54-.47-.56l-1.84,5.73h3.91Z"/>
  <path class="cls-1" d="M196.17,19.89v2.52h-6.21v2.75h5.52v2.06h-5.18c-.7.79-.2,2.19-.35,3.21h6.44v2.52h-9.21v-13.07h8.98Z"/>
  <polygon class="cls-1" points="124.13 19.89 124.13 22.41 118.37 22.41 118.37 25.85 122.98 25.85 122.98 27.91 118.37 27.91 118.37 32.96 115.38 32.96 115.38 19.89 124.13 19.89"/>
  <rect class="cls-1" x="93.75" y="19.89" width="2.99" height="13.07"/>
  <rect class="cls-1" x="125.74" y="19.89" width="2.76" height="13.07"/>
</svg>