<?xml version="1.0" encoding="UTF-8"?>
<svg id="Layer_1" data-name="Layer 1" xmlns="http://www.w3.org/2000/svg" viewBox="0 0 215 55">
  <defs>
    <style>
      .cls-1 {
        fill: #0071bb;
      }

      .cls-2 {
        fill: #fff;
      }
    </style>
  </defs>
  <rect class="cls-1" width="215" height="55"/>
  <g>
    <path class="cls-2" d="M82.11,25.7v-14.27h12.62c2.6,0,6.79.35,6.79,3.74,0,1.67-1.46,2.84-3.16,3.27,2.12.64,3.16,1.81,3.16,3.41,0,3.5-3.97,3.83-6.79,3.84h-12.62ZM86.74,19.68l1.32-2.19c.34-.5.9-.79,1.5-.79h5.16c.92,0,1.67-.42,1.67-1.14s-.74-1.14-1.67-1.14h-7.99v5.26h0ZM86.74,19.68v6.01l1.32-2.19c.34-.49.9-.79,1.5-.79h5.09c.96.02,1.73-.67,1.73-1.5s-.75-1.51-1.73-1.51h-7.92ZM112.72,14.87l-6.26,10.84h-5.45l8.72-14.28h5.96l8.71,14.27h-5.44l-1.46-2.54h-8.08l1.34-2.19c.34-.49.9-.79,1.5-.79h3.5l-3.05-5.3ZM150.61,14.87l-6.25,10.84h-5.46l8.72-14.28h5.96l8.71,14.27h-5.43l-1.47-2.54h-8.07l1.32-2.19c.34-.49.9-.79,1.5-.79h3.5l-3.05-5.3h.01ZM132.86,22.7c1.06,0,1.9-.51,1.9-1.55v-9.73h4.61v10.16c0,3.08-2.04,4.11-4.71,4.11h-7.71c-.6,0-1.16-.3-1.5-.79l-1.34-2.2h8.74ZM170.73,22.7c1.06,0,1.91-.51,1.91-1.55v-9.73h4.63v10.16c0,3.08-2.03,4.11-4.7,4.11h-7.71c-.6,0-1.16-.3-1.5-.79l-1.34-2.2h8.72Z"/>
    <path class="cls-2" d="M82.08,30.45h11.43v3.47h-7.47v3.4h6.75v3.28h-6.75v4.13h-3.96v-14.28h0Z"/>
    <path class="cls-2" d="M96.2,30.45h3.97v14.28h-3.97v-14.28Z"/>
    <path class="cls-2" d="M103.6,30.45h3.69l5.88,7.55v-7.55h3.92v14.28h-3.47l-6.09-7.83v7.83h-3.92v-14.28h0Z"/>
    <path class="cls-2" d="M119.36,42.61l2.2-2.63c1.3,1.09,2.94,1.69,4.63,1.71,1.06,0,1.63-.37,1.63-.98v-.04c0-.59-.47-.92-2.41-1.37-3.04-.69-5.39-1.55-5.39-4.49v-.04c0-2.65,2.1-4.57,5.53-4.57,2.43,0,4.32.65,5.87,1.9l-1.98,2.79c-1.31-.92-2.73-1.41-4-1.41-.96,0-1.43.41-1.43.92v.04c0,.65.49.94,2.47,1.39,3.29.71,5.32,1.77,5.32,4.45v.04c0,2.91-2.31,4.65-5.77,4.65-2.54,0-4.94-.8-6.7-2.37Z"/>
    <path class="cls-2" d="M134.56,30.45h11.49v3.37h-7.57v2.16h6.86v3.12h-6.86v2.27h7.67v3.36h-11.59v-14.29Z"/>
    <path class="cls-2" d="M148.98,30.45h6.75c2.18,0,3.69.57,4.65,1.55.84.82,1.27,1.92,1.27,3.33v.04c0,2.18-1.16,3.63-2.94,4.38l3.41,4.98h-4.57l-2.88-4.32h-1.73v4.32h-3.96v-14.28h0ZM155.54,37.3c1.35,0,2.12-.65,2.12-1.7v-.04c0-1.12-.82-1.69-2.14-1.69h-2.59v3.43h2.61Z"/>
    <path class="cls-2" d="M162.92,30.45h4.43l3.24,9.04,3.24-9.04h4.35l-5.8,14.39h-3.66l-5.8-14.39Z"/>
    <path class="cls-2" d="M67.57,32.91c0,5.08-5.68,5.56-9.69,5.59h-3.61v-4.57h7.18v-3.49h-7.18v-4.74h7.95v-3.69h-12.16v16.5h-4.65v-20.74h12.47c3.71,0,9.69.53,9.69,5.44,0,2.43-2.08,4.21-4.5,4.83,3,.93,4.5,2.41,4.5,4.88ZM55.93,9.5c-10.29,0-18.64,8.34-18.64,18.64s8.34,18.64,18.64,18.64,18.64-8.34,18.64-18.64h0c0-10.29-8.34-18.63-18.63-18.64h0Z"/>
  </g>
</svg>