<svg width="1440" height="681" viewBox="0 0 1440 681" fill="none" xmlns="http://www.w3.org/2000/svg">
<g opacity="0.2">
<mask id="mask0_430_616" style="mask-type:alpha" maskUnits="userSpaceOnUse" x="-1703" y="-1" width="3629" height="748">
<g style="mix-blend-mode:luminosity">
<path d="M-1702.29 513.814C-1619.06 480.156 -1263.78 215.232 67.9555 363.78C1399.69 512.328 1765.68 399.168 1924.98 150.317" stroke="url(#paint0_linear_430_616)" stroke-width="1.11256" stroke-miterlimit="10"/>
<path d="M-1701.56 504.563C-1622.3 472.496 -1257.66 220.811 63.0687 372.943C1383.79 525.075 1759.44 379.712 1911.24 142.685" stroke="url(#paint1_linear_430_616)" stroke-width="1.11256" stroke-miterlimit="10"/>
<path d="M-1700.78 495.323C-1625.49 464.86 -1251.55 226.46 58.2868 382.366C1368.12 538.271 1753.42 360.737 1897.63 135.556" stroke="url(#paint2_linear_430_616)" stroke-width="1.11256" stroke-miterlimit="10"/>
<path d="M-1700.01 486.073C-1628.67 457.212 -1245.46 232.112 53.5055 391.779C1352.47 551.446 1747.41 341.752 1884.02 128.429" stroke="url(#paint3_linear_430_616)" stroke-width="1.11256" stroke-miterlimit="10"/>
<path d="M-1699.23 476.819C-1631.87 449.562 -1239.36 237.747 48.7198 401.178C1336.79 564.608 1741.38 322.752 1870.4 121.276" stroke="url(#paint4_linear_430_616)" stroke-width="1.11256" stroke-miterlimit="10"/>
<path d="M-1698.47 467.58C-1635.06 441.926 -1233.26 243.409 43.9046 410.603C1321.07 577.798 1735.33 303.78 1856.76 114.162" stroke="url(#paint5_linear_430_616)" stroke-width="1.11256" stroke-miterlimit="10"/>
<path d="M-1697.7 458.326C-1638.26 434.276 -1227.16 249.055 39.1225 420.013C1305.4 590.971 1729.31 284.792 1843.14 107.02" stroke="url(#paint6_linear_430_616)" stroke-width="1.11256" stroke-miterlimit="10"/>
<path d="M-1696.93 449.076C-1641.44 426.628 -1221.05 254.694 34.3374 429.415C1289.73 604.136 1723.29 265.796 1829.53 99.8812" stroke="url(#paint7_linear_430_616)" stroke-width="1.11256" stroke-miterlimit="10"/>
<path d="M-1696.15 439.822C-1644.64 418.979 -1214.96 260.342 29.5549 438.824C1274.07 617.307 1717.25 246.808 1815.93 92.7381" stroke="url(#paint8_linear_430_616)" stroke-width="1.11256" stroke-miterlimit="10"/>
<path d="M-1695.38 430.582C-1647.82 411.341 -1208.85 265.991 24.7565 448.249C1258.37 630.506 1711.22 227.835 1802.3 85.622" stroke="url(#paint9_linear_430_616)" stroke-width="1.11256" stroke-miterlimit="10"/>
<path d="M-1694.6 421.33C-1651.01 403.693 -1202.75 271.64 19.9716 457.649C1242.69 643.659 1705.2 208.837 1788.69 78.4713" stroke="url(#paint10_linear_430_616)" stroke-width="1.11256" stroke-miterlimit="10"/>
<path d="M-1693.85 412.079C-1654.23 396.046 -1196.68 277.279 15.1721 467.062C1227.02 656.844 1699.16 189.851 1775.06 71.3429" stroke="url(#paint11_linear_430_616)" stroke-width="1.11256" stroke-miterlimit="10"/>
<path d="M-1693.07 402.837C-1657.41 388.407 -1190.57 282.938 10.3912 476.483C1211.35 670.028 1693.14 170.875 1761.45 64.2131" stroke="url(#paint12_linear_430_616)" stroke-width="1.11256" stroke-miterlimit="10"/>
<path d="M-1692.3 393.583C-1660.6 380.757 -1184.46 288.573 5.58868 485.883C1195.64 683.193 1687.11 151.887 1747.82 57.0724" stroke="url(#paint13_linear_430_616)" stroke-width="1.11256" stroke-miterlimit="10"/>
<path d="M-1691.53 384.332C-1663.78 373.108 -1178.36 294.223 0.806537 495.295C1179.97 696.368 1681.07 132.903 1734.2 49.9336" stroke="url(#paint14_linear_430_616)" stroke-width="1.11256" stroke-miterlimit="10"/>
<path d="M-1690.75 375.089C-1666.98 365.469 -1172.27 299.871 -3.974 504.716C1164.32 709.561 1675.05 113.925 1720.59 42.8132" stroke="url(#paint15_linear_430_616)" stroke-width="1.11256" stroke-miterlimit="10"/>
<path d="M-1689.98 365.839C-1670.16 357.822 -1166.16 305.52 -8.75742 514.128C1148.65 722.736 1669.01 94.9301 1706.96 35.676" stroke="url(#paint16_linear_430_616)" stroke-width="1.11256" stroke-miterlimit="10"/>
<path d="M-1689.22 356.589C-1673.37 350.176 -1160.07 311.171 -13.5773 523.533C1132.92 735.895 1662.99 75.9444 1693.35 28.5371" stroke="url(#paint17_linear_430_616)" stroke-width="1.11256" stroke-miterlimit="10"/>
<path d="M-1688.45 347.337C-1676.55 342.526 -1153.98 316.809 -18.3583 532.943C1117.27 749.078 1656.96 56.9584 1679.72 21.4085" stroke="url(#paint18_linear_430_616)" stroke-width="1.11256" stroke-miterlimit="10"/>
<path d="M-1687.67 338.093C-1679.75 334.887 -1147.87 322.466 -23.1411 542.364C1101.59 762.261 1650.94 37.9698 1666.1 14.2668" stroke="url(#paint19_linear_430_616)" stroke-width="1.11256" stroke-miterlimit="10"/>
<path d="M-1686.9 328.844C-1682.93 327.24 -1141.77 328.107 -27.9239 551.767C1085.92 775.427 1644.9 18.9872 1652.5 7.1404" stroke="url(#paint20_linear_430_616)" stroke-width="1.11256" stroke-miterlimit="10"/>
<path d="M-1686.12 319.591C-1686.12 319.591 -1135.66 333.753 -32.7256 561.178C1070.21 788.602 1638.86 -8.71085e-06 1638.86 -8.71085e-06" stroke="#FCEE21" stroke-width="1.11256" stroke-miterlimit="10"/>
<path d="M-1677.52 336.254C-1675.72 334.716 -1117.77 320.941 -33.6637 546.866C1050.44 772.791 1616.41 41.0139 1643.63 34.0532" stroke="#FBE421" stroke-width="1.11256" stroke-miterlimit="10"/>
<path d="M-1668.91 352.932C-1665.32 349.855 -1099.86 308.152 -34.5987 532.579C1030.66 757.006 1593.97 82.0297 1648.4 68.1096" stroke="#FBDA21" stroke-width="1.11256" stroke-miterlimit="10"/>
<path d="M-1660.3 369.599C-1654.92 364.983 -1081.95 295.352 -35.5534 518.271C1010.84 741.19 1571.51 123.025 1653.18 102.166" stroke="#FAD021" stroke-width="1.11256" stroke-miterlimit="10"/>
<path d="M-1651.7 386.261C-1644.53 380.107 -1064.04 282.537 -36.4917 503.969C991.056 725.4 1549.03 164.038 1657.93 136.218" stroke="#F9C622" stroke-width="1.11256" stroke-miterlimit="10"/>
<path d="M-1643.1 402.929C-1634.13 395.236 -1046.13 269.739 -37.4305 489.661C971.268 709.583 1526.57 205.046 1662.7 170.265" stroke="#F8BC22" stroke-width="1.11256" stroke-miterlimit="10"/>
<path d="M-1634.47 419.593C-1623.71 410.362 -1028.22 256.927 -38.3659 475.361C951.487 693.796 1504.13 246.06 1667.47 204.319" stroke="#F8B222" stroke-width="1.11256" stroke-miterlimit="10"/>
<path d="M-1625.87 436.255C-1613.31 425.486 -1010.31 244.123 -39.3049 461.059C931.701 677.995 1481.67 287.062 1672.24 238.372" stroke="#F7A822" stroke-width="1.11256" stroke-miterlimit="10"/>
<path d="M-1617.26 452.922C-1602.91 440.613 -992.4 231.312 -40.2422 446.75C911.916 662.188 1459.22 328.068 1676.99 272.418" stroke="#F69E22" stroke-width="1.11256" stroke-miterlimit="10"/>
<path d="M-1608.66 469.597C-1592.51 455.75 -974.489 218.521 -41.1801 432.45C892.129 646.379 1436.76 369.083 1681.76 306.472" stroke="#F69422" stroke-width="1.11256" stroke-miterlimit="10"/>
<path d="M-1600.05 486.263C-1582.11 470.877 -956.577 205.72 -42.133 418.152C872.311 630.584 1414.3 410.098 1686.51 340.528" stroke="#F58A22" stroke-width="1.11256" stroke-miterlimit="10"/>
<path d="M-1591.44 502.929C-1571.7 486.005 -938.668 192.91 -43.0716 403.843C852.525 614.777 1391.84 451.094 1691.28 374.574" stroke="#F48023" stroke-width="1.11256" stroke-miterlimit="10"/>
<path d="M-1582.82 519.592C-1561.3 501.13 -920.758 180.107 -43.9914 389.541C832.775 598.975 1369.4 492.107 1696.07 408.637" stroke="#F37623" stroke-width="1.11256" stroke-miterlimit="10"/>
<path d="M-1574.22 536.258C-1550.9 516.258 -902.849 167.296 -44.9471 375.233C812.955 583.17 1346.92 533.114 1700.82 442.683" stroke="#F36C23" stroke-width="1.11256" stroke-miterlimit="10"/>
<path d="M-1565.61 552.927C-1540.5 531.387 -884.939 154.498 -45.8842 360.937C793.171 567.375 1324.48 574.131 1705.59 476.741" stroke="#F26223" stroke-width="1.11256" stroke-miterlimit="10"/>
<path d="M-1557.01 569.588C-1530.1 546.51 -867.028 141.693 -46.8227 346.623C773.383 551.553 1302.02 615.121 1710.36 510.781" stroke="#F15823" stroke-width="1.11256" stroke-miterlimit="10"/>
<path d="M-1548.4 586.255C-1519.7 561.638 -849.119 128.882 -47.7757 332.326C753.567 535.769 1279.55 656.139 1715.12 544.838" stroke="#F14E23" stroke-width="1.11256" stroke-miterlimit="10"/>
<path d="M-1539.79 602.932C-1509.29 576.776 -831.224 116.094 -48.7134 318.027C733.797 519.96 1257.09 697.155 1719.89 578.894" stroke="#F04423" stroke-width="1.11256" stroke-miterlimit="10"/>
<path d="M-1531.17 619.594C-1498.88 591.9 -813.298 103.279 -49.6323 303.725C714.033 504.17 1234.67 738.167 1724.66 612.947" stroke="#EF3A24" stroke-width="1.11256" stroke-miterlimit="10"/>
<path d="M-1522.57 636.26C-1488.49 607.029 -795.388 90.4792 -50.5891 289.417C694.21 488.354 1212.19 779.163 1729.41 646.993" stroke="#EE3024" stroke-width="1.11256" stroke-miterlimit="10"/>
<path d="M-1513.96 652.926C-1478.09 622.156 -777.477 77.6784 -51.5259 275.118C674.426 472.557 1189.74 820.179 1734.18 681.048" stroke="#EE2624" stroke-width="1.11256" stroke-miterlimit="10"/>
<path d="M-1505.36 669.59C-1467.69 637.281 -759.569 64.8653 -52.4652 260.806C654.639 456.747 1167.28 861.182 1738.95 715.102" stroke="#ED1C24" stroke-width="1.11256" stroke-miterlimit="10"/>
</g>
</mask>
<g mask="url(#mask0_430_616)">
<path d="M-111.674 2H1498.08V724H-111.674V2Z" fill="url(#paint21_linear_430_616)"/>
</g>
</g>
<defs>
<linearGradient id="paint0_linear_430_616" x1="-1601.04" y1="156.702" x2="1658.72" y2="1086.44" gradientUnits="userSpaceOnUse">
<stop stop-color="#FF9074"/>
<stop offset="1" stop-color="#FFE23A" stop-opacity="0.8"/>
</linearGradient>
<linearGradient id="paint1_linear_430_616" x1="-1612.23" y1="162.602" x2="1679.3" y2="1028.36" gradientUnits="userSpaceOnUse">
<stop stop-color="#FF9470"/>
<stop offset="1" stop-color="#FFE339" stop-opacity="0.8095"/>
</linearGradient>
<linearGradient id="paint2_linear_430_616" x1="-1622.83" y1="168.629" x2="1698.47" y2="967.206" gradientUnits="userSpaceOnUse">
<stop stop-color="#FF996C"/>
<stop offset="1" stop-color="#FFE338" stop-opacity="0.819"/>
</linearGradient>
<linearGradient id="paint3_linear_430_616" x1="-1632.73" y1="174.786" x2="1715.98" y2="904.231" gradientUnits="userSpaceOnUse">
<stop stop-color="#FF9D68"/>
<stop offset="1" stop-color="#FFE436" stop-opacity="0.8286"/>
</linearGradient>
<linearGradient id="paint4_linear_430_616" x1="-1642.01" y1="181.023" x2="1730.77" y2="840.172" gradientUnits="userSpaceOnUse">
<stop stop-color="#FEA264"/>
<stop offset="1" stop-color="#FEE435" stop-opacity="0.8381"/>
</linearGradient>
<linearGradient id="paint5_linear_430_616" x1="-1650.56" y1="187.333" x2="1743.36" y2="774.095" gradientUnits="userSpaceOnUse">
<stop stop-color="#FEA660"/>
<stop offset="1" stop-color="#FEE534" stop-opacity="0.8476"/>
</linearGradient>
<linearGradient id="paint6_linear_430_616" x1="-1658.44" y1="193.724" x2="1753.77" y2="707.192" gradientUnits="userSpaceOnUse">
<stop stop-color="#FEAB5C"/>
<stop offset="1" stop-color="#FEE533" stop-opacity="0.8571"/>
</linearGradient>
<linearGradient id="paint7_linear_430_616" x1="-1665.6" y1="200.137" x2="1761.34" y2="638.644" gradientUnits="userSpaceOnUse">
<stop stop-color="#FEAF58"/>
<stop offset="1" stop-color="#FEE632" stop-opacity="0.8667"/>
</linearGradient>
<linearGradient id="paint8_linear_430_616" x1="-1672.05" y1="206.587" x2="1766.61" y2="569.092" gradientUnits="userSpaceOnUse">
<stop stop-color="#FEB454"/>
<stop offset="1" stop-color="#FEE730" stop-opacity="0.8762"/>
</linearGradient>
<linearGradient id="paint9_linear_430_616" x1="-1678.04" y1="215.584" x2="1768.51" y2="501.948" gradientUnits="userSpaceOnUse">
<stop stop-color="#FEB850"/>
<stop offset="1" stop-color="#FEE72F" stop-opacity="0.8857"/>
</linearGradient>
<linearGradient id="paint10_linear_430_616" x1="-1684.15" y1="240.569" x2="1766.81" y2="449.709" gradientUnits="userSpaceOnUse">
<stop stop-color="#FEBD4C"/>
<stop offset="1" stop-color="#FEE82E" stop-opacity="0.8952"/>
</linearGradient>
<linearGradient id="paint11_linear_430_616" x1="-1688.73" y1="265.501" x2="1763.44" y2="397.622" gradientUnits="userSpaceOnUse">
<stop stop-color="#FDC149"/>
<stop offset="1" stop-color="#FDE82D" stop-opacity="0.9048"/>
</linearGradient>
<linearGradient id="paint12_linear_430_616" x1="-1691.76" y1="290.297" x2="1757.7" y2="344.844" gradientUnits="userSpaceOnUse">
<stop stop-color="#FDC645"/>
<stop offset="1" stop-color="#FDE92C" stop-opacity="0.9143"/>
</linearGradient>
<linearGradient id="paint13_linear_430_616" x1="-1693.29" y1="314.956" x2="1750.28" y2="292.614" gradientUnits="userSpaceOnUse">
<stop stop-color="#FDCA41"/>
<stop offset="1" stop-color="#FDE92B" stop-opacity="0.9238"/>
</linearGradient>
<linearGradient id="paint14_linear_430_616" x1="-1693.29" y1="339.398" x2="1740.46" y2="240.09" gradientUnits="userSpaceOnUse">
<stop stop-color="#FDCF3D"/>
<stop offset="1" stop-color="#FDEA29" stop-opacity="0.9333"/>
</linearGradient>
<linearGradient id="paint15_linear_430_616" x1="-1691.78" y1="363.619" x2="1728.99" y2="187.941" gradientUnits="userSpaceOnUse">
<stop stop-color="#FDD339"/>
<stop offset="1" stop-color="#FDEB28" stop-opacity="0.9429"/>
</linearGradient>
<linearGradient id="paint16_linear_430_616" x1="-1688.83" y1="387.554" x2="1715.24" y2="137.014" gradientUnits="userSpaceOnUse">
<stop stop-color="#FDD835"/>
<stop offset="1" stop-color="#FDEB27" stop-opacity="0.9524"/>
</linearGradient>
<linearGradient id="paint17_linear_430_616" x1="-1684.4" y1="411.17" x2="1699.55" y2="86.321" gradientUnits="userSpaceOnUse">
<stop stop-color="#FDDC31"/>
<stop offset="1" stop-color="#FDEC26" stop-opacity="0.9619"/>
</linearGradient>
<linearGradient id="paint18_linear_430_616" x1="-1678.57" y1="434.463" x2="1682.46" y2="37.1097" gradientUnits="userSpaceOnUse">
<stop stop-color="#FCE12D"/>
<stop offset="1" stop-color="#FCEC25" stop-opacity="0.9714"/>
</linearGradient>
<linearGradient id="paint19_linear_430_616" x1="-1671.32" y1="457.343" x2="1663.21" y2="-11.4747" gradientUnits="userSpaceOnUse">
<stop stop-color="#FCE529"/>
<stop offset="1" stop-color="#FCED23" stop-opacity="0.981"/>
</linearGradient>
<linearGradient id="paint20_linear_430_616" x1="-1662.72" y1="479.843" x2="1642.77" y2="-58.2654" gradientUnits="userSpaceOnUse">
<stop stop-color="#FCEA25"/>
<stop offset="1" stop-color="#FCED22" stop-opacity="0.9905"/>
</linearGradient>
<linearGradient id="paint21_linear_430_616" x1="2244.95" y1="394.5" x2="-56.9942" y2="380.189" gradientUnits="userSpaceOnUse">
<stop stop-color="#1265E1"/>
<stop offset="1" stop-color="white"/>
</linearGradient>
</defs>
</svg>
