<?xml version="1.0" encoding="UTF-8"?>
<svg id="Layer_1" data-name="Layer 1" xmlns="http://www.w3.org/2000/svg" viewBox="0 0 215 55">
  <defs>
    <style>
      .cls-1 {
        fill: #fff;
      }

      .cls-2 {
        fill: #094;
      }

      .cls-3 {
        fill: #134392;
      }
    </style>
  </defs>
  <rect class="cls-1" width="215" height="55"/>
  <g>
    <rect class="cls-1" x="67.88" y="2.29" width="79.24" height="50.43"/>
    <path class="cls-3" d="M69.97,4.37h75.06v46.25h-75.06V4.37Z"/>
    <rect class="cls-2" x="71.08" y="28.02" width="72.85" height="21.5"/>
    <path class="cls-1" d="M139.66,32.37v9.9l-.02-.02-8.17-10.06v13.03h1.09v-9.94l8.19,10.07v-12.99h-1.09Z"/>
    <path class="cls-1" d="M121.49,32.13c-3.69.02-6.66,3.01-6.66,6.69.02,3.69,3.01,6.66,6.69,6.66,3.69-.02,6.66-2.99,6.66-6.68s-3.01-6.68-6.69-6.68M121.49,44.37c-3.07,0-5.57-2.51-5.57-5.59s2.51-5.57,5.61-5.57,5.57,2.5,5.57,5.59c-.02,3.07-2.51,5.59-5.61,5.57"/>
    <path class="cls-1" d="M121.49,36.22c-1.43,0-2.56,1.15-2.56,2.58s1.15,2.56,2.58,2.56,2.56-1.15,2.56-2.56-1.15-2.58-2.58-2.58h0M121.49,40.28c-.82,0-1.48-.66-1.48-1.48s.66-1.48,1.48-1.48,1.48.66,1.48,1.48-.66,1.48-1.48,1.48"/>
    <path class="cls-1" d="M79.94,38.6c-.85-.25-1.82-.49-2.58-.73-.9-.32-1.51-1.15-1.51-2.11,0-.46.14-.9.41-1.27.65-.97,1.85-1.38,2.96-1.04.7.27,1.29.78,1.66,1.44l.92-.39c-.75-1.89-2.89-2.8-4.76-2.04-.03.02-.08.03-.12.05-1.34.53-2.23,1.82-2.23,3.26.02,1.26.73,2.39,1.83,2.97.8.32,1.61.58,2.46.75,1.19.12,2.11,1.09,2.17,2.28v.03c-.02,1.8-2.02,2.85-3.65,2.55-1.17-.25-2.12-1.07-2.56-2.17l-1,.39c.48,1.38,1.6,2.41,2.99,2.79,1.41.37,2.92.05,4.04-.88.82-.65,1.29-1.61,1.29-2.65-.03-1.48-.97-2.73-2.33-3.23"/>
    <path class="cls-1" d="M109.51,38.6c-.85-.25-1.82-.49-2.58-.73-.9-.32-1.49-1.15-1.49-2.11,0-.46.14-.9.41-1.27.65-.97,1.85-1.38,2.96-1.04.7.27,1.29.78,1.66,1.44l.92-.39c-.75-1.89-2.87-2.8-4.76-2.06-.05.02-.08.03-.14.05-1.34.53-2.21,1.82-2.23,3.26.02,1.26.71,2.39,1.83,2.97.8.32,1.61.58,2.46.75,1.19.12,2.11,1.09,2.17,2.28v.03c-.02,1.8-2.02,2.85-3.67,2.55-1.17-.25-2.12-1.07-2.56-2.17l-1,.39c.48,1.38,1.6,2.41,3.01,2.79,1.41.37,2.9.05,4.04-.88.82-.65,1.29-1.61,1.29-2.65-.02-1.46-.95-2.73-2.33-3.21"/>
    <rect class="cls-1" x="98.17" y="32.4" width="1.09" height="12.77"/>
    <path class="cls-1" d="M89.67,31.7l-5.45,13.47h1.19l1.75-4.33h5.04l1.75,4.33h1.17l-5.45-13.47ZM87.58,39.77l2.09-5.15,2.09,5.15h-4.18Z"/>
    <path class="cls-1" d="M78.7,16.11c-.03-3.04,2.38-5.54,5.42-5.62.54,0,1.07.08,1.58.25v-1.15c-.51-.14-1.05-.2-1.58-.2-1.73,0-3.4.73-4.59,2-1.22,1.27-1.89,2.97-1.89,4.72s.7,3.48,1.9,4.77c1.17,1.27,2.84,1.99,4.57,2,.59,0,1.19-.08,1.77-.27v-1.15c-.56.2-1.15.32-1.77.32-3.04-.12-5.44-2.63-5.42-5.67"/>
    <path class="cls-1" d="M97.28,13.53c0-.97-.36-1.9-1.04-2.62-.65-.7-1.55-1.09-2.48-1.09h-4.13v12.64h1.05v-5.28h2.53l2.56,5.28h1.22l-2.6-5.33c1.7-.37,2.89-1.87,2.87-3.6M93.77,16.11h-3.06v-5.15h3.06c1.43.07,2.51,1.29,2.45,2.7-.07,1.31-1.12,2.38-2.45,2.45"/>
    <path class="cls-1" d="M101.9,15.87h5.47v-1.1h-5.47v-3.75h5.49v-1.14h-6.61v12.74h6.64v-1.1h-5.52v-5.64Z"/>
    <path class="cls-1" d="M128.77,10.95h3.72v11.46h1.17v-11.46h3.7v-1.17h-8.59v1.17h0Z"/>
    <rect class="cls-1" x="124.09" y="9.61" width="1.17" height="12.74"/>
    <path class="cls-1" d="M115.02,9.79l-3.55-.02v12.67h3.57c3.5-.32,6.06-3.41,5.74-6.9-.29-3.06-2.72-5.49-5.76-5.76M115.02,21.31h-2.5v-10.43h2.5c2.89.29,4.98,2.87,4.69,5.76-.25,2.48-2.23,4.43-4.69,4.67"/>
  </g>
</svg>