<svg width="32" height="32" viewBox="0 0 32 32" fill="none" xmlns="http://www.w3.org/2000/svg">
<g clip-path="url(#clip0_430_228)">
<path d="M0 3.2C0 1.43269 1.43269 0 3.2 0H28.8C30.5673 0 32 1.43269 32 3.2V28.8C32 30.5673 30.5673 32 28.8 32H3.2C1.43269 32 0 30.5673 0 28.8V3.2Z" fill="#1265E1"/>
<path d="M17.1695 15.7188H19.1604L19.5325 13.3571H17.1695V11.8332C17.1695 11.495 17.2759 11.2073 17.4887 10.9701C17.6826 10.7162 18.0453 10.5807 18.5767 10.5639H19.6401V8.55792C19.6225 8.55792 19.4185 8.53264 19.0281 8.48208C18.6566 8.43153 18.2228 8.40625 17.7267 8.40625C16.7533 8.40625 15.9744 8.67708 15.3901 9.21875C14.8235 9.76042 14.5313 10.5476 14.5137 11.5804V13.3571H12.3604V15.7188H14.5137V21.4062H17.1695V15.7188Z" fill="white"/>
</g>
<path d="M0.5 3.2C0.5 1.70883 1.70883 0.5 3.2 0.5H28.8C30.2912 0.5 31.5 1.70883 31.5 3.2V28.8C31.5 30.2912 30.2912 31.5 28.8 31.5H3.2C1.70883 31.5 0.5 30.2912 0.5 28.8V3.2Z" stroke="#1265E1"/>
<defs>
<clipPath id="clip0_430_228">
<path d="M0 3.2C0 1.43269 1.43269 0 3.2 0H28.8C30.5673 0 32 1.43269 32 3.2V28.8C32 30.5673 30.5673 32 28.8 32H3.2C1.43269 32 0 30.5673 0 28.8V3.2Z" fill="white"/>
</clipPath>
</defs>
</svg>
