<?xml version="1.0" encoding="UTF-8"?>
<svg version="1.1" xmlns="http://www.w3.org/2000/svg" width="512" height="512">
<path d="M0 0 C1.73825918 1.59430959 3.4667557 3.19930221 5.1875 4.8125 C5.68121094 5.27221191 6.17492187 5.73192383 6.68359375 6.20556641 C36.83385106 34.50432724 55.13623339 72.36467189 62.1875 112.8125 C62.30609375 113.48361816 62.4246875 114.15473633 62.546875 114.84619141 C68.73715698 151.72074314 62.32459102 189.93251427 47.1875 223.8125 C46.87586914 224.5142334 46.56423828 225.2159668 46.24316406 225.93896484 C41.08789777 237.34328674 34.33006295 247.56385256 27.1875 257.8125 C29.89806741 260.93462912 33.3118669 262.79953196 36.84765625 264.83984375 C38.20418926 265.63396479 39.56063107 266.42824165 40.91699219 267.22265625 C41.62513062 267.63531738 42.33326904 268.04797852 43.06286621 268.47314453 C63.0202579 280.12433151 63.0202579 280.12433151 72.4375 286.3125 C73.07051025 286.71847412 73.70352051 287.12444824 74.35571289 287.54272461 C89.26905925 297.54079598 101.55118556 311.97978486 114.21875 324.60546875 C115.27238607 325.65504642 116.32605148 326.70459464 117.37974548 327.75411415 C122.32222512 332.67764703 127.26236121 337.60351637 132.19957399 342.53233069 C137.86958362 348.19252927 143.54782298 353.84430479 149.233006 359.48926181 C153.65306374 363.87912586 158.06538504 368.27667083 162.47202635 372.68000203 C165.09400704 375.29964137 167.71913536 377.91592392 170.35255432 380.52406883 C173.28330637 383.42712882 176.19786846 386.34594343 179.11132812 389.26635742 C179.97576538 390.11798462 180.84020264 390.96961182 181.73083496 391.8470459 C187.33457782 397.49967757 191.57683961 402.46603489 192.71875 410.59375 C192.7084375 411.8209375 192.698125 413.048125 192.6875 414.3125 C192.6978125 415.5396875 192.708125 416.766875 192.71875 418.03125 C191.58752894 426.08288222 187.1833449 431.42906033 181.55078125 437.015625 C180.91190475 437.66070007 180.27302826 438.30577515 179.61479187 438.97039795 C178.26910621 440.32314518 176.91833144 441.67084722 175.56274414 443.01367188 C173.50717954 445.05536889 171.47676086 447.11992562 169.44726562 449.1875 C168.12905615 450.50666086 166.80943954 451.82441742 165.48828125 453.140625 C164.89106766 453.7510968 164.29385406 454.3615686 163.67854309 454.99053955 C158.59659234 459.96399084 153.05916299 463.21649855 145.96484375 464.30859375 C124.81601244 463.87223547 111.90935216 444.69777184 97.85867786 430.65093493 C96.37698092 429.16995629 94.89457105 427.68969499 93.41191864 426.20967293 C88.21953211 421.0264837 83.0296786 415.84077415 77.84228516 410.65258789 C73.03663457 405.84633536 68.22541634 401.04570638 63.41159368 396.24764007 C59.24884956 392.09802798 55.09002756 387.94451196 50.93416286 383.78801018 C48.4648834 381.31847776 45.99413269 378.85046663 43.51938629 376.38641167 C40.76019131 373.63881824 38.00918582 370.88311081 35.25878906 368.12670898 C34.4554866 367.32902603 33.65218414 366.53134308 32.82453918 365.70948792 C24.84371812 357.68458211 18.08227227 349.12960581 12.25 339.4375 C11.71930908 338.56697998 11.18861816 337.69645996 10.6418457 336.79956055 C9.47158134 334.8780442 8.30431761 332.954698 7.13964844 331.02978516 C5.35640947 328.09087531 3.56155903 325.15957222 1.76130676 322.2310791 C0.18423034 319.66469551 -1.38865487 317.09575947 -2.96072388 314.52630615 C-3.73577073 313.26062585 -4.51203334 311.99568921 -5.28952026 310.73150635 C-6.380957 308.95513005 -7.46658059 307.17533059 -8.55078125 305.39453125 C-9.18024658 304.36561768 -9.80971191 303.3367041 -10.45825195 302.27661133 C-11.8125 299.8125 -11.8125 299.8125 -11.8125 297.8125 C-12.86566406 298.51375 -13.91882813 299.215 -15.00390625 299.9375 C-22.27401592 304.73534847 -29.55910112 309.4002156 -37.25 313.5 C-38.19758179 314.00756836 -38.19758179 314.00756836 -39.16430664 314.52539062 C-43.54450792 316.8125 -43.54450792 316.8125 -45.8125 316.8125 C-45.131875 318.606875 -45.131875 318.606875 -44.4375 320.4375 C-37.35390058 341.85615605 -40.3207883 365.64330851 -49.8125 385.8125 C-51.88480045 389.70365409 -54.19983847 393.26444113 -56.8125 396.8125 C-57.81410156 398.18148437 -57.81410156 398.18148437 -58.8359375 399.578125 C-71.26450304 415.64103641 -87.49694542 425.48183857 -106.8125 430.8125 C-108.12541016 431.18181641 -108.12541016 431.18181641 -109.46484375 431.55859375 C-131.93158948 436.7050047 -156.1808314 431.77486274 -175.55517578 419.72900391 C-195.25513906 406.67211986 -207.7905623 387.94913181 -213.6875 365.3125 C-216.77279038 348.98078326 -215.25654162 332.70391668 -210.8125 316.8125 C-211.64007813 316.57273437 -212.46765625 316.33296875 -213.3203125 316.0859375 C-217.40724767 314.59562333 -220.95442954 312.64976969 -224.6875 310.4375 C-225.42492432 310.00123291 -226.16234863 309.56496582 -226.92211914 309.11547852 C-237.99069257 302.42907483 -248.26849603 294.59444333 -257.69921875 285.75 C-259.84079188 283.73924538 -259.84079188 283.73924538 -262.38671875 281.77734375 C-266.00979304 278.84271192 -268.80422533 275.35897823 -271.8125 271.8125 C-272.65167969 270.86117188 -273.49085938 269.90984375 -274.35546875 268.9296875 C-293.70587822 246.8579644 -306.83340178 220.54970717 -314.5625 192.3125 C-314.7493335 191.63864258 -314.93616699 190.96478516 -315.12866211 190.27050781 C-319.03920892 175.05013237 -320.36752608 159.79054644 -320.25 144.125 C-320.24695862 143.25708832 -320.24391724 142.38917664 -320.24078369 141.4949646 C-320.16750162 127.28882788 -319.18894973 113.65982489 -315.8125 99.8125 C-315.49901611 98.48412109 -315.49901611 98.48412109 -315.17919922 97.12890625 C-307.10639079 63.79758035 -289.86157824 34.91453258 -266.8125 9.8125 C-265.66007812 8.55179688 -265.66007812 8.55179688 -264.484375 7.265625 C-258.6891456 1.21282985 -252.1572604 -3.86565465 -245.4921875 -8.91357422 C-243.99702119 -10.04755355 -242.51329135 -11.19657638 -241.03125 -12.34765625 C-217.42754157 -30.22817634 -188.79821844 -41.13361365 -159.8125 -46.1875 C-158.60722656 -46.41308594 -157.40195313 -46.63867188 -156.16015625 -46.87109375 C-99.97728804 -55.71638788 -42.26694036 -37.25451474 0 0 Z " fill="#82ADE2" transform="translate(319.8125,48.1875)"/>
<path d="M0 0 C1.3440093 1.99284138 2.67541292 3.99419671 4 6 C12.287347 15.43836742 21.83000709 18.06949752 34 19 C34 21.97 34 24.94 34 28 C34.73605469 27.94199219 35.47210938 27.88398438 36.23046875 27.82421875 C44.27906672 27.45209071 44.27906672 27.45209071 48.125 30.375 C51.56181176 35.18653646 51.28497748 38.97219128 51.375 44.75 C51.43107422 46.09191406 51.43107422 46.09191406 51.48828125 47.4609375 C51.54755296 51.92607314 51.48992136 55.02550727 48.6015625 58.578125 C45.07210464 61.86380649 43.5724296 62.12272346 38.875 62.0625 C37.96492187 62.05347656 37.05484375 62.04445312 36.1171875 62.03515625 C35.41851562 62.02355469 34.71984375 62.01195312 34 62 C33.85304687 62.92619141 33.85304687 62.92619141 33.703125 63.87109375 C31.60800284 75.7374322 26.38654899 85.32271731 18 94 C17.01 94.66 16.02 95.32 15 96 C13.80390721 100.7599611 14.01336926 105.25401118 16.44140625 109.55078125 C22.05788063 116.30189692 29.27414603 120.69877616 38 122 C40.51952753 122.14901915 43.04069384 122.27146544 45.5625 122.375 C57.12104103 123.01538067 66.36865641 125.34723859 76 132 C76.886875 132.5775 77.77375 133.155 78.6875 133.75 C87.27753992 142.10787667 93.78275677 154.62499042 94.3671875 166.7421875 C93.60515612 171.42786983 90.43065137 173.97033385 87 177 C86.0409375 177.86625 85.081875 178.7325 84.09375 179.625 C73.75769017 188.75926684 62.85030744 196.43975671 50.37963867 202.3503418 C46.97627006 203.96471098 43.9061833 205.58927289 41 208 C41.83402344 208.77601563 42.66804687 209.55203125 43.52734375 210.3515625 C57.30657241 223.45517772 69.41302945 240.63576459 72 260 C72.10828125 260.68707031 72.2165625 261.37414062 72.328125 262.08203125 C75.38436036 284.40059214 70.42612002 307.7669975 57 326 C56.33226562 326.91265625 55.66453125 327.8253125 54.9765625 328.765625 C42.54799696 344.82853641 26.31555458 354.66933857 7 360 C5.68708984 360.36931641 5.68708984 360.36931641 4.34765625 360.74609375 C-18.11908948 365.8925047 -42.3683314 360.96236274 -61.74267578 348.91650391 C-81.44263906 335.85961986 -93.9780623 317.13663181 -99.875 294.5 C-104.37436561 270.93189441 -100.0621759 247.83350096 -87.1875 227.6875 C-81.889604 220.11760181 -75.54947402 213.4893871 -69 207 C-69.50748779 206.77449463 -70.01497559 206.54898926 -70.5378418 206.31665039 C-86.79239476 199.0293669 -100.23266247 190.22347506 -113.50390625 178.32470703 C-114.78988969 177.18604088 -116.11067551 176.08689657 -117.4375 174.99609375 C-119.91854159 172.84018866 -121.66584266 171.21339404 -122.55078125 168 C-123.22658809 157.18709055 -117.43926819 146.27178721 -111 138 C-100.96447165 127.06910853 -89.55124187 123.27751792 -75.125 122.5625 C-62.78836675 121.90695086 -53.82717919 119.48484324 -45.296875 110.1328125 C-42.63164825 105.74963839 -42.92548172 100.88473542 -44 96 C-45.96822357 93.34588034 -48.12069422 91.37875063 -50.609375 89.2109375 C-57.30473614 83.01882245 -61.70870242 73.53465393 -62.1875 64.4375 C-62.0946875 63.2309375 -62.0946875 63.2309375 -62 62 C-62.73605469 62.04640625 -63.47210938 62.0928125 -64.23046875 62.140625 C-72.27001244 62.43799253 -72.27001244 62.43799253 -76.125 60.125 C-80.15468878 55.55801938 -79.29673547 50.52532236 -79.375 44.6875 C-79.43107422 43.11838867 -79.43107422 43.11838867 -79.48828125 41.51757812 C-79.57592031 33.86863577 -79.57592031 33.86863577 -76.87109375 29.7890625 C-73.4793873 27.675591 -71.64683649 27.46995404 -67.6875 27.6875 C-66.08455078 27.75517578 -66.08455078 27.75517578 -64.44921875 27.82421875 C-63.64097656 27.88222656 -62.83273438 27.94023437 -62 28 C-62 25.36 -62 22.72 -62 20 C-61.35264893 19.92072266 -60.70529785 19.84144531 -60.03833008 19.75976562 C-39.77917166 17.17311 -21.97403353 12.23546552 -4.51953125 1.46875 C-2 0 -2 0 0 0 Z " fill="#EAEBEC" transform="translate(206,119)"/>
<path d="M0 0 C25.42442529 22.35374557 42.0152883 55.31332263 46.140625 88.80859375 C46.26359136 91.44702784 46.34996856 94.06044751 46.37890625 96.69921875 C46.3887001 97.43723724 46.39849396 98.17525574 46.40858459 98.93563843 C46.72610093 129.03666102 46.72610093 129.03666102 42.140625 143.80859375 C41.92631836 144.55125488 41.71201172 145.29391602 41.49121094 146.05908203 C35.59438471 166.41472016 25.40960316 186.01079651 11.140625 201.80859375 C10.810625 201.80859375 10.480625 201.80859375 10.140625 201.80859375 C9.81191406 200.39320313 9.81191406 200.39320313 9.4765625 198.94921875 C6.04765394 184.83083557 1.27683425 172.85434603 -11.1328125 164.453125 C-18.93246108 159.74875243 -26.50600103 157.88071052 -35.56835938 157.51879883 C-46.66247835 157.05565917 -55.38376813 155.46923842 -63.859375 147.80859375 C-64.46265625 147.29425781 -65.0659375 146.77992188 -65.6875 146.25 C-69.16403707 142.86281318 -70.33566811 140.11120522 -70.671875 135.24609375 C-70.50189406 132.26738021 -70.38876064 130.4772914 -68.5234375 128.12109375 C-67.33234211 127.17252909 -66.11080008 126.2613971 -64.8671875 125.3828125 C-55.94307463 118.38589132 -52.2227845 106.44393651 -49.859375 95.80859375 C-48.86357422 95.76992188 -48.86357422 95.76992188 -47.84765625 95.73046875 C-42.34171244 95.37680229 -38.81751108 95.02209345 -34.859375 90.80859375 C-33.05198143 87.19380661 -33.63181432 82.97626829 -33.609375 78.99609375 C-33.58875 78.09310547 -33.568125 77.19011719 -33.546875 76.25976562 C-33.51781374 71.31571827 -33.54291757 67.77707315 -36.859375 63.80859375 C-39.42831338 62.52412456 -41.62513837 62.47882231 -44.484375 62.24609375 C-45.98871094 62.12041016 -45.98871094 62.12041016 -47.5234375 61.9921875 C-48.29429687 61.93160156 -49.06515625 61.87101562 -49.859375 61.80859375 C-49.859375 58.83859375 -49.859375 55.86859375 -49.859375 52.80859375 C-51.32375 52.87046875 -52.788125 52.93234375 -54.296875 52.99609375 C-63.41616096 52.95756156 -70.89681025 49.66288509 -77.859375 43.80859375 C-83.859375 37.17896412 -83.859375 37.17896412 -83.859375 33.80859375 C-84.77074219 34.36546875 -85.68210938 34.92234375 -86.62109375 35.49609375 C-104.62897479 46.22087145 -124.56157452 54.34863306 -145.859375 53.80859375 C-145.859375 56.44859375 -145.859375 59.08859375 -145.859375 61.80859375 C-146.67921875 61.834375 -147.4990625 61.86015625 -148.34375 61.88671875 C-149.96023437 61.97179687 -149.96023437 61.97179687 -151.609375 62.05859375 C-152.67671875 62.105 -153.7440625 62.15140625 -154.84375 62.19921875 C-158.51037277 62.94014252 -159.53531004 63.92724474 -161.859375 66.80859375 C-162.6692659 70.58301896 -162.46241931 74.39438435 -162.421875 78.24609375 C-162.44572266 79.28314453 -162.46957031 80.32019531 -162.49414062 81.38867188 C-162.48489677 86.18623216 -162.44495656 88.9533919 -159.6875 92.98046875 C-156.56470891 94.99906851 -154.73424699 95.48781524 -151.046875 95.62109375 C-150.07105469 95.66878906 -149.09523438 95.71648437 -148.08984375 95.765625 C-147.35378906 95.77980469 -146.61773437 95.79398438 -145.859375 95.80859375 C-145.70082031 96.55882812 -145.54226562 97.3090625 -145.37890625 98.08203125 C-142.28846742 111.63898393 -136.63712657 120.03084218 -126.859375 129.80859375 C-126.00279548 134.7358211 -125.75418268 139.69145971 -128.109375 144.203125 C-133.8214873 151.11848318 -141.95685162 155.64678645 -150.859375 156.80859375 C-153.46394511 156.97207209 -156.0656442 157.11815646 -158.671875 157.24609375 C-173.02279006 157.96057271 -185.02173408 162.03150244 -194.859375 172.80859375 C-201.16790397 181.30424799 -204.09018435 190.75273093 -206.859375 200.80859375 C-211.61976565 197.4815324 -214.46075396 193.52232228 -217.609375 188.74609375 C-218.13015625 187.96041016 -218.6509375 187.17472656 -219.1875 186.36523438 C-224.63483437 177.93388228 -228.92210178 169.02694649 -232.859375 159.80859375 C-233.37528198 158.63224365 -233.37528198 158.63224365 -233.90161133 157.43212891 C-236.56123747 151.14119824 -238.17646266 144.86380309 -239.546875 138.18359375 C-239.75892578 137.19875 -239.97097656 136.21390625 -240.18945312 135.19921875 C-247.78071917 99.2784015 -241.05532622 60.84273216 -221.19116211 29.84594727 C-199.98566148 -2.10302108 -169.76297039 -23.91343122 -132.859375 -34.19140625 C-131.68375 -34.52785156 -131.68375 -34.52785156 -130.484375 -34.87109375 C-83.78905646 -46.72732697 -35.63127163 -30.41003316 0 0 Z " fill="#837683" transform="translate(289.859375,85.19140625)"/>
<path d="M0 0 C1.05380859 0.68835938 1.05380859 0.68835938 2.12890625 1.390625 C18.89543142 13.17800027 31.60399243 31.94802304 36.375 51.9375 C36.60889592 53.28748624 36.81857315 54.6419667 37 56 C37.10828125 56.68707031 37.2165625 57.37414062 37.328125 58.08203125 C40.38436036 80.40059214 35.42612002 103.7669975 22 122 C21.33226562 122.91265625 20.66453125 123.8253125 19.9765625 124.765625 C7.54799696 140.82853641 -8.68444542 150.66933857 -28 156 C-29.31291016 156.36931641 -29.31291016 156.36931641 -30.65234375 156.74609375 C-53.11908948 161.8925047 -77.3683314 156.96236274 -96.74267578 144.91650391 C-116.44263906 131.85961986 -128.9780623 113.13663181 -134.875 90.5 C-139.37436561 66.93189441 -135.0621759 43.83350096 -122.1875 23.6875 C-107.06540967 2.31995745 -87.07376721 -9.22332538 -61.7734375 -14.4609375 C-39.68978954 -17.93793739 -18.39893862 -12.06306352 0 0 Z " fill="#FD646F" transform="translate(241,323)"/>
<path d="M0 0 C4.07148855 1.36167087 6.49323844 3.11528069 9.52259827 6.13491821 C10.39876297 7.00117828 11.27492767 7.86743835 12.17764282 8.75994873 C13.13559202 9.72213574 14.09338086 10.68448242 15.05102539 11.64697266 C16.06927847 12.65952072 17.08815982 13.67143731 18.10762024 14.68276978 C20.87085151 17.42806477 23.62444767 20.18283562 26.37586904 22.93996096 C28.67659529 25.24377972 30.98189957 27.54298988 33.28718847 29.84224164 C38.72866695 35.26967368 44.16230177 40.70487079 49.59106445 46.14501953 C55.18305158 51.748476 60.78767529 57.339056 66.39879233 62.92335093 C71.22233572 67.72470215 76.03804243 72.53381494 80.84757036 77.34920537 C83.71719574 80.22219455 86.58961145 83.09223981 89.46953011 85.95491409 C92.17982183 88.6496838 94.88014237 91.35407114 97.57328606 94.06597519 C98.55984893 95.05621003 99.54978784 96.04309531 100.54342651 97.02622986 C106.85406005 103.2752534 112.25117397 108.67012059 113.53125 117.78125 C113.5209375 119.0084375 113.510625 120.235625 113.5 121.5 C113.51546875 123.34078125 113.51546875 123.34078125 113.53125 125.21875 C112.40002894 133.27038222 107.9958449 138.61656033 102.36328125 144.203125 C101.72440475 144.84820007 101.08552826 145.49327515 100.42729187 146.15789795 C99.08160621 147.51064518 97.73083144 148.85834722 96.37524414 150.20117188 C94.31967954 152.24286889 92.28926086 154.30742562 90.25976562 156.375 C88.94155615 157.69416086 87.62193954 159.01191742 86.30078125 160.328125 C85.70356766 160.9385968 85.10635406 161.5490686 84.49104309 162.17803955 C79.40909234 167.15149084 73.87166299 170.40399855 66.77734375 171.49609375 C45.60527521 171.05925602 32.67043582 151.83386403 18.60531473 137.7725718 C17.11961327 136.2875884 15.633199 134.80332223 14.1465416 133.31929588 C8.94349409 128.12544347 3.74297736 122.92907297 -1.45507812 117.73022461 C-6.27667309 112.90802692 -11.10384412 108.09146086 -15.93360412 103.27744228 C-20.10649698 99.11765946 -24.2754902 94.95399515 -28.44151413 90.78733319 C-30.91855431 88.31003952 -33.39708133 85.83428249 -35.87957382 83.36245155 C-38.64394257 80.60963797 -41.40017471 77.84876363 -44.15576172 75.0871582 C-44.96625473 74.2822847 -45.77674774 73.47741119 -46.61180115 72.64814758 C-51.19203087 68.04252548 -55.27299042 63.32324136 -59 58 C-58.26355759 57.37723269 -58.26355759 57.37723269 -57.51223755 56.74188423 C-51.02426862 51.22464288 -45.06433868 45.19142266 -39.0625 39.16015625 C-37.93072136 38.02650857 -36.7987188 36.89308441 -35.66650391 35.75987244 C-32.71177989 32.80136149 -29.76007347 29.83985819 -26.809021 26.87768555 C-23.78728529 23.84565275 -20.76265606 20.81650933 -17.73828125 17.78710938 C-11.82271195 11.86087033 -5.91033271 5.93146158 0 0 Z " fill="#EBB978" transform="translate(399,341)"/>
<path d="M0 0 C39.34425348 -2.43533894 82.95688632 15.41247996 112.60546875 40.87109375 C113.39566406 41.57363281 114.18585938 42.27617188 115 43 C115.80050781 43.69222656 116.60101563 44.38445313 117.42578125 45.09765625 C119.99446491 47.35498432 122.50423411 49.66228704 125 52 C125.49226074 52.45826172 125.98452148 52.91652344 126.49169922 53.38867188 C156.64368796 81.68963482 174.94818935 119.54905118 182 160 C182.11859375 160.67111816 182.2371875 161.34223633 182.359375 162.03369141 C188.54965698 198.90824314 182.13709102 237.12001427 167 271 C166.68836914 271.7017334 166.37673828 272.4034668 166.05566406 273.12646484 C160.90039777 284.53078674 154.14256295 294.75135256 147 305 C149.71058775 308.12215254 153.12440375 309.98693759 156.66015625 312.02734375 C158.01764491 312.82239574 159.37506413 313.61756632 160.73242188 314.4128418 C161.44068115 314.82561371 162.14894043 315.23838562 162.87866211 315.66366577 C175.53374501 323.04538482 187.9682832 330.62793039 200 339 C194.4416326 345.77715965 188.24368339 351.88350353 182.0390625 358.05859375 C180.88156574 359.21422229 179.72429189 360.37007414 178.56723022 361.52613831 C175.54129782 364.54827738 172.51237303 367.56739953 169.48278809 370.58587646 C166.38382705 373.67455447 163.28774287 376.76611335 160.19140625 379.85742188 C154.13039606 385.90775098 148.06621753 391.95489193 142 398 C138.70813274 396.46388801 137.24895233 395.33188154 135.36328125 392.1953125 C134.63274536 390.99805542 134.63274536 390.99805542 133.88745117 389.77661133 C133.36771729 388.90157959 132.8479834 388.02654785 132.3125 387.125 C131.76376221 386.21838623 131.21502441 385.31177246 130.6496582 384.37768555 C129.43480899 382.36949967 128.22401224 380.35885844 127.01660156 378.34619141 C124.82004306 374.70139348 122.5959584 371.07435872 120.3671875 367.44921875 C119.19340566 365.53511736 118.02036109 363.62056698 116.8477478 361.70574951 C116.0742502 360.44358469 115.29969318 359.1820685 114.52407837 357.92120361 C113.43223353 356.14411949 112.34625293 354.36358368 111.26171875 352.58203125 C110.63225342 351.55311768 110.00278809 350.5242041 109.35424805 349.46411133 C108 347 108 347 108 345 C106.94683594 345.70125 105.89367187 346.4025 104.80859375 347.125 C97.55670414 351.91138247 90.28480368 356.57582647 82.625 360.6875 C82.00165771 361.02587891 81.37831543 361.36425781 80.73608398 361.71289062 C77.93934349 363.1813055 76.20834517 364 73 364 C72.01 361.69 71.02 359.38 70 357 C70.99257813 356.40574219 71.98515625 355.81148438 73.0078125 355.19921875 C103.90075348 336.46043793 128.30981553 311.08596595 145 279 C145.34804688 278.33129883 145.69609375 277.66259766 146.0546875 276.97363281 C154.95072399 259.6079676 160.72290843 241.20965277 164 222 C164.22558594 220.72125 164.45117188 219.4425 164.68359375 218.125 C169.63836398 184.22753743 165.39658985 148.5264335 152 117 C151.56929199 115.98607178 151.56929199 115.98607178 151.12988281 114.95166016 C141.44444852 92.55998315 127.7420528 73.59203394 111 56 C110.02160156 54.94232422 110.02160156 54.94232422 109.0234375 53.86328125 C80.38420744 23.82255695 40.02151132 8.12998448 0 1 C0 0.67 0 0.34 0 0 Z " fill="#7AA7D3" transform="translate(200,1)"/>
<path d="M0 0 C1.3440093 1.99284138 2.67541292 3.99419671 4 6 C12.287347 15.43836742 21.83000709 18.06949752 34 19 C34 21.97 34 24.94 34 28 C34.73605469 27.94199219 35.47210938 27.88398438 36.23046875 27.82421875 C44.27906672 27.45209071 44.27906672 27.45209071 48.125 30.375 C51.56181176 35.18653646 51.28497748 38.97219128 51.375 44.75 C51.43107422 46.09191406 51.43107422 46.09191406 51.48828125 47.4609375 C51.54755296 51.92607314 51.48992136 55.02550727 48.6015625 58.578125 C45.07210464 61.86380649 43.5724296 62.12272346 38.875 62.0625 C37.96492188 62.05347656 37.05484375 62.04445312 36.1171875 62.03515625 C35.41851562 62.02355469 34.71984375 62.01195312 34 62 C33.90203125 62.61746094 33.8040625 63.23492187 33.703125 63.87109375 C31.60800284 75.7374322 26.38654899 85.32271731 18 94 C17.01 94.66 16.02 95.32 15 96 C14.94855239 98.53076418 14.94855239 98.53076418 15.1875 101.4375 C14.92564818 105.91570046 14.42065433 107.55816164 11.28515625 110.8515625 C8.294139 113.25606365 5.13849658 115.42486527 1.97363281 117.59277344 C-1.30562314 119.93092674 -4.32963958 122.55629154 -7.375 125.1875 C-8.46597622 126.11868834 -9.5571057 127.04969717 -10.6484375 127.98046875 C-11.42445313 128.64691406 -12.20046875 129.31335938 -13 130 C-16.1847097 128.54846565 -18.72250309 126.76471503 -21.4375 124.5625 C-22.30375 123.85996094 -23.17 123.15742188 -24.0625 122.43359375 C-27.94459168 119.21744599 -31.79351816 115.96300967 -35.62084961 112.68188477 C-38.01749558 110.63469613 -40.37318209 108.75121194 -43 107 C-43.1953125 104.71484375 -43.1953125 104.71484375 -43.125 101.9375 C-43.51182749 95.61657415 -46.06706235 93.32870114 -50.64453125 89.24609375 C-57.26500433 82.93303899 -61.70623272 73.58157838 -62.1875 64.4375 C-62.0946875 63.2309375 -62.0946875 63.2309375 -62 62 C-62.73605469 62.04640625 -63.47210938 62.0928125 -64.23046875 62.140625 C-72.27001244 62.43799253 -72.27001244 62.43799253 -76.125 60.125 C-80.15468878 55.55801938 -79.29673547 50.52532236 -79.375 44.6875 C-79.41238281 43.64142578 -79.44976562 42.59535156 -79.48828125 41.51757812 C-79.57592031 33.86863577 -79.57592031 33.86863577 -76.87109375 29.7890625 C-73.4793873 27.675591 -71.64683649 27.46995404 -67.6875 27.6875 C-66.08455078 27.75517578 -66.08455078 27.75517578 -64.44921875 27.82421875 C-63.64097656 27.88222656 -62.83273438 27.94023437 -62 28 C-62 25.36 -62 22.72 -62 20 C-61.02897339 19.88108398 -61.02897339 19.88108398 -60.03833008 19.75976562 C-39.77917166 17.17311 -21.97403353 12.23546552 -4.51953125 1.46875 C-2 0 -2 0 0 0 Z " fill="#FDCCBE" transform="translate(206,119)"/>
<path d="M0 0 C1.31860352 2.06958008 1.31860352 2.06958008 2.62890625 4.76953125 C3.34530273 6.22649414 3.34530273 6.22649414 4.07617188 7.71289062 C4.56666016 8.73576172 5.05714844 9.75863281 5.5625 10.8125 C6.05685547 11.82376953 6.55121094 12.83503906 7.06054688 13.87695312 C7.98183789 15.76316869 8.8990146 17.65140316 9.81079102 19.54223633 C10.55955256 21.08971784 11.33761758 22.62368341 12.15600586 24.13549805 C13 26 13 26 13 29 C16.63 26.36 20.26 23.72 24 21 C24.99 22.32 25.98 23.64 27 25 C28.64646685 26.68662458 30.31183067 28.35511706 32 30 C34 32 34 32 34.06445312 33.94775391 C33.25172335 40.84614822 31.96819048 47.58776516 30.5 54.375 C30.27441406 55.44105469 30.04882812 56.50710938 29.81640625 57.60546875 C28.9347458 61.75292469 28.05251485 65.89206819 27 70 C26.4423999 70.13986328 25.8847998 70.27972656 25.31030273 70.42382812 C5.84221664 75.2906974 5.84221664 75.2906974 -11.02734375 85.80078125 C-13 87 -13 87 -15.62109375 86.99609375 C-20.41662406 85.5823825 -24.65522579 83.40061102 -29.0625 81.0625 C-29.99771484 80.56741943 -30.93292969 80.07233887 -31.89648438 79.56225586 C-44.83999593 72.55044168 -55.42418587 63.12873161 -66 53 C-66.60714844 52.47148437 -67.21429688 51.94296875 -67.83984375 51.3984375 C-69.75881998 49.08532811 -69.45554437 46.52639072 -69.34375 43.65234375 C-67.70851346 31.03500723 -61.11986471 19.78288451 -51.38671875 11.71875 C-41.49102414 4.59255421 -31.93964984 3.00481814 -20.03393555 2.46826172 C-14.77812062 2.18175004 -10.11417178 1.18512932 -5.13671875 -0.4765625 C-3 -1 -3 -1 0 0 Z " fill="#EAEBEC" transform="translate(153,239)"/>
<path d="M0 0 C0.88115982 -0.00428513 1.76231964 -0.00857025 2.67018127 -0.01298523 C4.5249852 -0.01870198 6.37981152 -0.01924848 8.23461914 -0.01489258 C11.05459226 -0.01173199 13.87351557 -0.03522703 16.69335938 -0.06054688 C18.50390494 -0.06282026 20.3144533 -0.06352318 22.125 -0.0625 C22.95857529 -0.07170975 23.79215057 -0.08091949 24.65098572 -0.09040833 C30.87148514 -0.04183307 36.62790034 0.86578039 41.6171875 4.9140625 C42.05417969 5.47480469 42.49117188 6.03554687 42.94140625 6.61328125 C43.42609375 7.23074219 43.91078125 7.84820312 44.41015625 8.484375 C45.62890625 10.30078125 45.62890625 10.30078125 46.94140625 13.17578125 C48.657491 16.35371596 50.2405924 17.88937129 52.87890625 20.30078125 C59.96119171 27.10533002 65.29000432 36.8514981 65.74243164 46.79614258 C65.73457642 48.07654419 65.73457642 48.07654419 65.7265625 49.3828125 C65.72172852 50.77983398 65.72172852 50.77983398 65.71679688 52.20507812 C65.70422852 53.64463867 65.70422852 53.64463867 65.69140625 55.11328125 C65.68689453 56.09232422 65.68238281 57.07136719 65.67773438 58.08007812 C65.66599309 60.48704236 65.64957044 62.89387982 65.62890625 65.30078125 C63.31890625 65.30078125 61.00890625 65.30078125 58.62890625 65.30078125 C58.62890625 62.33078125 58.62890625 59.36078125 58.62890625 56.30078125 C57.16453125 56.36265625 55.70015625 56.42453125 54.19140625 56.48828125 C45.07212029 56.44974906 37.591471 53.15507259 30.62890625 47.30078125 C24.62890625 40.67115162 24.62890625 40.67115162 24.62890625 37.30078125 C23.71753906 37.85765625 22.80617188 38.41453125 21.8671875 38.98828125 C2.71835395 50.38460148 -15.95493797 56.89766114 -38.37109375 56.30078125 C-38.37109375 58.94078125 -38.37109375 61.58078125 -38.37109375 64.30078125 C-40.35109375 64.30078125 -42.33109375 64.30078125 -44.37109375 64.30078125 C-44.44615087 60.35393134 -44.5001159 56.40736698 -44.53588867 52.45996094 C-44.55810854 50.4692522 -44.5962597 48.47874157 -44.63476562 46.48828125 C-44.73256219 33.57913431 -42.24032979 22.81483063 -33.33203125 13.0703125 C-23.743636 4.04095796 -13.0087426 -0.01418893 0 0 Z " fill="#86513D" transform="translate(181.37109375,81.69921875)"/>
<path d="M0 0 C4.22442954 1.53841924 8.0054307 3.63855093 11.85546875 5.9296875 C12.51090164 6.31663284 13.16633453 6.70357819 13.84162903 7.10224915 C15.95960683 8.35536451 18.07382933 9.61463509 20.1875 10.875 C21.26173218 11.51328232 21.26173218 11.51328232 22.35766602 12.16445923 C33.47173675 18.77400121 44.3825595 25.61203099 55 33 C49.4416326 39.77715965 43.24368339 45.88350353 37.0390625 52.05859375 C35.88156574 53.21422229 34.72429189 54.37007414 33.56723022 55.52613831 C30.54129782 58.54827738 27.51237303 61.56739953 24.48278809 64.58587646 C21.38382705 67.67455447 18.28774287 70.76611335 15.19140625 73.85742188 C9.13039606 79.90775098 3.06621753 85.95489193 -3 92 C-6.29186726 90.46388801 -7.75104767 89.33188154 -9.63671875 86.1953125 C-10.12366211 85.39722168 -10.61060547 84.59913086 -11.11230469 83.77685547 C-11.63211914 82.90174316 -12.15193359 82.02663086 -12.6875 81.125 C-13.23696289 80.21766113 -13.78642578 79.31032227 -14.35253906 78.37548828 C-15.56824837 76.3666478 -16.77977216 74.35527023 -17.98779297 72.34179688 C-20.17356915 68.71174296 -22.38332896 65.09704532 -24.59765625 61.484375 C-25.76469138 59.57677023 -26.93117016 57.66882689 -28.09732056 55.76068115 C-28.86448793 54.50566349 -29.63220677 53.25098274 -30.40048218 51.99664307 C-31.48363121 50.22619288 -32.56267167 48.45330462 -33.640625 46.6796875 C-34.26485352 45.65601074 -34.88908203 44.63233398 -35.53222656 43.57763672 C-37 41 -37 41 -38 38 C-37.16339844 37.30777344 -36.32679688 36.61554688 -35.46484375 35.90234375 C-22.48504873 25.04154504 -10.32212985 13.45513403 0 0 Z " fill="#A69BA7" transform="translate(345,307)"/>
<path d="M0 0 C3.99175468 2.10272302 6.99471394 4.28078826 9.07421875 8.2734375 C10.09441118 15.75134282 9.52844922 20.11774782 5.07421875 26.2734375 C3.59145455 27.93295278 2.06171819 29.55144776 0.49267578 31.12963867 C-0.85925369 32.49586617 -0.85925369 32.49586617 -2.23849487 33.88969421 C-3.21465667 34.86559459 -4.19115625 35.84115719 -5.16796875 36.81640625 C-6.1794276 37.83175798 -7.19066454 38.8473308 -8.20169067 39.8631134 C-10.31483138 41.98368805 -12.43176894 44.10038239 -14.55126953 46.21459961 C-17.25862996 48.91615768 -19.95443286 51.6289317 -22.64727592 54.34495068 C-24.73019052 56.44263536 -26.82003194 58.53331146 -28.91189957 60.62206459 C-29.90853273 61.61920893 -30.9028242 62.61869978 -31.89464951 63.62062645 C-33.28436079 65.02275267 -34.68471833 66.41430225 -36.08544922 67.80541992 C-36.87724579 68.59784592 -37.66904236 69.39027191 -38.48483276 70.20671082 C-43.60336723 74.54052279 -48.46864038 76.15779026 -55.0859375 75.91796875 C-60.10426946 74.77900758 -62.94301757 71.45771591 -66.40771484 67.82324219 C-68.79548731 65.38554845 -71.31622093 63.09515913 -73.82299805 60.78100586 C-77.21793829 57.64069599 -80.57162201 54.45717959 -83.92578125 51.2734375 C-84.47459961 50.75475098 -85.02341797 50.23606445 -85.58886719 49.70166016 C-87.00189329 48.36005875 -88.40188144 47.0047621 -89.80078125 45.6484375 C-90.94160156 44.54628906 -90.94160156 44.54628906 -92.10546875 43.421875 C-95.73638686 39.13645663 -96.37807434 34.93796666 -96.2421875 29.484375 C-95.56838862 24.77610137 -92.76626622 22.03192393 -89.36328125 18.9609375 C-85.22499477 16.09596994 -81.87580823 15.7865496 -76.92578125 16.2734375 C-69.8803141 18.97622447 -64.77035121 25.21928128 -59.66015625 30.53125 C-57.09983954 33.23618513 -57.09983954 33.23618513 -54.56640625 35.015625 C-54.025 35.43070312 -53.48359375 35.84578125 -52.92578125 36.2734375 C-52.92578125 36.9334375 -52.92578125 37.5934375 -52.92578125 38.2734375 C-47.64078107 33.94270247 -42.80341817 29.21145033 -38.01171875 24.3515625 C-37.3896051 23.72157349 -36.76749146 23.09158447 -36.12652588 22.44250488 C-33.52228885 19.80174941 -30.92099745 17.15824522 -28.32910156 14.50537109 C-26.41760216 12.55144689 -24.49669427 10.60718007 -22.57421875 8.6640625 C-21.9959433 8.06716614 -21.41766785 7.47026978 -20.8218689 6.85528564 C-15.03263551 1.0299767 -8.35925011 -3.15379416 0 0 Z " fill="#ECEDEF" transform="translate(234.92578125,356.7265625)"/>
<path d="M0 0 C32.52184635 -1.04909182 64.53662607 8.02786533 90 29 C90.52529297 29.42812988 91.05058594 29.85625977 91.59179688 30.29736328 C121.12827391 54.44588617 141.28738175 87.73635334 146 126 C146.12296636 128.63843409 146.20934356 131.25185376 146.23828125 133.890625 C146.25297203 134.99765274 146.25297203 134.99765274 146.26795959 136.12704468 C146.58547593 166.22806727 146.58547593 166.22806727 142 181 C141.78569336 181.74266113 141.57138672 182.48532227 141.35058594 183.25048828 C135.45375971 203.60612641 125.26897816 223.20220276 111 239 C110.67 239 110.34 239 110 239 C109.49095343 237.12743583 108.99317545 235.25180659 108.5 233.375 C108.2215625 232.33085937 107.943125 231.28671875 107.65625 230.2109375 C106.25833095 223.37111931 107.33422454 219.75686287 111 213.9375 C119.2773089 199.99077885 124.4786648 184.99148215 127 169 C127.16628906 168.18063965 127.33257812 167.3612793 127.50390625 166.51708984 C128.82777565 159.90361105 129.3176534 153.61316308 129.25 146.875 C129.24250732 145.87364014 129.23501465 144.87228027 129.22729492 143.84057617 C128.68488271 105.91717463 115.07296182 71.58315041 89 44 C88.25363281 43.18917969 87.50726563 42.37835938 86.73828125 41.54296875 C63.7948372 17.46183326 32.53863355 4.86396273 0 1 C0 0.67 0 0.34 0 0 Z " fill="#685F69" transform="translate(190,48)"/>
<path d="M0 0 C4.58448425 1.8337937 6.19501598 2.81801533 9.52259827 6.13491821 C10.39876297 7.00117828 11.27492767 7.86743835 12.17764282 8.75994873 C13.13559202 9.72213574 14.09338086 10.68448242 15.05102539 11.64697266 C16.06927847 12.65952072 17.08815982 13.67143731 18.10762024 14.68276978 C20.87085151 17.42806477 23.62444767 20.18283562 26.37586904 22.93996096 C28.67659529 25.24377972 30.98189957 27.54298988 33.28718847 29.84224164 C38.72866695 35.26967368 44.16230177 40.70487079 49.59106445 46.14501953 C55.18305158 51.748476 60.78767529 57.339056 66.39879233 62.92335093 C71.22233572 67.72470215 76.03804243 72.53381494 80.84757036 77.34920537 C83.71719574 80.22219455 86.58961145 83.09223981 89.46953011 85.95491409 C92.17982183 88.6496838 94.88014237 91.35407114 97.57328606 94.06597519 C98.55984893 95.05621003 99.54978784 96.04309531 100.54342651 97.02622986 C106.85406005 103.2752534 112.25117397 108.67012059 113.53125 117.78125 C113.44537601 128.0002554 112.39409999 133.69649819 105.25 141 C104.17640225 142.01044494 103.0964637 143.01441465 102 144 C101.15860243 141.13539453 100.98499679 138.84139844 101.1875 135.875 C101.19355612 126.13585429 96.45655203 119.77142757 89.80874634 113.06222534 C88.8271221 112.10182673 87.84520947 111.14172281 86.86303711 110.18188477 C85.82170288 109.14224619 84.78169442 108.10127827 83.74290466 107.05909729 C80.93811772 104.25259901 78.11530729 101.46490441 75.28873515 98.68037152 C72.32715478 95.75649815 69.38274629 92.81543169 66.43641663 89.87620544 C60.85990598 84.31829602 55.2682924 78.77584569 49.67099434 73.2388801 C43.30818882 66.9431813 36.96244047 60.63040834 30.61807621 54.31613457 C18.10059404 41.85871451 5.56394105 29.42077215 -6.98658848 16.99665165 C-8.66189282 15.33529273 -10.3316538 13.6683462 -12 12 C-8.04 8.04 -4.08 4.08 0 0 Z " fill="#E2A770" transform="translate(399,341)"/>
<path d="M0 0 C4.41554958 2.42357232 7.99241782 5.44299924 11.75 8.75 C17.03657498 13.34738493 22.39631857 17.78982665 28 22 C31.48509931 20.45555924 34.14322337 18.37524647 37.0625 15.9375 C38.02414063 15.14085937 38.98578125 14.34421875 39.9765625 13.5234375 C40.97429687 12.69070312 41.97203125 11.85796875 43 11 C44.97620381 9.35061025 46.95525668 7.70462651 48.9375 6.0625 C49.81277344 5.33160156 50.68804687 4.60070312 51.58984375 3.84765625 C53.68268491 2.24325776 55.59933363 1.06386839 58 0 C58.54269531 0.61488281 59.08539063 1.22976562 59.64453125 1.86328125 C60.35996094 2.67152344 61.07539063 3.47976562 61.8125 4.3125 C62.52019531 5.11300781 63.22789062 5.91351563 63.95703125 6.73828125 C65.58547017 8.54108457 67.28216515 10.28216515 69 12 C61.575 26.85 61.575 26.85 54 42 C49.79792647 39.47875588 45.9533255 36.86809889 42 34 C41.79375 34.886875 41.5875 35.77375 41.375 36.6875 C39.61695642 40.92278682 37.64626667 42.30493333 34 45 C35.00777974 50.5733068 36.02411443 56.14470134 37.0703125 61.7109375 C37.59765625 64.54296875 37.59765625 64.54296875 38.125 67.375 C38.30675781 68.33277344 38.48851562 69.29054688 38.67578125 70.27734375 C38.84722656 71.20417969 39.01867187 72.13101563 39.1953125 73.0859375 C39.35016113 73.9114209 39.50500977 74.7369043 39.66455078 75.58740234 C40 78 40 78 40 83 C32.41 83 24.82 83 17 83 C17.637358 78.53849403 18.31027129 74.20862435 19.19140625 69.8046875 C19.52495117 68.11279297 19.52495117 68.11279297 19.86523438 66.38671875 C20.33171887 64.03730946 20.80048518 61.68835212 21.27148438 59.33984375 C21.49255859 58.21449219 21.71363281 57.08914063 21.94140625 55.9296875 C22.24606812 54.40190674 22.24606812 54.40190674 22.55688477 52.84326172 C22.98175527 50.11706786 23.2906588 47.74586043 23 45 C21.55047917 43.71153704 20.0906335 42.42786537 18.53515625 41.26953125 C16.4100805 39.51215308 15.24967779 37.42992904 14 35 C13.37351563 35.5053125 12.74703125 36.010625 12.1015625 36.53125 C11.28429687 37.1809375 10.46703125 37.830625 9.625 38.5 C8.81289062 39.1496875 8.00078125 39.799375 7.1640625 40.46875 C5 42 5 42 3 42 C2.68772461 41.34515625 2.37544922 40.6903125 2.05371094 40.015625 C0.61990742 37.01005019 -0.81503813 34.00502194 -2.25 31 C-2.74113281 29.97003906 -3.23226562 28.94007813 -3.73828125 27.87890625 C-6.43932121 22.22472927 -9.17615888 16.59389479 -12 11 C-11.46890625 10.62488281 -10.9378125 10.24976563 -10.390625 9.86328125 C-6.31226272 6.90870127 -2.93808 4.16228001 0 0 Z " fill="#DCDCDC" transform="translate(163,226)"/>
<path d="M0 0 C21.00708718 -0.57466196 38.39308764 3.45621987 56 15 C56.70253906 15.45890625 57.40507812 15.9178125 58.12890625 16.390625 C74.89543142 28.17800027 87.60399243 46.94802304 92.375 66.9375 C92.60889592 68.28748624 92.81857315 69.6419667 93 71 C93.10828125 71.68707031 93.2165625 72.37414062 93.328125 73.08203125 C96.38436036 95.40059214 91.42612002 118.7669975 78 137 C77.33226562 137.91265625 76.66453125 138.8253125 75.9765625 139.765625 C63.54799696 155.82853641 47.31555458 165.66933857 28 171 C26.68708984 171.36931641 26.68708984 171.36931641 25.34765625 171.74609375 C15.81729545 173.92919378 5.71514952 173.17587654 -4 173 C-4 172.67 -4 172.34 -4 172 C-3.00742188 171.90203125 -2.01484375 171.8040625 -0.9921875 171.703125 C18.91523084 169.58526202 35.99935265 163.54980754 51 150 C51.75667969 149.33613281 52.51335937 148.67226563 53.29296875 147.98828125 C68.53067619 133.79964145 78.16725244 112.21657155 79.16796875 91.52734375 C79.30980686 65.45749903 71.62175184 43.48259392 53.58984375 24.45703125 C38.84477437 10.52713644 20.09355661 2.67446305 0 1 C0 0.67 0 0.34 0 0 Z " fill="#ED6172" transform="translate(185,308)"/>
<path d="M0 0 C4.23059292 1.69223717 7.96730247 3.61586103 11.85546875 5.9296875 C12.51090164 6.31663284 13.16633453 6.70357819 13.84162903 7.10224915 C15.95960683 8.35536451 18.07382933 9.61463509 20.1875 10.875 C21.26173218 11.51328232 21.26173218 11.51328232 22.35766602 12.16445923 C33.47173675 18.77400121 44.3825595 25.61203099 55 33 C51.16171005 37.53451965 47.25222428 41.84901916 43 46 C38.83609717 44.53804147 35.60704482 42.4650326 32 39.9375 C22.9778643 33.7379053 13.47422716 28.3456506 3.9921875 22.89038086 C3.37199738 22.53164383 2.75180725 22.1729068 2.11282349 21.80329895 C0.40776546 20.81741344 -1.30017787 19.8365228 -3.00830078 18.85595703 C-6 17 -6 17 -11 13 C-7.37 8.71 -3.74 4.42 0 0 Z " fill="#847785" transform="translate(345,307)"/>
<path d="M0 0 C3.07427644 1.2521221 5.23787928 2.9332561 7.77734375 5.06640625 C8.66035156 5.79988281 9.54335937 6.53335937 10.453125 7.2890625 C11.44892578 8.13791016 11.44892578 8.13791016 12.46484375 9.00390625 C11.93348983 14.58697284 11.93348983 14.58697284 9.765625 16.515625 C9.10949219 16.90363281 8.45335937 17.29164063 7.77734375 17.69140625 C5.87627126 19.05328825 5.87627126 19.05328825 4.46484375 21.00390625 C4.42377174 23.41169826 4.42377174 23.41169826 5.125 26 C5.33761475 26.97590088 5.55022949 27.95180176 5.76928711 28.95727539 C5.9988208 29.96266357 6.22835449 30.96805176 6.46484375 32.00390625 C6.83045169 33.90587463 7.18737862 35.80953443 7.53515625 37.71484375 C7.70917969 38.64941406 7.88320312 39.58398438 8.0625 40.546875 C8.23652344 41.48144531 8.41054687 42.41601562 8.58984375 43.37890625 C8.77160156 44.33667969 8.95335937 45.29445313 9.140625 46.28125 C9.31207031 47.20808594 9.48351562 48.13492188 9.66015625 49.08984375 C9.81500488 49.91532715 9.96985352 50.74081055 10.12939453 51.59130859 C10.46484375 54.00390625 10.46484375 54.00390625 10.46484375 59.00390625 C2.87484375 59.00390625 -4.71515625 59.00390625 -12.53515625 59.00390625 C-11.89779825 54.54240028 -11.22488496 50.2125306 -10.34375 45.80859375 C-10.12138672 44.68066406 -9.89902344 43.55273438 -9.66992188 42.390625 C-9.20343738 40.04121571 -8.73467107 37.69225837 -8.26367188 35.34375 C-8.04259766 34.21839844 -7.82152344 33.09304688 -7.59375 31.93359375 C-7.39064209 30.91507324 -7.18753418 29.89655273 -6.97827148 28.84716797 C-6.55311684 26.11915089 -6.23395438 23.75093797 -6.53515625 21.00390625 C-9.18932699 18.756755 -9.18932699 18.756755 -11.125 17.60546875 C-13.52075282 14.88453064 -13.54653204 12.54556859 -13.53515625 9.00390625 C-11.40234375 6.31640625 -11.40234375 6.31640625 -8.41015625 4.00390625 C-7.43820313 3.22015625 -6.46625 2.43640625 -5.46484375 1.62890625 C-2.53515625 0.00390625 -2.53515625 0.00390625 0 0 Z " fill="#84AFE2" transform="translate(192.53515625,249.99609375)"/>
<path d="M0 0 C7.47436466 1.20554269 12.74444331 3.78549796 19 8 C19.886875 8.5775 20.77375 9.155 21.6875 9.75 C30.33455384 18.16334969 36.63057094 30.56046301 37.40234375 42.7109375 C36.3428578 48.73869251 30.68097336 52.60603483 26 56 C25.90501221 55.43192627 25.81002441 54.86385254 25.7121582 54.27856445 C23.79877178 43.04465827 21.85654324 32.38553093 17 22 C16.63261719 21.19691406 16.26523437 20.39382813 15.88671875 19.56640625 C12.04122933 11.94150111 6.02767199 5.95088636 0 0 Z " fill="#DCDBDC" transform="translate(263,243)"/>
<path d="M0 0 C11 0 11 0 14.125 2.375 C17.56181176 7.18653646 17.28497748 10.97219128 17.375 16.75 C17.41238281 17.64460938 17.44976562 18.53921875 17.48828125 19.4609375 C17.54755296 23.92607314 17.48992136 27.02550727 14.6015625 30.578125 C9.28951042 35.52327859 9.21940842 34 0 34 C0 22.78 0 11.56 0 0 Z " fill="#F3BFB4" transform="translate(240,147)"/>
<path d="M0 0 C0.96574081 3.96260318 1.14512849 7.05998163 0 11 C-3.86405181 15.51649724 -9.12482592 18.68558309 -14 22 C-14.66 22.66 -15.32 23.32 -16 24 C-19.48254767 23.65631236 -21.7492605 21.9534083 -24.51171875 19.91015625 C-25.35154297 19.29076172 -26.19136719 18.67136719 -27.05664062 18.03320312 C-27.92482422 17.38287109 -28.79300781 16.73253906 -29.6875 16.0625 C-30.56728516 15.41603516 -31.44707031 14.76957031 -32.35351562 14.10351562 C-38.86591336 9.26817328 -38.86591336 9.26817328 -40 7 C-39.42668945 7.02094727 -38.85337891 7.04189453 -38.26269531 7.06347656 C-20.58719955 7.66942021 -20.58719955 7.66942021 -4.3125 1.36328125 C-2 0 -2 0 0 0 Z " fill="#F4C0B5" transform="translate(220,216)"/>
<path d="M0 0 C2.8373912 2.78635898 3.92303343 4.34347515 4.390625 8.33203125 C4.32101563 10.05486328 4.32101563 10.05486328 4.25 11.8125 C4.21390625 12.97394531 4.1778125 14.13539063 4.140625 15.33203125 C4.07101563 16.65267578 4.07101563 16.65267578 4 18 C-2.09534117 15.11789703 -7.62961655 12.08616132 -13 8 C-10.58747698 1.48618785 -10.58747698 1.48618785 -8.1875 -0.5 C-5.06011901 -1.21482994 -3.06574004 -0.95804376 0 0 Z " fill="#DCDCDD" transform="translate(119,301)"/>
<path d="M0 0 C1.9375 1.875 1.9375 1.875 3 4 C2.8984375 5.90625 2.8984375 5.90625 2 8 C-0.36328125 9.8515625 -0.36328125 9.8515625 -3.3125 11.625 C-4.76076172 12.51058594 -4.76076172 12.51058594 -6.23828125 13.4140625 C-8.4643772 14.69241463 -10.68680601 15.89010644 -13 17 C-13.10823773 14.75106046 -13.18569645 12.50062425 -13.25 10.25 C-13.29640625 8.99703125 -13.3428125 7.7440625 -13.390625 6.453125 C-13 3 -13 3 -11.171875 0.609375 C-6.95926785 -2.51219721 -4.64266138 -2.03116435 0 0 Z " fill="#DCDCDD" transform="translate(274,302)"/>
</svg>
