<?xml version="1.0" encoding="UTF-8"?>
<svg id="Layer_1" xmlns="http://www.w3.org/2000/svg" viewBox="0 0 410 200">
  <defs>
    <style>
      .cls-1 {
        fill: #fff;
      }

      .cls-2 {
        fill: none;
      }

      .cls-3 {
        fill: #f4f4f4;
      }

      .cls-4, .cls-5 {
        fill: #a3333d;
      }

      .cls-5 {
        font-family: Poppins-Bold, Poppins;
        font-size: 14.23px;
        font-weight: 700;
      }

      .cls-6 {
        fill: #414042;
        font-family: Poppins-Medium, Poppins;
        font-size: 12.33px;
        font-weight: 500;
      }

      .cls-7 {
        fill: #e6e6e6;
      }
    </style>
  </defs>
  <rect class="cls-2" x="6.62" y="5.15" width="388.89" height="189.7"/>
  <path class="cls-4" d="M101.54,12.03c23.51,0,45.62,9.15,62.25,25.76,16.63,16.61,25.78,38.7,25.78,62.2s-9.16,45.59-25.78,62.2c-16.62,16.61-38.73,25.76-62.25,25.76s-45.62-9.15-62.25-25.76c-16.62-16.61-25.78-38.7-25.78-62.2s9.16-45.59,25.78-62.2c16.62-16.61,38.73-25.76,62.25-25.76ZM101.54,5.15C49.11,5.15,6.62,47.61,6.62,100s42.5,94.85,94.92,94.85,94.92-42.47,94.92-94.85S153.96,5.15,101.54,5.15Z"/>
  <path class="cls-4" d="M395.51,52v95.99c0,11.19-9.08,20.26-20.27,20.26h-5.27c11.2,0,20.27-9.08,20.27-20.26V52c0-11.19-9.08-20.26-20.27-20.26h5.27c11.2,0,20.27,9.07,20.27,20.26Z"/>
  <path class="cls-3" d="M390.24,52v95.99c0,11.19-9.08,20.26-20.27,20.26H127.09c-11.2,0-20.28-9.08-20.28-20.26V52c0-11.19,9.08-20.26,20.28-20.26h242.87c11.2,0,20.27,9.07,20.27,20.26Z"/>
  <path class="cls-7" d="M127.09,168.26h-5.27c-11.2,0-20.28-9.08-20.28-20.26V52c0-11.19,9.08-20.26,20.28-20.26h5.27c-11.2,0-20.28,9.07-20.28,20.26v95.99c0,11.19,9.08,20.26,20.28,20.26Z"/>
  <path class="cls-4" d="M157.56,155.99c30.94-30.92,30.94-81.05,0-111.97-30.94-30.92-81.11-30.92-112.06,0-30.94,30.92-30.94,81.05,0,111.97,30.94,30.92,81.11,30.92,112.06,0Z"/>
  <path class="cls-1" d="M83.61,98.73c0-4.49.8-8,2.41-10.54,1.63-2.54,4.33-3.81,8.09-3.81s6.44,1.27,8.05,3.81c1.63,2.54,2.45,6.05,2.45,10.54s-.82,8.05-2.45,10.62c-1.61,2.57-4.29,3.85-8.05,3.85s-6.46-1.28-8.09-3.85c-1.61-2.57-2.41-6.11-2.41-10.62ZM99.25,98.73c0-1.92-.13-3.53-.39-4.82-.23-1.32-.73-2.4-1.48-3.23-.73-.83-1.81-1.24-3.27-1.24s-2.55.41-3.31,1.24c-.73.83-1.22,1.91-1.48,3.23-.23,1.3-.35,2.9-.35,4.82s.12,3.63.35,4.98c.23,1.32.73,2.4,1.48,3.23.75.8,1.85,1.21,3.31,1.21s2.55-.4,3.31-1.21c.75-.83,1.24-1.91,1.48-3.23.23-1.35.35-3.01.35-4.98ZM108.09,89.95v-5.02h9.37v28.35h-5.6v-23.33h-3.77Z"/>
  <path class="cls-1" d="M101.54,42.18c31.9,0,57.86,25.94,57.86,57.82s-25.96,57.82-57.86,57.82-57.86-25.94-57.86-57.82,25.96-57.82,57.86-57.82ZM101.54,38.74c-33.86,0-61.31,27.43-61.31,61.26s27.45,61.26,61.31,61.26,61.31-27.43,61.31-61.26-27.45-61.26-61.31-61.26Z"/>
  <text class="cls-5" transform="translate(191.02 60.04)"><tspan x="0" y="0">Fill Basic Details</tspan></text>
  <text class="cls-6" transform="translate(190.54 80.52)"><tspan x="0" y="0">Help us know your name,</tspan><tspan x="0" y="21.63">employment status, type of</tspan><tspan x="0" y="43.25">loan requirement, city, mobile</tspan><tspan x="0" y="64.88">number, etc</tspan></text>
</svg>