<?xml version="1.0" encoding="UTF-8"?>
<svg id="Layer_1" xmlns="http://www.w3.org/2000/svg" viewBox="0 0 410 200">
  <defs>
    <style>
      .cls-1 {
        fill: #fff;
      }

      .cls-2, .cls-3 {
        fill: #fcab64;
      }

      .cls-4 {
        fill: none;
      }

      .cls-5 {
        fill: #414042;
        font-family: Poppins-Medium, Poppins;
        font-size: 10.84px;
        font-weight: 500;
      }

      .cls-3 {
        font-family: Poppins-Bold, Poppins;
        font-size: 12.5px;
        font-weight: 700;
      }

      .cls-6 {
        fill: #f4f4f4;
      }

      .cls-7 {
        fill: #e6e6e6;
      }
    </style>
  </defs>
  <rect class="cls-4" x="33.28" y="16.64" width="343.45" height="166.72"/>
  <path class="cls-2" d="M117.1,22.69c20.76,0,40.29,8.04,54.97,22.64,14.68,14.6,22.77,34.01,22.77,54.67s-8.09,40.06-22.77,54.67c-14.68,14.6-34.2,22.64-54.97,22.64s-40.29-8.04-54.97-22.64c-14.68-14.6-22.77-34.01-22.77-54.67s8.09-40.06,22.77-54.67c14.68-14.6,34.2-22.64,54.97-22.64ZM117.1,16.64c-46.3,0-83.83,37.32-83.83,83.36s37.53,83.36,83.83,83.36,83.83-37.32,83.83-83.36S163.4,16.64,117.1,16.64Z"/>
  <path class="cls-2" d="M376.72,57.82v84.36c0,9.83-8.02,17.81-17.9,17.81h-4.66c9.89,0,17.9-7.98,17.9-17.81V57.82c0-9.83-8.02-17.8-17.9-17.8h4.66c9.89,0,17.9,7.97,17.9,17.8Z"/>
  <path class="cls-6" d="M372.07,57.82v84.36c0,9.83-8.02,17.81-17.9,17.81h-214.49c-9.89,0-17.91-7.98-17.91-17.81V57.82c0-9.83,8.02-17.8,17.91-17.8h214.49c9.89,0,17.9,7.97,17.9,17.8Z"/>
  <path class="cls-7" d="M139.67,159.99h-4.66c-9.89,0-17.91-7.98-17.91-17.81V57.82c0-9.83,8.02-17.8,17.91-17.8h4.66c-9.89,0-17.91,7.97-17.91,17.8v84.36c0,9.83,8.02,17.81,17.91,17.81Z"/>
  <path class="cls-2" d="M166.58,149.2c27.33-27.18,27.33-71.24,0-98.41-27.33-27.18-71.63-27.18-98.96,0-27.33,27.18-27.33,71.23,0,98.41,27.33,27.18,71.63,27.18,98.96,0Z"/>
  <path class="cls-1" d="M117.1,49.18c28.18,0,51.1,22.8,51.1,50.81s-22.92,50.81-51.1,50.81-51.1-22.8-51.1-50.81,22.92-50.81,51.1-50.81ZM117.1,46.16c-29.9,0-54.14,24.11-54.14,53.84s24.24,53.84,54.14,53.84,54.14-24.11,54.14-53.84-24.24-53.84-54.14-53.84Z"/>
  <path class="cls-1" d="M98.44,98.89c0-3.94.71-7.03,2.12-9.26,1.44-2.23,3.81-3.35,7.11-3.35s5.66,1.12,7.07,3.35c1.44,2.23,2.15,5.32,2.15,9.26s-.72,7.07-2.15,9.33c-1.41,2.26-3.77,3.38-7.07,3.38s-5.67-1.13-7.11-3.38c-1.41-2.26-2.12-5.37-2.12-9.33ZM112.18,98.89c0-1.69-.11-3.1-.34-4.24-.21-1.16-.64-2.11-1.3-2.84-.64-.73-1.59-1.09-2.87-1.09s-2.24.36-2.91,1.09c-.64.73-1.07,1.67-1.3,2.84-.21,1.14-.31,2.55-.31,4.24s.1,3.19.31,4.37c.21,1.16.64,2.11,1.3,2.84.66.71,1.63,1.06,2.91,1.06s2.24-.35,2.91-1.06c.66-.73,1.09-1.67,1.3-2.84.21-1.18.31-2.64.31-4.37ZM122.04,106.27c2.19-1.82,3.93-3.34,5.23-4.55,1.3-1.23,2.38-2.51,3.25-3.83.87-1.32,1.3-2.62,1.3-3.9,0-1.16-.27-2.07-.82-2.73-.55-.66-1.39-.99-2.53-.99s-2.02.39-2.63,1.16c-.62.75-.93,1.79-.96,3.11h-4.65c.09-2.73.9-4.81,2.43-6.22,1.55-1.41,3.51-2.12,5.88-2.12,2.6,0,4.59.69,5.98,2.08,1.39,1.37,2.08,3.18,2.08,5.43,0,1.78-.48,3.47-1.44,5.09-.96,1.62-2.05,3.03-3.28,4.24-1.23,1.18-2.84,2.62-4.82,4.31h10.08v3.96h-16.88v-3.55l1.78-1.5Z"/>
  <text class="cls-3" transform="translate(197.76 64.89)"><tspan x="0" y="0">Self Check Eligibility</tspan></text>
  <text class="cls-5" transform="translate(197.33 82.88)"><tspan x="0" y="0">With the help of the submitted</tspan><tspan x="0" y="19.01">information, you can learn</tspan><tspan x="0" y="38.01">about your eligibility for a</tspan><tspan x="0" y="57.02">loan application</tspan></text>
</svg>