<?xml version="1.0" encoding="UTF-8"?>
<svg id="Layer_1" xmlns="http://www.w3.org/2000/svg" viewBox="0 0 410 200">
  <defs>
    <style>
      .cls-1 {
        fill: #fff;
      }

      .cls-2 {
        fill: #414042;
        font-family: Poppins-Medium, Poppins;
        font-size: 11.48px;
        font-weight: 500;
      }

      .cls-3 {
        fill: none;
      }

      .cls-4 {
        fill: #f4f4f4;
      }

      .cls-5, .cls-6 {
        fill: #2a80ff;
      }

      .cls-6 {
        font-family: Poppins-Bold, Poppins;
        font-size: 13.25px;
        font-weight: 700;
      }

      .cls-7 {
        fill: #e6e6e6;
      }
    </style>
  </defs>
  <rect class="cls-3" x="23.04" y="11.67" width="363.92" height="176.66"/>
  <path class="cls-5" d="M111.86,18.08c22.01,0,42.69,8.52,58.25,23.99,15.56,15.47,24.13,36.04,24.13,57.93s-8.57,42.45-24.13,57.93c-15.56,15.47-36.24,23.99-58.25,23.99s-42.69-8.52-58.25-23.99c-15.56-15.47-24.13-36.04-24.13-57.93s8.57-42.45,24.13-57.93c15.56-15.47,36.24-23.99,58.25-23.99ZM111.86,11.67c-49.06,0-88.82,39.55-88.82,88.33s39.77,88.33,88.82,88.33,88.82-39.55,88.82-88.33S160.91,11.67,111.86,11.67Z"/>
  <path class="cls-5" d="M386.96,55.3v89.39c0,10.42-8.5,18.87-18.97,18.87h-4.93c10.48,0,18.96-8.45,18.96-18.87V55.3c0-10.42-8.49-18.87-18.96-18.87h4.93c10.48,0,18.97,8.45,18.97,18.87Z"/>
  <path class="cls-4" d="M382.02,55.3v89.39c0,10.42-8.49,18.87-18.96,18.87h-227.28c-10.48,0-18.98-8.45-18.98-18.87V55.3c0-10.42,8.5-18.87,18.98-18.87h227.28c10.48,0,18.96,8.45,18.96,18.87Z"/>
  <path class="cls-7" d="M135.77,163.57h-4.94c-10.48,0-18.98-8.45-18.98-18.87V55.3c0-10.42,8.5-18.87,18.98-18.87h4.94c-10.48,0-18.98,8.45-18.98,18.87v89.39c0,10.42,8.5,18.87,18.98,18.87Z"/>
  <path class="cls-5" d="M164.29,152.14c28.96-28.8,28.96-75.48,0-104.28-28.95-28.8-75.9-28.8-104.86,0-28.96,28.8-28.96,75.48,0,104.28,28.96,28.8,75.9,28.8,104.86,0Z"/>
  <path class="cls-1" d="M111.86,46.15c29.86,0,54.15,24.15,54.15,53.84s-24.29,53.84-54.15,53.84-54.15-24.16-54.15-53.84,24.29-53.84,54.15-53.84ZM111.86,42.95c-31.69,0-57.37,25.54-57.37,57.05s25.69,57.05,57.37,57.05,57.37-25.54,57.37-57.05-25.69-57.05-57.37-57.05Z"/>
  <path class="cls-1" d="M92.09,98.82c0-4.18.75-7.45,2.25-9.81,1.52-2.37,4.03-3.55,7.53-3.55s6,1.18,7.5,3.55c1.52,2.37,2.28,5.64,2.28,9.81s-.76,7.5-2.28,9.89c-1.5,2.39-4,3.59-7.5,3.59s-6.01-1.2-7.53-3.59c-1.5-2.39-2.25-5.69-2.25-9.89ZM106.65,98.82c0-1.79-.12-3.28-.36-4.49-.22-1.23-.68-2.23-1.38-3.01-.68-.77-1.69-1.16-3.04-1.16s-2.38.39-3.08,1.16c-.68.77-1.14,1.77-1.38,3.01-.22,1.21-.33,2.7-.33,4.49s.11,3.38.33,4.64c.22,1.23.68,2.23,1.38,3.01.7.75,1.73,1.12,3.08,1.12s2.38-.37,3.08-1.12c.7-.77,1.16-1.77,1.38-3.01.22-1.26.33-2.8.33-4.64ZM115.57,92.92c.12-2.41.97-4.27,2.54-5.58,1.59-1.33,3.68-1.99,6.27-1.99,1.76,0,3.27.31,4.53.94,1.26.6,2.2,1.44,2.82,2.5.65,1.04.97,2.22.97,3.55,0,1.52-.39,2.81-1.19,3.88-.77,1.04-1.7,1.74-2.79,2.1v.14c1.4.43,2.49,1.21,3.26,2.32.8,1.11,1.2,2.54,1.2,4.27,0,1.45-.34,2.74-1.02,3.88-.65,1.14-1.63,2.03-2.93,2.68-1.28.63-2.82.94-4.64.94-2.73,0-4.95-.69-6.66-2.06-1.71-1.38-2.62-3.4-2.72-6.08h4.93c.05,1.18.45,2.14,1.2,2.86.77.7,1.82,1.05,3.15,1.05,1.23,0,2.17-.34,2.82-1.01.68-.7,1.01-1.59,1.01-2.68,0-1.45-.46-2.49-1.38-3.11-.92-.63-2.34-.94-4.27-.94h-1.05v-4.16h1.05c3.43,0,5.14-1.15,5.14-3.44,0-1.04-.31-1.85-.94-2.43-.6-.58-1.48-.87-2.64-.87s-2.02.31-2.64.94c-.6.6-.95,1.38-1.05,2.32h-4.96Z"/>
  <text class="cls-6" transform="translate(193.17 62.79)"><tspan x="0" y="0">Online Document</tspan><tspan x="0" y="15.9">Submission</tspan></text>
  <text class="cls-2" transform="translate(192.72 97.42)"><tspan x="0" y="0">Submit proof of your address,</tspan><tspan x="0" y="20.14">salary slips, Aadhaar card, PAN</tspan><tspan x="0" y="40.28">card, etc.</tspan></text>
</svg>