<?xml version="1.0" encoding="UTF-8"?>
<svg id="Layer_1" xmlns="http://www.w3.org/2000/svg" viewBox="0 0 410 200">
  <defs>
    <style>
      .cls-1 {
        fill: #fff;
      }

      .cls-2 {
        fill: none;
      }

      .cls-3 {
        fill: #f4f4f4;
      }

      .cls-4 {
        font-family: Poppins-Bold, Poppins;
        font-size: 13.89px;
        font-weight: 700;
      }

      .cls-4, .cls-5 {
        fill: #d81e5b;
      }

      .cls-6 {
        fill: #414042;
        font-family: Poppins-Medium, Poppins;
        font-size: 12.03px;
        font-weight: 500;
      }

      .cls-7 {
        fill: #e6e6e6;
      }
    </style>
  </defs>
  <path class="cls-5" d="M394.78,53.16v93.69c0,10.92-8.86,19.78-19.79,19.78h-5.15c10.93,0,19.79-8.86,19.79-19.78V53.16c0-10.92-8.86-19.77-19.79-19.77h5.15c10.93,0,19.79,8.85,19.79,19.77Z"/>
  <g>
    <rect class="cls-2" x="15.22" y="7.43" width="379.56" height="185.15"/>
    <path class="cls-5" d="M107.86,14.15c22.95,0,44.52,8.93,60.75,25.14,16.23,16.21,25.16,37.77,25.16,60.71s-8.94,44.49-25.16,60.71c-16.23,16.21-37.8,25.15-60.75,25.15s-44.52-8.93-60.75-25.15c-16.23-16.21-25.16-37.77-25.16-60.71s8.94-44.49,25.16-60.71c16.23-16.21,37.8-25.14,60.75-25.14ZM107.86,7.43C56.7,7.43,15.22,48.87,15.22,100s41.48,92.57,92.64,92.57,92.64-41.45,92.64-92.57S159.02,7.43,107.86,7.43Z"/>
    <path class="cls-3" d="M389.63,53.16v93.69c0,10.92-8.86,19.78-19.79,19.78h-237.04c-10.93,0-19.79-8.86-19.79-19.78V53.16c0-10.92,8.86-19.77,19.79-19.77h237.04c10.93,0,19.79,8.85,19.79,19.77Z"/>
    <path class="cls-7" d="M132.8,166.62h-5.15c-10.93,0-19.79-8.86-19.79-19.78V53.16c0-10.92,8.87-19.77,19.79-19.77h5.15c-10.93,0-19.79,8.85-19.79,19.77v93.69c0,10.92,8.86,19.78,19.79,19.78Z"/>
    <path class="cls-5" d="M162.54,154.64c30.2-30.18,30.2-79.11,0-109.29-30.2-30.18-79.17-30.18-109.37,0-30.2,30.18-30.2,79.11,0,109.29,30.2,30.18,79.16,30.18,109.37,0Z"/>
    <path class="cls-1" d="M84.81,98.77c0-4.38.78-7.81,2.35-10.29,1.59-2.48,4.23-3.72,7.89-3.72s6.29,1.24,7.86,3.72c1.59,2.48,2.39,5.91,2.39,10.29s-.8,7.86-2.39,10.36c-1.57,2.51-4.19,3.76-7.86,3.76s-6.3-1.25-7.89-3.76c-1.57-2.51-2.35-5.96-2.35-10.36ZM100.07,98.77c0-1.87-.13-3.44-.38-4.71-.23-1.29-.71-2.34-1.44-3.15-.71-.81-1.77-1.21-3.19-1.21s-2.49.4-3.23,1.21c-.71.81-1.19,1.86-1.44,3.15-.23,1.27-.34,2.83-.34,4.71s.11,3.54.34,4.86c.23,1.29.71,2.34,1.44,3.15.73.78,1.81,1.18,3.23,1.18s2.49-.39,3.23-1.18c.73-.81,1.21-1.86,1.44-3.15.23-1.32.34-2.94.34-4.86ZM109.12,107.57v-4.18l12.41-17.76h6.19v17.31h3.34v4.63h-3.34v5.39h-5.31v-5.39h-13.28ZM122.75,91.33l-7.78,11.61h7.78v-11.61Z"/>
    <path class="cls-1" d="M107.86,43.57c31.14,0,56.47,25.32,56.47,56.43s-25.33,56.43-56.47,56.43-56.47-25.32-56.47-56.43,25.33-56.43,56.47-56.43ZM107.86,40.21c-33.05,0-59.83,26.77-59.83,59.79s26.79,59.79,59.83,59.79,59.84-26.77,59.84-59.79-26.79-59.79-59.84-59.79Z"/>
    <text class="cls-4" transform="translate(192.53 65.94)"><tspan x="0" y="0">Loan Decision</tspan></text>
    <text class="cls-6" transform="translate(192.05 85.92)"><tspan x="0" y="0">After a quick screening of your</tspan><tspan x="0" y="21.11">personal and financial details,</tspan><tspan x="0" y="42.21">see if your loan application gets</tspan><tspan x="0" y="63.32">‘Approved’ or ‘Rejected.’</tspan></text>
  </g>
</svg>