<?xml version="1.0" encoding="UTF-8"?>
<svg id="Layer_1" xmlns="http://www.w3.org/2000/svg" viewBox="0 0 410 200">
  <defs>
    <style>
      .cls-1 {
        fill: #fff;
      }

      .cls-2 {
        fill: none;
      }

      .cls-3 {
        fill: #414042;
        font-family: Poppins-Medium, Poppins;
        font-size: 11.84px;
        font-weight: 500;
      }

      .cls-4 {
        fill: #f4f4f4;
      }

      .cls-5 {
        fill: #d81e5b;
        font-family: Poppins-Bold, Poppins;
        font-size: 13.66px;
        font-weight: 700;
      }

      .cls-6 {
        fill: #b932cf;
      }

      .cls-7 {
        fill: #e6e6e6;
      }
    </style>
  </defs>
  <rect class="cls-2" x="17.45" y="8.95" width="375.11" height="182.09"/>
  <path class="cls-6" d="M109,15.56c22.68,0,44,8.78,60.04,24.73,16.04,15.95,24.87,37.15,24.87,59.71s-8.83,43.76-24.87,59.71c-16.03,15.95-37.36,24.73-60.04,24.73s-44-8.78-60.04-24.73c-16.04-15.95-24.87-37.15-24.87-59.71s8.83-43.76,24.87-59.71c16.03-15.95,37.36-24.73,60.04-24.73ZM109,8.95c-50.56,0-91.55,40.76-91.55,91.04s40.99,91.04,91.55,91.04,91.55-40.76,91.55-91.04S159.56,8.95,109,8.95Z"/>
  <path class="cls-6" d="M392.55,53.93v92.14c0,10.74-8.75,19.45-19.55,19.45h-5.09c10.8,0,19.55-8.71,19.55-19.45V53.93c0-10.74-8.75-19.45-19.55-19.45h5.09c10.8,0,19.55,8.71,19.55,19.45Z"/>
  <path class="cls-4" d="M387.47,53.93v92.14c0,10.74-8.75,19.45-19.55,19.45h-234.27c-10.8,0-19.56-8.71-19.56-19.45V53.93c0-10.74,8.76-19.45,19.56-19.45h234.27c10.8,0,19.55,8.71,19.55,19.45Z"/>
  <path class="cls-7" d="M133.65,165.52h-5.09c-10.8,0-19.56-8.71-19.56-19.45V53.93c0-10.74,8.76-19.45,19.56-19.45h5.09c-10.8,0-19.56,8.71-19.56,19.45v92.14c0,10.74,8.76,19.45,19.56,19.45Z"/>
  <path class="cls-6" d="M163.04,153.74c29.85-29.68,29.85-77.8,0-107.48-29.85-29.68-78.24-29.68-108.08,0-29.85,29.68-29.85,77.8,0,107.48,29.85,29.68,78.24,29.68,108.08,0Z"/>
  <path class="cls-1" d="M87.71,96.96c0-4.31.77-7.68,2.31-10.12,1.57-2.44,4.16-3.66,7.76-3.66s6.18,1.22,7.73,3.66c1.57,2.44,2.35,5.81,2.35,10.12s-.78,7.73-2.35,10.19c-1.54,2.46-4.12,3.7-7.73,3.7s-6.2-1.23-7.76-3.7c-1.54-2.46-2.31-5.86-2.31-10.19ZM102.72,96.96c0-1.84-.12-3.38-.37-4.63-.22-1.27-.7-2.3-1.42-3.1-.7-.8-1.74-1.19-3.14-1.19s-2.45.4-3.17,1.19c-.7.8-1.17,1.83-1.42,3.1-.22,1.24-.34,2.79-.34,4.63s.11,3.48.34,4.78c.22,1.27.7,2.3,1.42,3.1.72.77,1.78,1.16,3.17,1.16s2.45-.39,3.17-1.16c.72-.8,1.19-1.83,1.42-3.1.22-1.29.34-2.89.34-4.78ZM130.13,88.23h-12.09v6.38c.52-.65,1.27-1.17,2.24-1.57.97-.42,2-.63,3.1-.63,1.99,0,3.62.44,4.89,1.31s2.19,1.99,2.76,3.36c.57,1.34.86,2.79.86,4.33,0,2.86-.82,5.16-2.46,6.91-1.62,1.74-3.93,2.61-6.94,2.61-2.84,0-5.1-.71-6.79-2.13-1.69-1.42-2.65-3.27-2.87-5.56h5.08c.22,1,.72,1.79,1.49,2.39.8.6,1.8.9,3.02.9,1.47,0,2.58-.46,3.32-1.38.75-.92,1.12-2.14,1.12-3.66s-.39-2.71-1.16-3.51c-.75-.82-1.85-1.23-3.32-1.23-1.05,0-1.92.26-2.61.78-.7.52-1.19,1.22-1.49,2.09h-5v-15.98h16.87v4.59Z"/>
  <path class="cls-1" d="M109,44.5c30.77,0,55.81,24.9,55.81,55.5s-25.04,55.5-55.81,55.5-55.81-24.9-55.81-55.5,25.04-55.5,55.81-55.5ZM109,41.19c-32.66,0-59.13,26.33-59.13,58.8s26.48,58.81,59.13,58.81,59.13-26.33,59.13-58.81-26.48-58.8-59.13-58.8Z"/>
  <text class="cls-5" transform="translate(192.85 66.5)"><tspan x="0" y="0">Loan Sanctioned</tspan></text>
  <text class="cls-3" transform="translate(192.38 86.15)"><tspan x="0" y="0">Wait at least 24 hours to know</tspan><tspan x="0" y="20.76">your loan application status,</tspan><tspan x="0" y="41.52">interest rates, payoff tenure, etc.</tspan></text>
</svg>