<?xml version="1.0" encoding="UTF-8"?>
<svg id="Layer_1" xmlns="http://www.w3.org/2000/svg" viewBox="0 0 410 200">
  <defs>
    <style>
      .cls-1 {
        fill: #fff;
      }

      .cls-2 {
        fill: #d81e5b;
        font-family: Poppins-Bold, Poppins;
        font-size: 13.63px;
        font-weight: 700;
      }

      .cls-3 {
        fill: #414042;
        font-family: Poppins-Medium, Poppins;
        font-size: 11.82px;
        font-weight: 500;
      }

      .cls-4 {
        fill: #35524a;
      }

      .cls-5 {
        fill: none;
      }

      .cls-6 {
        fill: #f4f4f4;
      }

      .cls-7 {
        fill: #e6e6e6;
      }
    </style>
  </defs>
  <rect class="cls-5" x="19.95" y="9.11" width="374.48" height="181.79"/>
  <path class="cls-4" d="M111.35,15.7c22.64,0,43.93,8.77,59.94,24.69,16.02,15.92,24.83,37.09,24.83,59.61s-8.82,43.68-24.83,59.61c-16.01,15.92-37.29,24.69-59.94,24.69s-43.93-8.77-59.94-24.69c-16.01-15.92-24.83-37.09-24.83-59.61s8.82-43.68,24.83-59.61c16.01-15.92,37.3-24.69,59.94-24.69ZM111.35,9.11c-50.48,0-91.4,40.69-91.4,90.89s40.92,90.89,91.4,90.89,91.4-40.69,91.4-90.89S161.82,9.11,111.35,9.11Z"/>
  <path class="cls-4" d="M394.43,54.01v91.98c0,10.72-8.74,19.42-19.52,19.42h-5.07c10.78,0,19.51-8.7,19.51-19.42V54.01c0-10.72-8.73-19.41-19.51-19.41h5.07c10.78,0,19.52,8.69,19.52,19.41Z"/>
  <path class="cls-6" d="M389.35,54.01v91.98c0,10.72-8.73,19.42-19.51,19.42h-233.88c-10.78,0-19.53-8.7-19.53-19.42V54.01c0-10.72,8.75-19.41,19.53-19.41h233.88c10.78,0,19.51,8.69,19.51,19.41Z"/>
  <path class="cls-7" d="M135.96,165.41h-5.08c-10.78,0-19.53-8.7-19.53-19.42V54.01c0-10.72,8.75-19.41,19.53-19.41h5.08c-10.78,0-19.53,8.69-19.53,19.41v91.98c0,10.72,8.75,19.42,19.53,19.42Z"/>
  <path class="cls-4" d="M165.3,153.65c29.8-29.63,29.8-77.67,0-107.3-29.79-29.63-78.1-29.63-107.9,0-29.8,29.63-29.8,77.67,0,107.3,29.8,29.63,78.1,29.63,107.9,0Z"/>
  <path class="cls-1" d="M111.35,44.59c30.72,0,55.72,24.86,55.72,55.41s-25,55.41-55.72,55.41-55.72-24.86-55.72-55.41,24.99-55.41,55.72-55.41ZM111.35,41.29c-32.6,0-59.04,26.28-59.04,58.71s26.43,58.71,59.04,58.71,59.04-26.28,59.04-58.71-26.43-58.71-59.04-58.71Z"/>
  <path class="cls-1" d="M90.09,98.79c0-4.3.77-7.66,2.31-10.1,1.57-2.44,4.15-3.65,7.75-3.65s6.17,1.22,7.71,3.65c1.57,2.44,2.35,5.8,2.35,10.1s-.78,7.71-2.35,10.17c-1.54,2.46-4.11,3.69-7.71,3.69s-6.19-1.23-7.75-3.69c-1.54-2.46-2.31-5.85-2.31-10.17ZM105.07,98.79c0-1.84-.12-3.38-.37-4.62-.22-1.27-.7-2.3-1.42-3.09-.7-.8-1.74-1.19-3.13-1.19s-2.45.4-3.17,1.19c-.7.8-1.17,1.83-1.42,3.09-.22,1.24-.34,2.78-.34,4.62s.11,3.48.34,4.77c.22,1.27.7,2.3,1.42,3.09.72.77,1.78,1.16,3.17,1.16s2.45-.39,3.17-1.16c.72-.8,1.19-1.83,1.42-3.09.22-1.29.34-2.88.34-4.77ZM128.27,92.34c-.25-1.04-.68-1.83-1.3-2.35-.6-.52-1.47-.78-2.61-.78-1.71,0-2.98.7-3.8,2.09-.8,1.37-1.21,3.6-1.23,6.71.6-.99,1.47-1.76,2.61-2.31,1.14-.57,2.39-.86,3.73-.86,1.62,0,3.04.35,4.29,1.04,1.24.7,2.21,1.71,2.91,3.06.7,1.32,1.05,2.91,1.05,4.77,0,1.76-.36,3.34-1.08,4.73-.7,1.37-1.73,2.44-3.09,3.2-1.37.77-2.99,1.16-4.88,1.16-2.58,0-4.62-.57-6.11-1.71-1.47-1.14-2.5-2.73-3.09-4.77-.57-2.06-.86-4.6-.86-7.6,0-4.55.78-7.97,2.35-10.29,1.57-2.34,4.04-3.5,7.42-3.5,2.61,0,4.63.71,6.07,2.12,1.44,1.42,2.27,3.18,2.5,5.29h-4.85ZM124.47,99.12c-1.32,0-2.42.39-3.32,1.16-.89.77-1.34,1.89-1.34,3.35s.41,2.62,1.23,3.47c.84.84,2.03,1.27,3.54,1.27,1.34,0,2.4-.41,3.17-1.23.8-.82,1.19-1.93,1.19-3.32s-.39-2.58-1.16-3.43c-.75-.84-1.85-1.27-3.32-1.27Z"/>
  <text class="cls-2" transform="translate(194.26 66.56)"><tspan x="0" y="0">Loan Disbursal</tspan></text>
  <text class="cls-3" transform="translate(193.79 86.17)"><tspan x="0" y="0">Sign the loan agreement, and</tspan><tspan x="0" y="20.72">the loan amount will be credited</tspan><tspan x="0" y="41.45">to your bank account</tspan></text>
</svg>