<svg width="33" height="32" viewBox="0 0 33 32" fill="none" xmlns="http://www.w3.org/2000/svg">
<path d="M1 3.2C1 1.70883 2.20883 0.5 3.7 0.5H29.3C30.7912 0.5 32 1.70883 32 3.2V28.8C32 30.2912 30.7912 31.5 29.3 31.5H3.7C2.20883 31.5 1 30.2912 1 28.8V3.2Z" fill="#1265E1"/>
<path d="M1 3.2C1 1.70883 2.20883 0.5 3.7 0.5H29.3C30.7912 0.5 32 1.70883 32 3.2V28.8C32 30.2912 30.7912 31.5 29.3 31.5H3.7C2.20883 31.5 1 30.2912 1 28.8V3.2Z" stroke="#1265E1"/>
<path d="M16.4956 12.9867C15.6418 13.0035 14.9362 13.2912 14.3785 13.8497C13.8036 14.3914 13.5074 15.0769 13.4901 15.9062C13.5074 16.7356 13.8036 17.4211 14.3785 17.9628C14.9362 18.5213 15.6418 18.809 16.4956 18.8258C17.3494 18.809 18.0551 18.5213 18.6127 17.9628C19.1877 17.4211 19.4838 16.7356 19.5012 15.9062C19.4838 15.0769 19.1877 14.3914 18.6127 13.8497C18.0551 13.2912 17.3494 13.0035 16.4956 12.9867ZM16.4956 17.8111C15.938 17.7943 15.4764 17.6077 15.1109 17.2514C14.7441 16.8963 14.552 16.4479 14.5347 15.9062C14.552 15.3646 14.7441 14.9162 15.1109 14.5611C15.4764 14.2048 15.938 14.0182 16.4956 14.0014C17.0532 14.0182 17.5148 14.2048 17.8804 14.5611C18.2472 14.9162 18.4392 15.3646 18.4566 15.9062C18.4392 16.4479 18.2472 16.8963 17.8804 17.2514C17.5148 17.6077 17.0532 17.7943 16.4956 17.8111ZM20.3376 12.8603C20.2856 13.2828 20.0508 13.5109 19.6332 13.5446C19.197 13.5109 18.9615 13.2828 18.9268 12.8603C18.9268 12.6737 18.9962 12.5124 19.135 12.3764C19.2577 12.2584 19.4237 12.1994 19.6332 12.1994C19.824 12.1994 19.9894 12.2584 20.1294 12.3764C20.2509 12.5124 20.3203 12.6737 20.3376 12.8603ZM22.3246 13.5446V13.5699C22.3246 12.6394 22.0024 11.8438 21.3581 11.1829C20.6778 10.557 19.8674 10.244 18.9268 10.244C18.5786 10.2272 18.0817 10.2188 17.4361 10.2188C16.8091 10.2188 16.1821 10.2188 15.5551 10.2188C14.9095 10.2188 14.4213 10.2272 14.0904 10.244C13.1499 10.244 12.3308 10.557 11.6332 11.1829C10.9888 11.8438 10.6753 12.631 10.6927 13.5446C10.658 13.8828 10.6406 14.3655 10.6406 14.9926C10.6406 15.6017 10.6406 16.2108 10.6406 16.8199C10.6406 17.4301 10.658 17.9044 10.6927 18.2426C10.6753 19.1731 10.9888 19.9688 11.6332 20.6296C12.3135 21.2555 13.1326 21.56 14.0904 21.5432C14.4213 21.56 14.9095 21.5769 15.5551 21.5938C16.1821 21.5938 16.8091 21.5938 17.4361 21.5938C18.0817 21.5769 18.5786 21.56 18.9268 21.5432C19.8674 21.56 20.6778 21.2555 21.3581 20.6296C22.0024 19.9688 22.3246 19.1731 22.3246 18.2426C22.342 17.9044 22.3506 17.4301 22.3506 16.8199C22.3506 16.2108 22.3506 15.6017 22.3506 14.9926C22.3506 14.3655 22.342 13.8828 22.3246 13.5446ZM21.07 19.2574C20.8432 19.7653 20.4684 20.1294 19.9454 20.3497C19.5972 20.4677 19.127 20.5351 18.5347 20.5519C17.9423 20.57 17.4021 20.579 16.9138 20.579C16.7565 20.579 16.6171 20.579 16.4956 20.579C16.3742 20.579 16.2348 20.579 16.0774 20.579C15.5892 20.579 15.0489 20.57 14.4566 20.5519C13.8816 20.5351 13.4114 20.4677 13.0458 20.3497C12.5229 20.1294 12.1481 19.7653 11.9213 19.2574C11.7999 18.9023 11.7305 18.4455 11.7131 17.8869C11.6958 17.3116 11.6871 16.7868 11.6871 16.3125C11.6871 16.1596 11.6871 16.0242 11.6871 15.9062C11.6871 15.7883 11.6871 15.6529 11.6871 15.5C11.6871 15.0257 11.6958 14.5009 11.7131 13.9256C11.7305 13.3502 11.7999 12.8934 11.9213 12.5551C12.1481 12.0472 12.5229 11.6831 13.0458 11.4628C13.4114 11.3448 13.8816 11.2774 14.4566 11.2606C15.0489 11.2256 15.5892 11.2172 16.0774 11.2353C16.2348 11.2353 16.3742 11.2353 16.4956 11.2353C16.6171 11.2353 16.7565 11.2353 16.9138 11.2353C17.4021 11.2353 17.9423 11.2437 18.5347 11.2606C19.127 11.2774 19.5972 11.3448 19.9454 11.4628C20.4684 11.6831 20.8432 12.0472 21.07 12.5551C21.1914 12.8934 21.2608 13.3502 21.2781 13.9256C21.3141 14.5009 21.3234 15.0257 21.306 15.5C21.306 15.6529 21.306 15.7883 21.306 15.9062C21.306 16.0242 21.306 16.1596 21.306 16.3125C21.3234 16.7868 21.3141 17.3116 21.2781 17.8869C21.2608 18.4623 21.1914 18.9191 21.07 19.2574Z" fill="white"/>
</svg>
