<?xml version="1.0" encoding="UTF-8"?>
<svg id="Layer_1" data-name="Layer 1" xmlns="http://www.w3.org/2000/svg" xmlns:xlink="http://www.w3.org/1999/xlink" viewBox="0 0 215 55">
  <defs>
    <style>
      .cls-1 {
        fill: none;
      }

      .cls-2 {
        fill: #ffcf1b;
      }

      .cls-3 {
        clip-path: url(#clippath);
      }
    </style>
    <clipPath id="clippath">
      <rect class="cls-1" x="-55.49" y="88.85" width="215" height="55"/>
    </clipPath>
  </defs>
  <rect class="cls-2" width="215" height="55"/>
  <g class="cls-3">
    <image width="1170" height="1171" transform="translate(-55.35 3.09) scale(.19)" xlink:href="C:\Users\LoansJagat\Downloads\iduM1TA-fw_logos.jpeg"/>
  </g>
  <g>
    <path d="M51.86,29.83c0,11.11-9,20.11-20.11,20.11s-20.11-9-20.11-20.11S20.65,9.72,31.75,9.72s20.11,9,20.11,20.11ZM21.14,27.31h10.56l-2.87,5h-13.62l10.84-19.09c-10.21,3.61-15,15.4-9.69,25.08,2.56,4.67,7.34,8.05,12.63,8.86l8.46-14.84h-5.75l2.78-5h13.71l-2.78,4.91-5.1.27-8.43,15.01c2.26-.27,4.35-.53,6.48-1.39,17.05-6.93,13.01-32.58-5.27-33.83-1.06-.07-3.23-.31-3.78.69l-8.19,14.33Z"/>
    <path d="M84.7,39.54l-.65-1.11c-3.52,2.6-11.78,2.02-12.32-3.25-.39-3.78,1.94-6.13,5.37-7.14-4.6-5.98,3.23-11.62,8.51-7.67,4.07,3.04.55,8.24-3.5,8.97,1,1.13,1.72,2.77,2.69,3.88.21.24.15.23.35,0,.93-1.05,1.57-3.23,1.58-4.63h3.52c-.29,2.81-1.43,5.45-3.31,7.53l2.19,3.4h-4.45ZM80.45,26.94c1.65-.56,3.72-1.31,3.53-3.43s-4.15-1.94-4.44.39c-.17,1.35.48,1.9.91,3.04ZM78.54,30.67c-1.16.17-2.78,1.62-2.92,2.84-.38,3.14,2.52,3.83,5.05,3.19,1.97-.5,1.76-.64.89-2.08-.39-.65-2.12-3.45-2.51-3.79-.2-.18-.22-.2-.51-.16Z"/>
    <path d="M192.57,33.43c-.12,4.68,5.48,4.16,8.43,2.6.18.14.21.15.21.38-.03.76-.49,1.9-.52,2.73-4.31,1.52-11.01,1.3-11.78-4.37-.79-5.83,4.16-11.48,10.19-10.19,3.62.77,4.47,3.53,4.21,6.9-.04.57-.15,1.55-.46,1.95h-10.29ZM199.61,30.65c.66-5.14-5.72-3.93-6.49,0h6.49Z"/>
    <path d="M174.4,39.54h-3.89l1.85-9.92c-.18-2.3-2.44-2.75-4.14-1.54-2.56,1.81-2.77,8.54-3.64,11.46h-3.89l2.97-14.83h3.89c-.51,2.32.21.93,1.24.4,3.53-1.8,7.56-.11,7.64,4.12l-2.02,10.31Z"/>
    <path d="M143.27,39.54h-3.89l1.87-9.91c-.04-2.13-2.15-2.65-3.82-1.77-2.89,1.52-3.02,8.79-3.98,11.68h-3.89l3.24-14.83h3.61l-.09,1.3c3.59-2.93,8.96-1.79,8.99,3.42l-2.04,10.11Z"/>
    <path d="M154.94,39.54l.18-2.04-1.02,1.11c-1.34,1.11-2.7,1.48-4.44,1.3-4.78-.48-5.13-6.79-.83-8.61.69-.29,2.75-.84,3.43-.84h3.89c.18-.12.24-.26.28-.46.76-4.01-5.81-2.71-7.78-1.58l.46-2.97c.14-.24,1.55-.61,1.91-.68,2.41-.51,6.22-.7,8.01,1.34,2.37,2.71-.74,9.78-.77,13.12l-.24.31h-3.06ZM155.87,32.69c-1.81.37-5.26-.25-6.13,1.93-1.03,2.58,2.21,2.95,3.97,1.93,1.2-.7,1.9-2.58,2.16-3.86Z"/>
    <path d="M124.55,19.53c-.13.56-.43,2.98-.86,3.13l-6.92.03-.93,5h6.67l-.56,3.15-6.84.02-1.96,8.69h-3.8l4.08-20.02h11.12Z"/>
    <polygon points="105.09 19.53 104.32 22.65 99.32 22.78 95.55 39.54 91.38 39.54 95.08 22.68 89.71 22.68 90.26 19.53 105.09 19.53"/>
    <polygon points="67.47 19.53 63.95 36.39 71.55 36.39 70.8 39.54 59.31 39.54 63.39 19.53 67.47 19.53"/>
    <path d="M190.16,24.9l-.93,3.33c-3.45-2.01-7.02-.03-7.55,3.85-.63,4.59,2.42,5.83,6.25,4.12l-.41,3.1c-6.34,2.29-11.28-1.49-9.69-8.3,1.37-5.84,6.99-7.55,12.33-6.11Z"/>
    <polygon points="129.74 24.72 126.5 39.54 122.7 39.54 125.85 24.72 129.74 24.72"/>
    <path d="M131.22,18.41l-.74,3.71h-3.89c.14-1.21.35-2.64.83-3.71h3.8Z"/>
  </g>
</svg>