<svg width="33" height="32" viewBox="0 0 33 32" fill="none" xmlns="http://www.w3.org/2000/svg">
<path d="M1 3.2C1 1.70883 2.20883 0.5 3.7 0.5H29.3C30.7912 0.5 32 1.70883 32 3.2V28.8C32 30.2912 30.7912 31.5 29.3 31.5H3.7C2.20883 31.5 1 30.2912 1 28.8V3.2Z" fill="#1265E1"/>
<path d="M1 3.2C1 1.70883 2.20883 0.5 3.7 0.5H29.3C30.7912 0.5 32 1.70883 32 3.2V28.8C32 30.2912 30.7912 31.5 29.3 31.5H3.7C2.20883 31.5 1 30.2912 1 28.8V3.2Z" stroke="#1265E1"/>
<path d="M13.254 13.1889V20.7812H10.8228V13.1889H13.254ZM12.0514 12.1489C11.6512 12.132 11.3203 11.9966 11.0588 11.7426C10.7974 11.4887 10.658 11.1667 10.6406 10.7767C10.658 10.2519 10.8934 9.85403 11.3469 9.58319C11.8166 9.34727 12.2868 9.34727 12.7577 9.58319C13.2112 9.85403 13.4467 10.2519 13.464 10.7767C13.4467 11.1667 13.3073 11.4887 13.0458 11.7426C12.7844 11.9966 12.4529 12.132 12.0514 12.1489ZM22.3506 20.7812H19.9194V17.0744C19.9541 16.617 19.9021 16.1771 19.7633 15.7546C19.6232 15.3309 19.2571 15.1022 18.6648 15.0685C18.0551 15.0853 17.6542 15.2881 17.4622 15.6769C17.2713 16.0669 17.1846 16.5159 17.2019 17.0239V20.7812H14.7707V13.1889H17.1239V14.2307H17.1499C17.306 13.9093 17.5762 13.63 17.9603 13.3929C18.3606 13.1389 18.8568 13.0035 19.4491 12.9867C20.6338 13.0204 21.4268 13.367 21.8283 14.0267C22.2112 14.7044 22.3853 15.568 22.3506 16.6176V20.7812Z" fill="white"/>
</svg>
