<svg width="181" height="103" viewBox="0 0 181 103" fill="none" xmlns="http://www.w3.org/2000/svg">
<path d="M72.8564 44.6084V62H68.9033V50.2588L67.3242 62H64.5205L62.8555 50.5273V62H58.9023V44.6084H64.7568C64.9287 45.654 65.1113 46.8857 65.3047 48.3037L65.9277 52.7295L66.959 44.6084H72.8564ZM82.4814 44.6084L85.0703 62H80.4404L80.2148 58.874H78.5928L78.3242 62H73.6406L75.9395 44.6084H82.4814ZM80.0859 55.791C79.8568 53.8216 79.6276 51.3903 79.3984 48.4971C78.9401 51.82 78.6536 54.2513 78.5391 55.791H80.0859ZM85.8438 44.6084H89.2275C91.4118 44.6084 92.887 44.7087 93.6533 44.9092C94.4268 45.1097 95.014 45.4391 95.415 45.8975C95.8161 46.3558 96.0667 46.8678 96.167 47.4336C96.2673 47.9922 96.3174 49.0951 96.3174 50.7422V56.833C96.3174 58.3942 96.2422 59.4398 96.0918 59.9697C95.9486 60.4925 95.6943 60.9043 95.3291 61.2051C94.9639 61.4987 94.5127 61.7064 93.9756 61.8281C93.4385 61.9427 92.6292 62 91.5479 62H85.8438V44.6084ZM90.3662 47.584V59.0244C91.0179 59.0244 91.4189 58.8955 91.5693 58.6377C91.7197 58.3727 91.7949 57.6602 91.7949 56.5V49.7432C91.7949 48.9554 91.7699 48.4505 91.7197 48.2285C91.6696 48.0065 91.555 47.8454 91.376 47.7451C91.1969 47.6377 90.8604 47.584 90.3662 47.584ZM98.0039 44.6084H105.545V48.0889H102.526V51.3867H105.352V54.6953H102.526V58.5195H105.846V62H98.0039V44.6084ZM115.567 44.6084V62H111.045V44.6084H115.567ZM127.48 44.6084V62H123.517L121.164 54.0938V62H117.383V44.6084H121.164L123.699 52.4395V44.6084H127.48ZM137.718 44.6084V62H133.195V44.6084H137.718ZM149.631 44.6084V62H145.667L143.314 54.0938V62H139.533V44.6084H143.314L145.85 52.4395V44.6084H149.631ZM151.457 44.6084H154.841C157.025 44.6084 158.5 44.7087 159.267 44.9092C160.04 45.1097 160.627 45.4391 161.028 45.8975C161.429 46.3558 161.68 46.8678 161.78 47.4336C161.881 47.9922 161.931 49.0951 161.931 50.7422V56.833C161.931 58.3942 161.855 59.4398 161.705 59.9697C161.562 60.4925 161.308 60.9043 160.942 61.2051C160.577 61.4987 160.126 61.7064 159.589 61.8281C159.052 61.9427 158.243 62 157.161 62H151.457V44.6084ZM155.979 47.584V59.0244C156.631 59.0244 157.032 58.8955 157.183 58.6377C157.333 58.3727 157.408 57.6602 157.408 56.5V49.7432C157.408 48.9554 157.383 48.4505 157.333 48.2285C157.283 48.0065 157.168 47.8454 156.989 47.7451C156.81 47.6377 156.474 47.584 155.979 47.584ZM168.14 44.6084V62H163.617V44.6084H168.14ZM177.765 44.6084L180.354 62H175.724L175.498 58.874H173.876L173.607 62H168.924L171.223 44.6084H177.765ZM175.369 55.791C175.14 53.8216 174.911 51.3903 174.682 48.4971C174.223 51.82 173.937 54.2513 173.822 55.791H175.369Z" fill="white"/>
<path d="M93.9308 72.8866C95.8957 73.877 96.6988 76.2823 95.5595 78.1648C92.3861 83.4084 88.2962 88.053 83.4747 91.8716C77.6102 96.5163 70.8042 99.8277 63.5302 101.575C56.2561 103.323 48.6887 103.465 41.3543 101.991C34.0199 100.517 27.0946 97.4629 21.0602 93.0412C15.0258 88.6194 10.0272 82.9361 6.41217 76.3865C2.7971 69.8369 0.652336 62.5784 0.127091 55.1158C-0.398154 47.6533 0.708729 40.1659 3.37074 33.1745C5.55929 27.4266 8.75579 22.1274 12.7997 17.5216C14.2514 15.8681 16.7869 15.9092 18.3233 17.4844C19.8596 19.0596 19.8123 21.571 18.3841 23.2449C15.1563 27.028 12.594 31.344 10.8175 36.0099C8.56734 41.9195 7.63172 48.2485 8.07569 54.5564C8.51967 60.8643 10.3326 66.9998 13.3883 72.536C16.4441 78.0722 20.6693 82.8762 25.77 86.6138C30.8707 90.3514 36.7245 92.9329 42.9241 94.1786C49.1237 95.4244 55.5203 95.3045 61.6688 93.8274C67.8174 92.3502 73.5704 89.5513 78.5275 85.6252C82.4413 82.5254 85.7848 78.7818 88.4196 74.5642C89.5854 72.6981 91.9659 71.8962 93.9308 72.8866Z" fill="#EC8A14"/>
<path d="M71.1957 85.8542C72.3246 87.9627 71.5367 90.6084 69.3294 91.5294C64.6511 93.4816 59.6666 94.6333 54.585 94.9257C48.059 95.3012 41.5295 94.2504 35.4507 91.8464C29.372 89.4424 23.89 85.743 19.3861 81.0054C14.8822 76.2678 11.4645 70.6059 9.37074 64.4134C7.27701 58.221 6.55753 51.6467 7.26234 45.148C7.96715 38.6493 10.0793 32.3822 13.452 26.7826C16.8246 21.183 21.3767 16.3854 26.7915 12.7236C31.0079 9.87219 35.6686 7.76276 40.5717 6.47536C42.885 5.86794 45.1168 7.4926 45.4991 9.8536C45.8814 12.2146 44.2664 14.4133 41.9676 15.0736C38.3026 16.1264 34.8172 17.7521 31.6435 19.8983C27.2709 22.8553 23.5949 26.7295 20.8714 31.2513C18.148 35.7731 16.4423 40.834 15.8732 46.0819C15.304 51.3298 15.885 56.6387 17.5758 61.6392C19.2665 66.6398 22.0264 71.2119 25.6634 75.0377C29.3005 78.8634 33.7273 81.8508 38.636 83.7921C43.5448 85.7334 48.8175 86.5819 54.0874 86.2787C57.9123 86.0586 61.6691 85.2356 65.2211 83.8482C67.4489 82.9781 70.0668 83.7456 71.1957 85.8542Z" fill="white"/>
<path d="M51 82.0179C51 84.2172 49.2118 86.0228 47.026 85.78C42.8586 85.3171 38.7937 84.1286 35.0183 82.2581C30.0502 79.7968 25.7178 76.2212 22.3589 71.8102C18.9999 67.3992 16.7052 62.272 15.6535 56.8284C14.6019 51.3847 14.8218 45.7717 16.2961 40.427C17.7705 35.0823 20.4594 30.1504 24.1531 26.0157C27.8469 21.8811 32.4458 18.6554 37.5912 16.5904C42.7366 14.5253 48.2894 13.6766 53.8167 14.1104C58.0171 14.44 62.1166 15.5036 65.9319 17.2427C67.933 18.1549 68.5426 20.6219 67.4151 22.5102C66.2876 24.3984 63.8502 24.9856 61.8214 24.1368C59.0822 22.9907 56.1705 22.2837 53.1936 22.0501C48.889 21.7123 44.5646 22.3732 40.5576 23.9815C36.5505 25.5897 32.969 28.1017 30.0924 31.3217C27.2157 34.5416 25.1217 38.3825 23.9735 42.5448C22.8254 46.7071 22.6541 51.0784 23.4731 55.3178C24.2921 59.5571 26.0792 63.5501 28.695 66.9852C31.3109 70.4204 34.6849 73.2049 38.5538 75.1218C41.2295 76.4474 44.0919 77.3332 47.0313 77.7535C49.2084 78.0649 51 79.8187 51 82.0179Z" fill="#0DA74B"/>
</svg>
