<?xml version="1.0" encoding="UTF-8"?>
<svg id="Layer_1" xmlns="http://www.w3.org/2000/svg" viewBox="0 0 1288 418">
  <defs>
    <style>
      .cls-1 {
        fill: #fff;
      }

      .cls-2, .cls-3, .cls-4, .cls-5 {
        font-family: Poppins-Bold, Poppins;
        font-size: 15px;
        font-weight: 700;
      }

      .cls-2, .cls-6 {
        fill: #a3333d;
      }

      .cls-7, .cls-3 {
        fill: #fcab64;
      }

      .cls-8 {
        fill: #35524a;
      }

      .cls-9 {
        fill: none;
      }

      .cls-4, .cls-10 {
        fill: #d81e5b;
      }

      .cls-11 {
        fill: #414042;
        font-family: Poppins-Medium, Poppins;
        font-size: 13px;
        font-weight: 500;
      }

      .cls-12 {
        fill: #f4f4f4;
      }

      .cls-5, .cls-13 {
        fill: #2a80ff;
      }

      .cls-14 {
        fill: #b932cf;
      }

      .cls-15 {
        fill: #e6e6e6;
      }
    </style>
  </defs>
  <rect class="cls-9" width="410" height="200"/>
  <path class="cls-6" d="M100.07,7.26c24.79,0,48.09,9.65,65.62,27.16,17.53,17.52,27.18,40.8,27.18,65.58s-9.65,48.06-27.18,65.58c-17.53,17.51-40.83,27.16-65.62,27.16s-48.09-9.65-65.62-27.16c-17.53-17.51-27.18-40.8-27.18-65.58s9.65-48.06,27.18-65.58C51.97,16.91,75.28,7.26,100.07,7.26ZM100.07,0C44.8,0,0,44.77,0,100s44.8,100,100.07,100,100.07-44.77,100.07-100S155.34,0,100.07,0Z"/>
  <path class="cls-6" d="M410,49.4v101.2c0,11.8-9.57,21.37-21.37,21.37h-5.56c11.81,0,21.37-9.57,21.37-21.37V49.4c0-11.8-9.57-21.36-21.37-21.36h5.56c11.8,0,21.37,9.56,21.37,21.36Z"/>
  <path class="cls-12" d="M404.44,49.4v101.2c0,11.8-9.57,21.37-21.37,21.37H127.01c-11.81,0-21.38-9.57-21.38-21.37V49.4c0-11.8,9.58-21.36,21.38-21.36h256.06c11.81,0,21.37,9.56,21.37,21.36Z"/>
  <path class="cls-15" d="M127.01,171.96h-5.56c-11.8,0-21.38-9.57-21.38-21.37V49.4c0-11.8,9.58-21.36,21.38-21.36h5.56c-11.81,0-21.38,9.56-21.38,21.36v101.2c0,11.8,9.58,21.37,21.38,21.37Z"/>
  <path class="cls-6" d="M159.14,159.02c32.62-32.6,32.62-85.45,0-118.05-32.62-32.6-85.52-32.6-118.14,0-32.62,32.6-32.62,85.45,0,118.05,32.62,32.6,85.51,32.6,118.14,0Z"/>
  <path class="cls-1" d="M81.17,98.67c0-4.73.85-8.43,2.54-11.11,1.72-2.68,4.56-4.02,8.53-4.02s6.79,1.34,8.49,4.02c1.72,2.68,2.58,6.38,2.58,11.11s-.86,8.49-2.58,11.19c-1.69,2.71-4.52,4.06-8.49,4.06s-6.81-1.35-8.53-4.06c-1.69-2.71-2.54-6.44-2.54-11.19ZM97.65,98.67c0-2.02-.14-3.72-.41-5.08-.25-1.39-.77-2.53-1.56-3.4-.77-.87-1.91-1.31-3.44-1.31s-2.69.44-3.48,1.31c-.77.87-1.28,2.01-1.56,3.4-.25,1.37-.37,3.06-.37,5.08s.12,3.83.37,5.25c.25,1.39.77,2.53,1.56,3.4.79.85,1.95,1.27,3.48,1.27s2.69-.42,3.49-1.27c.79-.88,1.31-2.01,1.56-3.4.25-1.42.37-3.17.37-5.25ZM106.98,89.4v-5.29h9.88v29.89h-5.9v-24.6h-3.98Z"/>
  <path class="cls-1" d="M100.07,39.04c33.64,0,61,27.35,61,60.96s-27.37,60.96-61,60.96-61-27.35-61-60.96,27.37-60.96,61-60.96ZM100.07,35.41c-35.7,0-64.63,28.92-64.63,64.59s28.94,64.59,64.63,64.59,64.63-28.92,64.63-64.59-28.94-64.59-64.63-64.59Z"/>
  <rect class="cls-9" y="218" width="410" height="200"/>
  <path class="cls-10" d="M100.07,225.26c24.79,0,48.09,9.65,65.62,27.16,17.53,17.51,27.18,40.8,27.18,65.58s-9.65,48.06-27.18,65.58c-17.53,17.52-40.83,27.16-65.62,27.16s-48.09-9.65-65.62-27.16c-17.53-17.51-27.18-40.8-27.18-65.58s9.65-48.06,27.18-65.58c17.53-17.51,40.83-27.16,65.62-27.16ZM100.07,218C44.8,218,0,262.77,0,318s44.8,100,100.07,100,100.07-44.77,100.07-100-44.8-100-100.07-100Z"/>
  <path class="cls-10" d="M410,267.4v101.2c0,11.8-9.57,21.36-21.37,21.36h-5.56c11.81,0,21.37-9.57,21.37-21.36v-101.2c0-11.8-9.57-21.36-21.37-21.36h5.56c11.8,0,21.37,9.56,21.37,21.36Z"/>
  <path class="cls-12" d="M404.44,267.4v101.2c0,11.8-9.57,21.36-21.37,21.36H127.01c-11.81,0-21.38-9.57-21.38-21.36v-101.2c0-11.8,9.58-21.36,21.38-21.36h256.06c11.81,0,21.37,9.56,21.37,21.36Z"/>
  <path class="cls-15" d="M127.01,389.96h-5.56c-11.8,0-21.38-9.57-21.38-21.36v-101.2c0-11.8,9.58-21.36,21.38-21.36h5.56c-11.81,0-21.38,9.56-21.38,21.36v101.2c0,11.8,9.58,21.36,21.38,21.36Z"/>
  <path class="cls-10" d="M159.14,377.02c32.62-32.6,32.62-85.45,0-118.05-32.62-32.6-85.52-32.6-118.14,0-32.62,32.6-32.62,85.45,0,118.05,32.62,32.6,85.51,32.6,118.14,0Z"/>
  <path class="cls-1" d="M75.17,316.67c0-4.73.85-8.43,2.54-11.11,1.72-2.68,4.56-4.02,8.53-4.02s6.79,1.34,8.49,4.02c1.72,2.68,2.58,6.38,2.58,11.11s-.86,8.49-2.58,11.19c-1.69,2.71-4.52,4.06-8.49,4.06s-6.81-1.35-8.53-4.06c-1.69-2.71-2.54-6.44-2.54-11.19ZM91.65,316.67c0-2.02-.14-3.72-.41-5.08-.25-1.39-.77-2.53-1.56-3.4-.77-.88-1.91-1.31-3.44-1.31s-2.69.44-3.48,1.31c-.77.88-1.28,2.01-1.56,3.4-.25,1.37-.37,3.06-.37,5.08s.12,3.83.37,5.25c.25,1.39.77,2.53,1.56,3.4.79.85,1.95,1.27,3.48,1.27s2.69-.42,3.49-1.27c.79-.88,1.31-2.01,1.56-3.4.25-1.42.37-3.17.37-5.25ZM101.43,326.18v-4.51l13.41-19.19h6.68v18.7h3.61v5h-3.61v5.82h-5.74v-5.82h-14.35ZM116.15,308.63l-8.4,12.55h8.4v-12.55Z"/>
  <path class="cls-1" d="M100.07,257.04c33.64,0,61,27.35,61,60.96s-27.37,60.96-61,60.96-61-27.35-61-60.96,27.37-60.96,61-60.96ZM100.07,253.41c-35.7,0-64.63,28.92-64.63,64.59s28.94,64.59,64.63,64.59,64.63-28.92,64.63-64.59-28.94-64.59-64.63-64.59Z"/>
  <rect class="cls-9" x="437" width="412" height="200"/>
  <path class="cls-7" d="M537.56,7.26c24.91,0,48.33,9.65,65.95,27.16,17.61,17.52,27.31,40.8,27.31,65.58s-9.7,48.06-27.31,65.58c-17.61,17.51-41.03,27.16-65.95,27.16s-48.33-9.65-65.94-27.16c-17.61-17.51-27.31-40.8-27.31-65.58s9.7-48.06,27.31-65.58c17.61-17.51,41.03-27.16,65.94-27.16ZM537.56,0c-55.54,0-100.56,44.77-100.56,100s45.02,100,100.56,100,100.56-44.77,100.56-100S593.09,0,537.56,0Z"/>
  <path class="cls-7" d="M849,49.4v101.2c0,11.8-9.62,21.37-21.48,21.37h-5.59c11.86,0,21.48-9.57,21.48-21.37V49.4c0-11.8-9.62-21.36-21.48-21.36h5.59c11.86,0,21.48,9.56,21.48,21.36Z"/>
  <path class="cls-12" d="M843.41,49.4v101.2c0,11.8-9.62,21.37-21.48,21.37h-257.31c-11.86,0-21.49-9.57-21.49-21.37V49.4c0-11.8,9.62-21.36,21.49-21.36h257.31c11.86,0,21.48,9.56,21.48,21.36Z"/>
  <path class="cls-15" d="M564.63,171.96h-5.59c-11.86,0-21.49-9.57-21.49-21.37V49.4c0-11.8,9.62-21.36,21.49-21.36h5.59c-11.86,0-21.49,9.56-21.49,21.36v101.2c0,11.8,9.62,21.37,21.49,21.37Z"/>
  <path class="cls-7" d="M596.91,159.02c32.78-32.6,32.78-85.45,0-118.05-32.78-32.6-85.93-32.6-118.71,0-32.78,32.6-32.78,85.45,0,118.05,32.78,32.6,85.93,32.6,118.71,0Z"/>
  <path class="cls-1" d="M537.56,39.04c33.8,0,61.3,27.35,61.3,60.96s-27.5,60.96-61.3,60.96-61.3-27.35-61.3-60.96,27.5-60.96,61.3-60.96ZM537.56,35.41c-35.87,0-64.95,28.92-64.95,64.59s29.08,64.59,64.95,64.59,64.95-28.92,64.95-64.59-29.08-64.59-64.95-64.59Z"/>
  <path class="cls-1" d="M515.17,98.67c0-4.73.85-8.43,2.54-11.11,1.72-2.68,4.57-4.02,8.53-4.02s6.79,1.34,8.49,4.02c1.72,2.68,2.58,6.38,2.58,11.11s-.86,8.49-2.58,11.19c-1.7,2.71-4.52,4.06-8.49,4.06s-6.81-1.35-8.53-4.06c-1.7-2.71-2.54-6.44-2.54-11.19ZM531.66,98.67c0-2.02-.14-3.72-.41-5.08-.25-1.39-.77-2.53-1.56-3.4-.77-.87-1.91-1.31-3.44-1.31s-2.69.44-3.48,1.31c-.77.87-1.28,2.01-1.56,3.4-.25,1.37-.37,3.06-.37,5.08s.12,3.83.37,5.25c.25,1.39.77,2.53,1.56,3.4.79.85,1.95,1.27,3.48,1.27s2.69-.42,3.49-1.27c.79-.88,1.31-2.01,1.56-3.4.25-1.42.37-3.17.37-5.25ZM543.48,107.52c2.62-2.19,4.72-4,6.27-5.45,1.56-1.48,2.86-3.01,3.9-4.59,1.04-1.59,1.56-3.14,1.56-4.67,0-1.39-.33-2.49-.98-3.28-.66-.79-1.67-1.19-3.03-1.19s-2.42.46-3.16,1.39c-.74.9-1.12,2.15-1.15,3.73h-5.58c.11-3.28,1.08-5.77,2.91-7.46,1.86-1.69,4.21-2.54,7.05-2.54,3.12,0,5.51.83,7.17,2.5,1.67,1.64,2.5,3.81,2.5,6.52,0,2.13-.57,4.17-1.72,6.11-1.15,1.94-2.46,3.64-3.94,5.08-1.48,1.42-3.4,3.14-5.78,5.17h12.09v4.76h-20.25v-4.26l2.13-1.8Z"/>
  <rect class="cls-9" x="437" y="218" width="412" height="200"/>
  <path class="cls-14" d="M537.56,225.26c24.91,0,48.33,9.65,65.95,27.16,17.61,17.51,27.31,40.8,27.31,65.58s-9.7,48.06-27.31,65.58c-17.61,17.52-41.03,27.16-65.95,27.16s-48.33-9.65-65.94-27.16c-17.61-17.51-27.31-40.8-27.31-65.58s9.7-48.06,27.31-65.58c17.61-17.51,41.03-27.16,65.94-27.16ZM537.56,218c-55.54,0-100.56,44.77-100.56,100s45.02,100,100.56,100,100.56-44.77,100.56-100-45.02-100-100.56-100Z"/>
  <path class="cls-14" d="M849,267.4v101.2c0,11.8-9.62,21.36-21.48,21.36h-5.59c11.86,0,21.48-9.57,21.48-21.36v-101.2c0-11.8-9.62-21.36-21.48-21.36h5.59c11.86,0,21.48,9.56,21.48,21.36Z"/>
  <path class="cls-12" d="M843.41,267.4v101.2c0,11.8-9.62,21.36-21.48,21.36h-257.31c-11.86,0-21.49-9.57-21.49-21.36v-101.2c0-11.8,9.62-21.36,21.49-21.36h257.31c11.86,0,21.48,9.56,21.48,21.36Z"/>
  <path class="cls-15" d="M564.63,389.96h-5.59c-11.86,0-21.49-9.57-21.49-21.36v-101.2c0-11.8,9.62-21.36,21.49-21.36h5.59c-11.86,0-21.49,9.56-21.49,21.36v101.2c0,11.8,9.62,21.36,21.49,21.36Z"/>
  <path class="cls-14" d="M596.91,377.02c32.78-32.6,32.78-85.45,0-118.05-32.78-32.6-85.93-32.6-118.71,0-32.78,32.6-32.78,85.45,0,118.05,32.78,32.6,85.93,32.6,118.71,0Z"/>
  <path class="cls-1" d="M514.17,314.67c0-4.73.85-8.43,2.54-11.11,1.72-2.68,4.57-4.02,8.53-4.02s6.79,1.34,8.49,4.02c1.72,2.68,2.58,6.38,2.58,11.11s-.86,8.49-2.58,11.19c-1.7,2.71-4.52,4.06-8.49,4.06s-6.81-1.35-8.53-4.06c-1.7-2.71-2.54-6.44-2.54-11.19ZM530.66,314.67c0-2.02-.14-3.72-.41-5.08-.25-1.39-.77-2.53-1.56-3.4-.77-.88-1.91-1.31-3.44-1.31s-2.69.44-3.48,1.31c-.77.88-1.28,2.01-1.56,3.4-.25,1.37-.37,3.06-.37,5.08s.12,3.83.37,5.25c.25,1.39.77,2.53,1.56,3.4.79.85,1.95,1.27,3.48,1.27s2.69-.42,3.49-1.27c.79-.88,1.31-2.01,1.56-3.4.25-1.42.37-3.17.37-5.25ZM560.77,305.07h-13.28v7.01c.57-.71,1.39-1.29,2.46-1.72,1.07-.46,2.2-.7,3.4-.7,2.19,0,3.98.48,5.37,1.43s2.41,2.19,3.03,3.69c.63,1.48.94,3.06.94,4.76,0,3.14-.9,5.67-2.71,7.58-1.78,1.91-4.32,2.87-7.63,2.87-3.12,0-5.6-.78-7.46-2.34-1.86-1.56-2.91-3.59-3.16-6.11h5.58c.25,1.09.79,1.97,1.64,2.62.88.66,1.98.98,3.32.98,1.61,0,2.83-.51,3.65-1.52.82-1.01,1.23-2.35,1.23-4.02s-.42-2.98-1.27-3.85c-.82-.9-2.04-1.35-3.65-1.35-1.15,0-2.11.29-2.87.86-.76.57-1.31,1.34-1.64,2.3h-5.49v-17.55h18.53v5.04Z"/>
  <path class="cls-1" d="M537.56,257.04c33.8,0,61.3,27.35,61.3,60.96s-27.5,60.96-61.3,60.96-61.3-27.35-61.3-60.96,27.5-60.96,61.3-60.96ZM537.56,253.41c-35.87,0-64.95,28.92-64.95,64.59s29.08,64.59,64.95,64.59,64.95-28.92,64.95-64.59-29.08-64.59-64.95-64.59Z"/>
  <rect class="cls-9" x="876" width="412" height="200"/>
  <path class="cls-13" d="M976.56,7.26c24.91,0,48.33,9.65,65.94,27.16,17.62,17.52,27.32,40.8,27.32,65.58s-9.7,48.06-27.32,65.58c-17.61,17.51-41.03,27.16-65.94,27.16s-48.33-9.65-65.94-27.16c-17.61-17.51-27.31-40.8-27.31-65.58s9.7-48.06,27.31-65.58c17.61-17.51,41.03-27.16,65.94-27.16ZM976.56,0c-55.54,0-100.56,44.77-100.56,100s45.02,100,100.56,100,100.55-44.77,100.55-100S1032.09,0,976.56,0Z"/>
  <path class="cls-13" d="M1288,49.4v101.2c0,11.8-9.62,21.37-21.48,21.37h-5.58c11.86,0,21.47-9.57,21.47-21.37V49.4c0-11.8-9.61-21.36-21.47-21.36h5.58c11.86,0,21.48,9.56,21.48,21.36Z"/>
  <path class="cls-12" d="M1282.41,49.4v101.2c0,11.8-9.61,21.37-21.47,21.37h-257.31c-11.86,0-21.49-9.57-21.49-21.37V49.4c0-11.8,9.62-21.36,21.49-21.36h257.31c11.86,0,21.47,9.56,21.47,21.36Z"/>
  <path class="cls-15" d="M1003.63,171.96h-5.59c-11.86,0-21.49-9.57-21.49-21.37V49.4c0-11.8,9.62-21.36,21.49-21.36h5.59c-11.86,0-21.49,9.56-21.49,21.36v101.2c0,11.8,9.62,21.37,21.49,21.37Z"/>
  <path class="cls-13" d="M1035.91,159.02c32.79-32.6,32.79-85.45,0-118.05-32.78-32.6-85.93-32.6-118.71,0-32.78,32.6-32.78,85.45,0,118.05,32.78,32.6,85.93,32.6,118.71,0Z"/>
  <path class="cls-1" d="M976.56,39.04c33.8,0,61.3,27.35,61.3,60.96s-27.5,60.96-61.3,60.96-61.3-27.35-61.3-60.96,27.5-60.96,61.3-60.96ZM976.56,35.41c-35.87,0-64.95,28.92-64.95,64.59s29.08,64.59,64.95,64.59,64.95-28.92,64.95-64.59-29.08-64.59-64.95-64.59Z"/>
  <path class="cls-1" d="M954.17,98.67c0-4.73.85-8.43,2.54-11.11,1.72-2.68,4.57-4.02,8.53-4.02s6.79,1.34,8.49,4.02c1.72,2.68,2.58,6.38,2.58,11.11s-.86,8.49-2.58,11.19c-1.7,2.71-4.52,4.06-8.49,4.06s-6.81-1.35-8.53-4.06c-1.7-2.71-2.54-6.44-2.54-11.19ZM970.66,98.67c0-2.02-.14-3.72-.41-5.08-.25-1.39-.77-2.53-1.56-3.4-.77-.87-1.91-1.31-3.44-1.31s-2.69.44-3.48,1.31c-.77.87-1.28,2.01-1.56,3.4-.25,1.37-.37,3.06-.37,5.08s.12,3.83.37,5.25c.25,1.39.77,2.53,1.56,3.4.79.85,1.95,1.27,3.48,1.27s2.69-.42,3.49-1.27c.79-.88,1.31-2.01,1.56-3.4.25-1.42.37-3.17.37-5.25ZM980.76,91.98c.14-2.73,1.09-4.84,2.87-6.31,1.8-1.5,4.17-2.25,7.09-2.25,1.99,0,3.7.36,5.12,1.07,1.42.68,2.49,1.63,3.2,2.83.74,1.18,1.1,2.51,1.1,4.02,0,1.72-.45,3.18-1.35,4.39-.88,1.18-1.93,1.97-3.16,2.38v.16c1.59.49,2.82,1.37,3.69,2.62.91,1.26,1.36,2.87,1.36,4.84,0,1.64-.39,3.1-1.15,4.39-.74,1.28-1.85,2.3-3.32,3.03-1.45.71-3.2,1.07-5.25,1.07-3.09,0-5.6-.78-7.54-2.34-1.94-1.56-2.97-3.85-3.08-6.89h5.58c.05,1.34.51,2.42,1.35,3.24.88.79,2.06,1.19,3.57,1.19,1.39,0,2.46-.38,3.2-1.15.77-.79,1.15-1.8,1.15-3.03,0-1.64-.52-2.81-1.56-3.53-1.04-.71-2.65-1.07-4.84-1.07h-1.19v-4.72h1.19c3.88,0,5.82-1.3,5.82-3.89,0-1.18-.36-2.09-1.07-2.75-.68-.66-1.68-.98-2.99-.98s-2.28.36-2.99,1.07c-.68.68-1.08,1.56-1.19,2.62h-5.62Z"/>
  <rect class="cls-9" x="876" y="218" width="412" height="200"/>
  <path class="cls-8" d="M976.56,225.26c24.91,0,48.33,9.65,65.94,27.16,17.62,17.51,27.32,40.8,27.32,65.58s-9.7,48.06-27.32,65.58c-17.61,17.52-41.03,27.16-65.94,27.16s-48.33-9.65-65.94-27.16c-17.61-17.51-27.31-40.8-27.31-65.58s9.7-48.06,27.31-65.58c17.61-17.51,41.03-27.16,65.94-27.16ZM976.56,218c-55.54,0-100.56,44.77-100.56,100s45.02,100,100.56,100,100.55-44.77,100.55-100-45.02-100-100.55-100Z"/>
  <path class="cls-8" d="M1288,267.4v101.2c0,11.8-9.62,21.36-21.48,21.36h-5.58c11.86,0,21.47-9.57,21.47-21.36v-101.2c0-11.8-9.61-21.36-21.47-21.36h5.58c11.86,0,21.48,9.56,21.48,21.36Z"/>
  <path class="cls-12" d="M1282.41,267.4v101.2c0,11.8-9.61,21.36-21.47,21.36h-257.31c-11.86,0-21.49-9.57-21.49-21.36v-101.2c0-11.8,9.62-21.36,21.49-21.36h257.31c11.86,0,21.47,9.56,21.47,21.36Z"/>
  <path class="cls-15" d="M1003.63,389.96h-5.59c-11.86,0-21.49-9.57-21.49-21.36v-101.2c0-11.8,9.62-21.36,21.49-21.36h5.59c-11.86,0-21.49,9.56-21.49,21.36v101.2c0,11.8,9.62,21.36,21.49,21.36Z"/>
  <path class="cls-8" d="M1035.91,377.02c32.79-32.6,32.79-85.45,0-118.05-32.78-32.6-85.93-32.6-118.71,0-32.78,32.6-32.78,85.45,0,118.05s85.93,32.6,118.71,0Z"/>
  <path class="cls-1" d="M976.56,257.04c33.8,0,61.3,27.35,61.3,60.96s-27.5,60.96-61.3,60.96-61.3-27.35-61.3-60.96,27.5-60.96,61.3-60.96ZM976.56,253.41c-35.87,0-64.95,28.92-64.95,64.59s29.08,64.59,64.95,64.59,64.95-28.92,64.95-64.59-29.08-64.59-64.95-64.59Z"/>
  <path class="cls-1" d="M953.17,316.67c0-4.73.85-8.43,2.54-11.11,1.72-2.68,4.57-4.02,8.53-4.02s6.79,1.34,8.49,4.02c1.72,2.68,2.58,6.38,2.58,11.11s-.86,8.49-2.58,11.19c-1.7,2.71-4.52,4.06-8.49,4.06s-6.81-1.35-8.53-4.06c-1.7-2.71-2.54-6.44-2.54-11.19ZM969.66,316.67c0-2.02-.14-3.72-.41-5.08-.25-1.39-.77-2.53-1.56-3.4-.77-.88-1.91-1.31-3.44-1.31s-2.69.44-3.48,1.31c-.77.88-1.28,2.01-1.56,3.4-.25,1.37-.37,3.06-.37,5.08s.12,3.83.37,5.25c.25,1.39.77,2.53,1.56,3.4.79.85,1.95,1.27,3.48,1.27s2.69-.42,3.49-1.27c.79-.88,1.31-2.01,1.56-3.4.25-1.42.37-3.17.37-5.25ZM995.18,309.57c-.27-1.15-.75-2.01-1.43-2.58-.66-.57-1.61-.86-2.87-.86-1.89,0-3.28.77-4.18,2.3-.88,1.5-1.33,3.96-1.35,7.38.66-1.09,1.61-1.94,2.87-2.54,1.26-.63,2.62-.94,4.1-.94,1.78,0,3.35.38,4.71,1.15,1.37.77,2.43,1.89,3.2,3.36.77,1.45,1.15,3.2,1.15,5.25,0,1.94-.4,3.68-1.19,5.21-.77,1.5-1.9,2.68-3.4,3.53-1.5.85-3.29,1.27-5.37,1.27-2.84,0-5.08-.63-6.72-1.89-1.61-1.26-2.75-3.01-3.4-5.25-.63-2.27-.94-5.06-.94-8.36,0-5,.86-8.77,2.58-11.32,1.72-2.57,4.44-3.85,8.16-3.85,2.87,0,5.1.78,6.68,2.34,1.58,1.56,2.5,3.5,2.75,5.82h-5.33ZM990.99,317.04c-1.45,0-2.66.42-3.65,1.27-.98.85-1.48,2.08-1.48,3.69s.45,2.88,1.35,3.81c.93.93,2.23,1.39,3.89,1.39,1.48,0,2.64-.45,3.49-1.35.88-.9,1.31-2.12,1.31-3.65s-.42-2.84-1.27-3.77c-.82-.93-2.04-1.39-3.65-1.39Z"/>
  <text class="cls-2" transform="translate(194.42 57.87)"><tspan x="0" y="0">Fill Basic Details</tspan></text>
  <text class="cls-11" transform="translate(193.9 79.46)"><tspan x="0" y="0">Help us know your name,</tspan><tspan x="0" y="22.8">employment status, type of</tspan><tspan x="0" y="45.6">loan requirement, city, mobile</tspan><tspan x="0" y="68.4">number, etc</tspan></text>
  <text class="cls-4" transform="translate(191.52 281.2)"><tspan x="0" y="0">Loan Decision</tspan></text>
  <text class="cls-11" transform="translate(191.01 302.79)"><tspan x="0" y="0">After a quick screening of your</tspan><tspan x="0" y="22.8">personal and financial details,</tspan><tspan x="0" y="45.6">see if your loan application gets</tspan><tspan x="0" y="68.4">‘Approved’ or ‘Rejected.’</tspan></text>
  <text class="cls-4" transform="translate(629.65 281.2)"><tspan x="0" y="0">Loan Sanctioned</tspan></text>
  <text class="cls-11" transform="translate(629.14 302.79)"><tspan x="0" y="0">Wait at least 24 hours to know</tspan><tspan x="0" y="22.8">your loan application status,</tspan><tspan x="0" y="45.6">interest rates, payoff tenure, etc.</tspan></text>
  <text class="cls-4" transform="translate(1067.78 281.2)"><tspan x="0" y="0">Loan Disbursal</tspan></text>
  <text class="cls-11" transform="translate(1067.27 302.79)"><tspan x="0" y="0">Sign the loan agreement, and</tspan><tspan x="0" y="22.8">the loan amount will be credited</tspan><tspan x="0" y="45.6">to your bank account</tspan></text>
  <text class="cls-3" transform="translate(634.31 57.87)"><tspan x="0" y="0">Self Check Eligibility</tspan></text>
  <text class="cls-11" transform="translate(633.8 79.46)"><tspan x="0" y="0">With the help of the submitted</tspan><tspan x="0" y="22.8">information, you can learn</tspan><tspan x="0" y="45.6">about your eligibility for a</tspan><tspan x="0" y="68.4">loan application</tspan></text>
  <text class="cls-5" transform="translate(1068.61 57.87)"><tspan x="0" y="0">Online Document</tspan><tspan x="0" y="18">Submission</tspan></text>
  <text class="cls-11" transform="translate(1068.1 97.08)"><tspan x="0" y="0">Submit proof of your address,</tspan><tspan x="0" y="22.8">salary slips, Aadhaar card, PAN</tspan><tspan x="0" y="45.6">card, etc.</tspan></text>
</svg>