<?xml version="1.0" encoding="UTF-8"?>
<svg version="1.1" xmlns="http://www.w3.org/2000/svg" width="512" height="512">
<path d="M0 0 C5.35103666 0.35403834 8.16115636 3.36624259 11.9375 6.8125 C13.2795076 8.00700529 14.62196554 9.20100479 15.96484375 10.39453125 C16.64015137 10.99990723 17.31545898 11.6052832 18.01123047 12.22900391 C20.96991064 14.86370388 23.98346705 17.43200452 27 20 C31.97344829 24.25344873 36.92975834 28.52629355 41.875 32.8125 C42.46925781 33.32748047 43.06351563 33.84246094 43.67578125 34.37304688 C48.12854179 38.23574227 52.56620564 42.11555723 57 46 C71.47174275 39.87431128 85.75251126 33.37610999 100 26.75 C101.77417524 25.92618708 103.54842666 25.1025382 105.32275391 24.27905273 C106.20086731 23.87146225 107.07898071 23.46387177 107.98370361 23.04393005 C109.74896224 22.22456325 111.51422103 21.4051968 113.27947998 20.58583069 C117.46060696 18.6447116 121.64084629 16.70174446 125.81884766 14.75390625 C129.47283412 13.05151189 133.13201885 11.36084488 136.7956543 9.67932129 C138.13030048 9.0643436 139.46302595 8.44517869 140.79370117 7.82165527 C142.61397445 6.96929404 144.44157827 6.13263957 146.26953125 5.296875 C147.28635986 4.82604492 148.30318848 4.35521484 149.35083008 3.87011719 C152 3 152 3 154.12451172 2.92211914 C157.23014339 4.70698816 158.29169993 7.81271438 159.73828125 10.94921875 C160.08055252 11.66277023 160.42282379 12.37632172 160.77546692 13.11149597 C161.86685651 15.4002708 162.93552131 17.69859937 164 20 C164.51430573 21.10121185 164.51430573 21.10121185 165.03900146 22.22467041 C167.45705215 27.40476768 169.82729489 32.60585034 172.1875 37.8125 C172.8792869 39.33280536 173.57134362 40.85298797 174.26367188 42.37304688 C175.58476037 45.27396212 176.90180838 48.17666082 178.21630859 51.08056641 C179.32847215 53.53375673 180.45731836 55.97618002 181.60009766 58.41552734 C182.05819824 59.39602051 182.51629883 60.37651367 182.98828125 61.38671875 C183.57863159 62.63328247 183.57863159 62.63328247 184.1809082 63.9050293 C185 66 185 66 185 69 C186.25167969 68.70673828 187.50335938 68.41347656 188.79296875 68.11132812 C210.26818413 63.57523658 230.9574547 64.41200035 249.87818527 76.13112259 C268.38834899 88.25095469 287.41057548 106.08069645 292.78925323 128.25359344 C299.60456381 164.37075637 295.46661417 203.6647165 292 240 C293.10656448 239.67566483 294.21312897 239.35132965 295.35322571 239.01716614 C310.53693725 234.78209262 326.9505805 238.72544281 340.53515625 245.85546875 C353.84349211 253.69462549 364.29208018 267.13415751 368.56640625 281.96533203 C371.94517844 295.57394037 371.58091539 311.08837726 366 324 C365.66097656 324.85207031 365.32195312 325.70414062 364.97265625 326.58203125 C358.63128442 340.91217755 346.69866799 351.56994503 332.375 357.5625 C329.61418297 358.59436683 327.98519336 359 325 359 C325.00888245 359.9675119 325.01776489 360.9350238 325.0269165 361.93185425 C325.10825908 371.08211439 325.16808806 380.23230047 325.20724869 389.38284111 C325.22805896 394.08643626 325.25625566 398.78973783 325.30175781 403.49316406 C325.34545098 408.03842144 325.36918636 412.58339772 325.37950897 417.12884903 C325.38685845 418.85668483 325.40120964 420.5845065 325.42292023 422.31222153 C325.56865019 434.39794463 324.86243707 445.822654 316 455 C306.58562217 462.64692758 298.06352235 464.44759215 286.19132996 464.38768005 C284.26936553 464.39575836 284.26936553 464.39575836 282.30857354 464.40399987 C278.76771731 464.41841624 275.22709459 464.41422177 271.68622577 464.40683305 C267.86128566 464.40209413 264.03639554 464.41461771 260.21147156 464.42485046 C252.72377832 464.44203038 245.23616904 464.44288005 237.74846121 464.43763756 C231.66035071 464.43359266 225.57226498 464.43504322 219.48415565 464.44038582 C218.6169521 464.44113424 217.74974854 464.44188266 216.85626609 464.44265376 C215.0944034 464.44418528 213.33254071 464.44572363 211.57067803 464.44726873 C195.05453471 464.46099117 178.53843877 464.45555817 162.02229653 464.44408352 C146.92438337 464.43415423 131.82659282 464.447087 116.72869857 464.47101771 C101.21443919 464.49542246 85.70023687 464.50501303 70.18595868 464.49836498 C61.48061229 464.49487546 52.77536015 464.49708706 44.07002831 464.51461601 C36.65832935 464.52935532 29.24679099 464.52995104 21.83509513 464.5125451 C18.05645401 464.50404637 14.27809956 464.50185759 10.49947357 464.51719666 C6.39595821 464.53364775 2.29313127 464.51886535 -1.81037903 464.50120544 C-2.99463858 464.51081045 -4.17889813 464.52041546 -5.39904433 464.53031152 C-16.12041472 464.43558071 -25.14262012 461.93575558 -32.98828125 454.4140625 C-39.97749637 446.02700435 -42.15663539 437.25848578 -42.07073975 426.56369019 C-42.06650537 425.83607455 -42.06227099 425.10845892 -42.0579083 424.35879433 C-42.04807874 422.77120306 -42.03589101 421.18362503 -42.02162361 419.59606743 C-41.9984314 417.01166348 -41.98128779 414.42727995 -41.96574402 411.84281921 C-41.9489743 409.05662765 -41.93186367 406.27044331 -41.91299295 403.48426509 C-41.8667565 396.5735021 -41.8415009 389.66288619 -41.82891846 382.75198364 C-41.82616665 381.24536 -41.82616665 381.24536 -41.82335925 379.70829952 C-41.81626668 375.56624743 -41.80996252 371.42419472 -41.80426168 367.28214049 C-41.78744973 355.53854489 -41.74963907 343.7959223 -41.64697266 332.05273438 C-41.5654733 322.71555289 -41.53010635 313.37947613 -41.54848695 304.0419389 C-41.5565024 299.10545192 -41.54166262 294.17147721 -41.4708786 289.2354393 C-41.40476796 284.58687988 -41.4002739 279.94219815 -41.44149208 275.29339027 C-41.44590928 273.59547164 -41.42841214 271.89731977 -41.38641167 270.19991493 C-41.10191164 260.0531181 -41.10191164 260.0531181 -45.80020905 251.40298843 C-48.47258453 248.76200395 -51.32610323 246.43472213 -54.35261011 244.21301484 C-56.85895162 242.3675322 -59.23066532 240.36231888 -61.625 238.375 C-62.51445313 237.66085937 -63.40390625 236.94671875 -64.3203125 236.2109375 C-67.13253315 233.8906505 -69.81797263 231.46928866 -72.5 229 C-76.07792463 225.70668301 -79.71539666 222.55348679 -83.5 219.5 C-88.25595419 215.66280969 -92.75504801 211.60614899 -97.25 207.46875 C-99.93737634 205.05621896 -102.68965444 202.7674379 -105.5 200.5 C-109.28460334 197.44651321 -112.92207537 194.29331699 -116.5 191 C-120.12044823 187.66836245 -123.80280446 184.47321421 -127.625 181.375 C-128.52089844 180.64539063 -129.41679687 179.91578125 -130.33984375 179.1640625 C-132.11955687 177.71624889 -133.90345466 176.27356476 -135.69140625 174.8359375 C-136.92697266 173.80339844 -136.92697266 173.80339844 -138.1875 172.75 C-138.92355469 172.14671875 -139.65960938 171.5434375 -140.41796875 170.921875 C-142 169 -142 169 -142.546875 166.6171875 C-141.77870557 162.94094807 -139.63787403 160.94020808 -137.0625 158.375 C-136.04049341 157.31227078 -135.02099995 156.24711959 -134.00390625 155.1796875 C-133.49359863 154.64698242 -132.98329102 154.11427734 -132.45751953 153.56542969 C-130.35192279 151.30394119 -128.42756252 148.91382602 -126.5 146.5 C-123.30068278 142.52370574 -119.97415055 138.73331702 -116.5 135 C-112.2104224 130.38998361 -108.19589103 125.62216764 -104.24609375 120.71484375 C-101.9116941 117.89326505 -99.48009402 115.19409288 -97 112.5 C-93.70668301 108.92207537 -90.55348679 105.28460334 -87.5 101.5 C-83.66280969 96.74404581 -79.60614899 92.24495199 -75.46875 87.75 C-73.05621896 85.06262366 -70.7674379 82.31034556 -68.5 79.5 C-64.66280969 74.74404581 -60.60614899 70.24495199 -56.46875 65.75 C-54.05621896 63.06262366 -51.7674379 60.31034556 -49.5 57.5 C-45.66280969 52.74404581 -41.60614899 48.24495199 -37.46875 43.75 C-35.05621896 41.06262366 -32.7674379 38.31034556 -30.5 35.5 C-27.44651321 31.71539666 -24.29331699 28.07792463 -21 24.5 C-16.85818487 19.99858542 -12.9593002 15.35195362 -9.1171875 10.59375 C-6.16876275 6.98165769 -3.10168208 3.48066574 0 0 Z " fill="#FEBA57" transform="translate(142,24)"/>
<path d="M0 0 C5.35103666 0.35403834 8.16115636 3.36624259 11.9375 6.8125 C13.2795076 8.00700529 14.62196554 9.20100479 15.96484375 10.39453125 C16.64015137 10.99990723 17.31545898 11.6052832 18.01123047 12.22900391 C20.96991064 14.86370388 23.98346705 17.43200452 27 20 C31.97344829 24.25344873 36.92975834 28.52629355 41.875 32.8125 C42.46925781 33.32748047 43.06351563 33.84246094 43.67578125 34.37304688 C48.12854179 38.23574227 52.56620564 42.11555723 57 46 C71.47174275 39.87431128 85.75251126 33.37610999 100 26.75 C101.77417524 25.92618708 103.54842666 25.1025382 105.32275391 24.27905273 C106.20086731 23.87146225 107.07898071 23.46387177 107.98370361 23.04393005 C109.74896224 22.22456325 111.51422103 21.4051968 113.27947998 20.58583069 C117.46060696 18.6447116 121.64084629 16.70174446 125.81884766 14.75390625 C129.47283412 13.05151189 133.13201885 11.36084488 136.7956543 9.67932129 C138.13030048 9.0643436 139.46302595 8.44517869 140.79370117 7.82165527 C142.61397445 6.96929404 144.44157827 6.13263957 146.26953125 5.296875 C147.28635986 4.82604492 148.30318848 4.35521484 149.35083008 3.87011719 C152 3 152 3 154.12451172 2.92211914 C157.23014339 4.70698816 158.29169993 7.81271438 159.73828125 10.94921875 C160.08055252 11.66277023 160.42282379 12.37632172 160.77546692 13.11149597 C161.86685651 15.4002708 162.93552131 17.69859937 164 20 C164.51430573 21.10121185 164.51430573 21.10121185 165.03900146 22.22467041 C167.45705215 27.40476768 169.82729489 32.60585034 172.1875 37.8125 C172.8792869 39.33280536 173.57134362 40.85298797 174.26367188 42.37304688 C175.58476037 45.27396212 176.90180838 48.17666082 178.21630859 51.08056641 C179.32847215 53.53375673 180.45731836 55.97618002 181.60009766 58.41552734 C182.05819824 59.39602051 182.51629883 60.37651367 182.98828125 61.38671875 C183.57863159 62.63328247 183.57863159 62.63328247 184.1809082 63.9050293 C185 66 185 66 185 69 C186.25167969 68.70673828 187.50335938 68.41347656 188.79296875 68.11132812 C210.25608803 63.57791988 230.94989546 64.42281939 249.87818527 76.10063171 C268.44204851 88.21182326 287.43334848 106.0556954 292.78925323 128.2741394 C299.5886785 164.55554447 295.44688637 204.52735939 292 241 C290.36321289 241.69053467 290.36321289 241.69053467 288.69335938 242.39501953 C287.24334626 243.01561576 285.79348443 243.63656554 284.34375 244.2578125 C283.62670898 244.55921143 282.90966797 244.86061035 282.17089844 245.17114258 C275.32168806 248.12163194 268.83642093 251.92015752 264.49640465 258.16273689 C261.75148204 261.86766841 259.58298417 264.55225241 255.04741287 265.83514023 C251.44028137 266.14252988 247.92688455 266.17069233 244.30712891 266.10107422 C242.93300839 266.10672976 241.55889926 266.11627684 240.18482971 266.12939453 C236.47104272 266.1532352 232.75968856 266.12108978 229.04616213 266.07720327 C225.14711813 266.03935623 221.24815498 266.04893411 217.34896851 266.05203247 C210.80027201 266.05010897 204.2525146 266.01308567 197.70410156 265.95361328 C190.15349613 265.88533168 182.60402897 265.86593711 175.05314505 265.8743819 C167.76691539 265.88193282 160.48106442 265.8608655 153.19492722 265.82483292 C150.10504192 265.80967233 147.01532465 265.8032213 143.92540359 265.80373764 C140.27894478 265.80259906 136.63349703 265.77588682 132.9873333 265.73017883 C131.02610521 265.71117074 129.06468954 265.71615051 127.1033783 265.72207642 C117.99723341 265.56977046 110.70347048 263.64767421 103.8984375 257.3515625 C103.06570312 256.45179688 102.23296875 255.55203125 101.375 254.625 C98.515488 251.57192103 95.69503733 248.70016409 92.50390625 245.99609375 C88.69305335 242.70963719 85.15657451 239.20442741 81.62890625 235.62109375 C81.057771 235.04206299 80.48663574 234.46303223 79.89819336 233.86645508 C77.51865076 231.45059367 75.14201009 229.03204996 72.77514648 226.60375977 C60.42057215 213.13710424 60.42057215 213.13710424 43.93589783 206.71911621 C42.79294754 206.70546021 41.64999725 206.6918042 40.47241211 206.67773438 C39.17013168 206.65851929 37.86785126 206.6393042 36.52610779 206.61950684 C35.10986031 206.60980539 33.6936046 206.60124908 32.27734375 206.59375 C31.19791598 206.58526787 31.19791598 206.58526787 30.09668159 206.57661438 C26.28327101 206.54668257 22.47001052 206.52819482 18.65649414 206.51953125 C14.74826633 206.50861046 10.84144939 206.46064947 6.93366146 206.40358734 C3.9024122 206.36602067 0.87149096 206.35590678 -2.15997124 206.3528595 C-3.59870496 206.34686863 -5.03743734 206.33102547 -6.4759388 206.30448914 C-16.11655936 206.13943848 -23.89745943 207.37476429 -32 213 C-37.72392708 218.87041613 -40.19683626 224.61363851 -40.4140625 232.83203125 C-40.45273438 234.12431641 -40.49140625 235.41660156 -40.53125 236.74804688 C-40.56270014 238.10285995 -40.59394761 239.45767775 -40.625 240.8125 C-40.6632175 242.18687272 -40.7022714 243.56122244 -40.7421875 244.93554688 C-40.83635404 248.29022989 -40.921982 251.64490893 -41 255 C-44.63401577 253.28877436 -47.12637103 251.20066113 -50.0625 248.4375 C-53.77478591 244.98537429 -57.54816138 241.68074816 -61.5 238.5 C-66.25595419 234.66280969 -70.75504801 230.60614899 -75.25 226.46875 C-77.93737634 224.05621896 -80.68965444 221.7674379 -83.5 219.5 C-88.25595419 215.66280969 -92.75504801 211.60614899 -97.25 207.46875 C-99.93737634 205.05621896 -102.68965444 202.7674379 -105.5 200.5 C-109.28460334 197.44651321 -112.92207537 194.29331699 -116.5 191 C-120.12044823 187.66836245 -123.80280446 184.47321421 -127.625 181.375 C-128.52089844 180.64539063 -129.41679687 179.91578125 -130.33984375 179.1640625 C-132.11955687 177.71624889 -133.90345466 176.27356476 -135.69140625 174.8359375 C-136.92697266 173.80339844 -136.92697266 173.80339844 -138.1875 172.75 C-138.92355469 172.14671875 -139.65960938 171.5434375 -140.41796875 170.921875 C-142 169 -142 169 -142.546875 166.6171875 C-141.77870557 162.94094807 -139.63787403 160.94020808 -137.0625 158.375 C-136.04049341 157.31227078 -135.02099995 156.24711959 -134.00390625 155.1796875 C-133.49359863 154.64698242 -132.98329102 154.11427734 -132.45751953 153.56542969 C-130.35192279 151.30394119 -128.42756252 148.91382602 -126.5 146.5 C-123.30068278 142.52370574 -119.97415055 138.73331702 -116.5 135 C-112.2104224 130.38998361 -108.19589103 125.62216764 -104.24609375 120.71484375 C-101.9116941 117.89326505 -99.48009402 115.19409288 -97 112.5 C-93.70668301 108.92207537 -90.55348679 105.28460334 -87.5 101.5 C-83.66280969 96.74404581 -79.60614899 92.24495199 -75.46875 87.75 C-73.05621896 85.06262366 -70.7674379 82.31034556 -68.5 79.5 C-64.66280969 74.74404581 -60.60614899 70.24495199 -56.46875 65.75 C-54.05621896 63.06262366 -51.7674379 60.31034556 -49.5 57.5 C-45.66280969 52.74404581 -41.60614899 48.24495199 -37.46875 43.75 C-35.05621896 41.06262366 -32.7674379 38.31034556 -30.5 35.5 C-27.44651321 31.71539666 -24.29331699 28.07792463 -21 24.5 C-16.85818487 19.99858542 -12.9593002 15.35195362 -9.1171875 10.59375 C-6.16876275 6.98165769 -3.10168208 3.48066574 0 0 Z " fill="#E9F5FE" transform="translate(142,24)"/>
<path d="M0 0 C5.35103666 0.35403834 8.16115636 3.36624259 11.9375 6.8125 C13.2795076 8.00700529 14.62196554 9.20100479 15.96484375 10.39453125 C16.64015137 10.99990723 17.31545898 11.6052832 18.01123047 12.22900391 C20.96991064 14.86370388 23.98346705 17.43200452 27 20 C31.97344829 24.25344873 36.92975834 28.52629355 41.875 32.8125 C42.46925781 33.32748047 43.06351563 33.84246094 43.67578125 34.37304688 C48.12854179 38.23574227 52.56620564 42.11555723 57 46 C71.47174275 39.87431128 85.75251126 33.37610999 100 26.75 C101.77417524 25.92618708 103.54842666 25.1025382 105.32275391 24.27905273 C106.20086731 23.87146225 107.07898071 23.46387177 107.98370361 23.04393005 C109.74896224 22.22456325 111.51422103 21.4051968 113.27947998 20.58583069 C117.46060696 18.6447116 121.64084629 16.70174446 125.81884766 14.75390625 C129.47283412 13.05151189 133.13201885 11.36084488 136.7956543 9.67932129 C138.13030048 9.0643436 139.46302595 8.44517869 140.79370117 7.82165527 C142.61397445 6.96929404 144.44157827 6.13263957 146.26953125 5.296875 C147.28635986 4.82604492 148.30318848 4.35521484 149.35083008 3.87011719 C152 3 152 3 154.12451172 2.92211914 C157.23014339 4.70698816 158.29169993 7.81271438 159.73828125 10.94921875 C160.08055252 11.66277023 160.42282379 12.37632172 160.77546692 13.11149597 C161.86685651 15.4002708 162.93552131 17.69859937 164 20 C164.51430573 21.10121185 164.51430573 21.10121185 165.03900146 22.22467041 C167.45705215 27.40476768 169.82729489 32.60585034 172.1875 37.8125 C172.8792869 39.33280536 173.57134362 40.85298797 174.26367188 42.37304688 C175.58476037 45.27396212 176.90180838 48.17666082 178.21630859 51.08056641 C179.32847215 53.53375673 180.45731836 55.97618002 181.60009766 58.41552734 C182.05819824 59.39602051 182.51629883 60.37651367 182.98828125 61.38671875 C183.57863159 62.63328247 183.57863159 62.63328247 184.1809082 63.9050293 C185 66 185 66 185 69 C129.065 69.495 129.065 69.495 72 70 C71.505 146.23 71.505 146.23 71 224 C68.69 222.02 66.38 220.04 64 218 C62.34332649 216.59232058 60.6777518 215.19498956 59 213.8125 C58.21625 213.15894531 57.4325 212.50539062 56.625 211.83203125 C48.73762199 206.32729868 41.47636286 206.51071173 32.08203125 206.49609375 C30.61862403 206.48643464 29.15521963 206.47634087 27.69181824 206.46583557 C24.62968241 206.4479258 21.5677997 206.44230887 18.50561523 206.4440918 C14.61307435 206.44439568 10.72218739 206.40352008 6.83003712 206.35177517 C3.8073354 206.31813768 0.78502128 206.31234257 -2.23784828 206.31392097 C-3.6709797 206.31041905 -5.10412539 206.29736778 -6.53706932 206.27392387 C-16.27109983 206.12962084 -23.87381056 207.36821324 -32 213 C-37.72430185 218.86963626 -40.19685187 224.61422915 -40.4140625 232.83203125 C-40.45273438 234.12431641 -40.49140625 235.41660156 -40.53125 236.74804688 C-40.56270014 238.10285995 -40.59394761 239.45767775 -40.625 240.8125 C-40.6632175 242.18687272 -40.7022714 243.56122244 -40.7421875 244.93554688 C-40.83635404 248.29022989 -40.921982 251.64490893 -41 255 C-44.63401577 253.28877436 -47.12637103 251.20066113 -50.0625 248.4375 C-53.77478591 244.98537429 -57.54816138 241.68074816 -61.5 238.5 C-66.25595419 234.66280969 -70.75504801 230.60614899 -75.25 226.46875 C-77.93737634 224.05621896 -80.68965444 221.7674379 -83.5 219.5 C-88.25595419 215.66280969 -92.75504801 211.60614899 -97.25 207.46875 C-99.93737634 205.05621896 -102.68965444 202.7674379 -105.5 200.5 C-109.28460334 197.44651321 -112.92207537 194.29331699 -116.5 191 C-120.12044823 187.66836245 -123.80280446 184.47321421 -127.625 181.375 C-128.52089844 180.64539063 -129.41679687 179.91578125 -130.33984375 179.1640625 C-132.11955687 177.71624889 -133.90345466 176.27356476 -135.69140625 174.8359375 C-136.92697266 173.80339844 -136.92697266 173.80339844 -138.1875 172.75 C-138.92355469 172.14671875 -139.65960938 171.5434375 -140.41796875 170.921875 C-142 169 -142 169 -142.546875 166.6171875 C-141.77870557 162.94094807 -139.63787403 160.94020808 -137.0625 158.375 C-136.04049341 157.31227078 -135.02099995 156.24711959 -134.00390625 155.1796875 C-133.49359863 154.64698242 -132.98329102 154.11427734 -132.45751953 153.56542969 C-130.35192279 151.30394119 -128.42756252 148.91382602 -126.5 146.5 C-123.30068278 142.52370574 -119.97415055 138.73331702 -116.5 135 C-112.2104224 130.38998361 -108.19589103 125.62216764 -104.24609375 120.71484375 C-101.9116941 117.89326505 -99.48009402 115.19409288 -97 112.5 C-93.70668301 108.92207537 -90.55348679 105.28460334 -87.5 101.5 C-83.66280969 96.74404581 -79.60614899 92.24495199 -75.46875 87.75 C-73.05621896 85.06262366 -70.7674379 82.31034556 -68.5 79.5 C-64.66280969 74.74404581 -60.60614899 70.24495199 -56.46875 65.75 C-54.05621896 63.06262366 -51.7674379 60.31034556 -49.5 57.5 C-45.66280969 52.74404581 -41.60614899 48.24495199 -37.46875 43.75 C-35.05621896 41.06262366 -32.7674379 38.31034556 -30.5 35.5 C-27.44651321 31.71539666 -24.29331699 28.07792463 -21 24.5 C-16.85818487 19.99858542 -12.9593002 15.35195362 -9.1171875 10.59375 C-6.16876275 6.98165769 -3.10168208 3.48066574 0 0 Z " fill="#5FB6FE" transform="translate(142,24)"/>
<path d="M0 0 C5.35103666 0.35403834 8.16115636 3.36624259 11.9375 6.8125 C13.2795076 8.00700529 14.62196554 9.20100479 15.96484375 10.39453125 C16.64015137 10.99990723 17.31545898 11.6052832 18.01123047 12.22900391 C20.96991064 14.86370388 23.98346705 17.43200452 27 20 C33.23112161 25.32905034 39.43472015 30.68939208 45.62109375 36.0703125 C47.64412063 37.82912339 49.67644164 39.57259766 51.72265625 41.3046875 C52.45355469 41.92601562 53.18445313 42.54734375 53.9375 43.1875 C54.84822266 43.95126953 54.84822266 43.95126953 55.77734375 44.73046875 C57 46 57 46 57 48 C20.57331918 64.8559599 20.57331918 64.8559599 2.88766479 72.89730835 C1.54706527 73.50690091 0.20667169 74.11694657 -1.1335144 74.72744751 C-8.55427925 78.10731957 -15.99110923 81.4447362 -23.4609375 84.71484375 C-25.49043348 85.60776865 -27.51963266 86.50136493 -29.54876709 87.39511108 C-31.4563596 88.23087994 -33.36880946 89.05470956 -35.28173828 89.87817383 C-36.41595215 90.37728271 -37.55016602 90.8763916 -38.71875 91.390625 C-39.71841797 91.82407227 -40.71808594 92.25751953 -41.74804688 92.70410156 C-44.31987264 93.85206209 -44.31987264 93.85206209 -45 97 C-43.91676991 99.78517751 -42.76011444 102.41402571 -41.46875 105.1015625 C-40.89528839 106.32545181 -40.89528839 106.32545181 -40.3102417 107.57406616 C-39.48232137 109.33818292 -38.64992382 111.10020379 -37.81359863 112.86035156 C-36.0413621 116.59026634 -34.29018223 120.32993797 -32.53741455 124.06903076 C-31.64465546 125.97261155 -30.75072585 127.8756438 -29.85565186 129.77813721 C-25.91628795 138.15373639 -22.06448962 146.56693979 -18.25 155 C-17.35456962 156.97767674 -16.45897993 158.95528127 -15.56336975 160.93287659 C-14.9679276 162.24776862 -14.372661 163.56274017 -13.77757263 164.87779236 C-11.80262464 169.23899788 -9.81511723 173.59431321 -7.82064819 177.94662476 C-6.40683887 181.03187584 -4.99568307 184.11833765 -3.58459473 187.20483398 C-2.90791742 188.68296942 -2.22995664 190.16051803 -1.55065918 191.63745117 C-0.61502132 193.67213472 0.31602932 195.70885792 1.24609375 197.74609375 C1.77904053 198.90810303 2.3119873 200.0701123 2.86108398 201.26733398 C4 204 4 204 4 206 C3.33581055 205.99887207 2.67162109 205.99774414 1.98730469 205.99658203 C-16.1060515 205.54074601 -16.1060515 205.54074601 -32 213 C-37.74523713 218.83643137 -40.19758348 224.64190821 -40.4140625 232.83203125 C-40.45273438 234.12431641 -40.49140625 235.41660156 -40.53125 236.74804688 C-40.56270014 238.10285995 -40.59394761 239.45767775 -40.625 240.8125 C-40.6632175 242.18687272 -40.7022714 243.56122244 -40.7421875 244.93554688 C-40.83635404 248.29022989 -40.921982 251.64490893 -41 255 C-44.63401577 253.28877436 -47.12637103 251.20066113 -50.0625 248.4375 C-53.77478591 244.98537429 -57.54816138 241.68074816 -61.5 238.5 C-66.25595419 234.66280969 -70.75504801 230.60614899 -75.25 226.46875 C-77.93737634 224.05621896 -80.68965444 221.7674379 -83.5 219.5 C-88.25595419 215.66280969 -92.75504801 211.60614899 -97.25 207.46875 C-99.93737634 205.05621896 -102.68965444 202.7674379 -105.5 200.5 C-109.28460334 197.44651321 -112.92207537 194.29331699 -116.5 191 C-120.12044823 187.66836245 -123.80280446 184.47321421 -127.625 181.375 C-128.52089844 180.64539063 -129.41679687 179.91578125 -130.33984375 179.1640625 C-132.11955687 177.71624889 -133.90345466 176.27356476 -135.69140625 174.8359375 C-136.92697266 173.80339844 -136.92697266 173.80339844 -138.1875 172.75 C-138.92355469 172.14671875 -139.65960938 171.5434375 -140.41796875 170.921875 C-142 169 -142 169 -142.546875 166.6171875 C-141.77870557 162.94094807 -139.63787403 160.94020808 -137.0625 158.375 C-136.04049341 157.31227078 -135.02099995 156.24711959 -134.00390625 155.1796875 C-133.49359863 154.64698242 -132.98329102 154.11427734 -132.45751953 153.56542969 C-130.35192279 151.30394119 -128.42756252 148.91382602 -126.5 146.5 C-123.30068278 142.52370574 -119.97415055 138.73331702 -116.5 135 C-112.2104224 130.38998361 -108.19589103 125.62216764 -104.24609375 120.71484375 C-101.9116941 117.89326505 -99.48009402 115.19409288 -97 112.5 C-93.70668301 108.92207537 -90.55348679 105.28460334 -87.5 101.5 C-83.66280969 96.74404581 -79.60614899 92.24495199 -75.46875 87.75 C-73.05621896 85.06262366 -70.7674379 82.31034556 -68.5 79.5 C-64.66280969 74.74404581 -60.60614899 70.24495199 -56.46875 65.75 C-54.05621896 63.06262366 -51.7674379 60.31034556 -49.5 57.5 C-45.66280969 52.74404581 -41.60614899 48.24495199 -37.46875 43.75 C-35.05621896 41.06262366 -32.7674379 38.31034556 -30.5 35.5 C-27.44651321 31.71539666 -24.29331699 28.07792463 -21 24.5 C-16.85818487 19.99858542 -12.9593002 15.35195362 -9.1171875 10.59375 C-6.16876275 6.98165769 -3.10168208 3.48066574 0 0 Z " fill="#006594" transform="translate(142,24)"/>
<path d="M0 0 C12.63184004 10.16211705 21.75203107 23.58412244 24.32470703 39.76318359 C25.3603791 51.83076583 25.17672448 63.53788909 20.32470703 74.76318359 C19.81617188 76.04128906 19.81617188 76.04128906 19.29736328 77.34521484 C13.03110173 91.50562795 1.21902835 102.2047213 -12.92529297 108.20068359 C-27.75557343 113.8026326 -46.13713131 114.19582224 -60.67529297 107.76318359 C-78.23598996 99.59487011 -88.73980254 87.50974367 -95.93310547 69.63818359 C-100.87830306 55.52880864 -99.95778108 39.06858212 -93.99560547 25.33349609 C-84.61695097 7.07564208 -70.60256972 -3.27344792 -51.67529297 -10.23681641 C-34.60960648 -14.95046692 -14.01567108 -10.34733164 0 0 Z " fill="#26C73B" transform="translate(487.67529296875,273.23681640625)"/>
<path d="M0 0 C1.13597185 -0.00694553 2.2719437 -0.01389106 3.44233894 -0.02104706 C7.25716788 -0.03937548 11.07137906 -0.02903596 14.88623047 -0.01878357 C17.61775243 -0.02364456 20.34924398 -0.03444529 23.08074951 -0.04489136 C29.73467159 -0.06653924 36.38842269 -0.06640258 43.04236841 -0.05826581 C48.44983224 -0.05196761 53.85724618 -0.05310118 59.26470947 -0.05953789 C60.03413883 -0.06043954 60.80356819 -0.0613412 61.5963136 -0.06227018 C63.15936328 -0.06412136 64.72241296 -0.06598392 66.28546262 -0.06785773 C80.94440737 -0.08443875 95.6032559 -0.07571424 110.26219487 -0.05887216 C123.67662582 -0.04417282 137.09083284 -0.05880627 150.50523496 -0.08764232 C164.27690299 -0.1170261 178.04846762 -0.12801173 191.82016563 -0.11846012 C193.37748589 -0.11743756 194.93480617 -0.11644295 196.49212646 -0.11547661 C197.6414927 -0.11476202 197.6414927 -0.11476202 198.81407845 -0.114033 C204.21546793 -0.11186763 209.61675965 -0.12167937 215.01812744 -0.13624763 C221.60007694 -0.15375237 228.18174084 -0.15368055 234.76367903 -0.13089598 C238.12251649 -0.11973648 241.48043534 -0.11932199 244.83931732 -0.13519669 C248.47897549 -0.15104083 252.11724437 -0.13625542 255.75683594 -0.11352539 C257.35239917 -0.13127898 257.35239917 -0.13127898 258.980196 -0.14939123 C263.75202226 -0.08861148 266.1212675 -0.03405322 270.0696106 2.82736301 C271.87841797 5.5146637 271.87841797 5.5146637 271.94091797 9.1396637 C270.76067615 12.88866711 270.16672611 13.58397248 266.87841797 15.5146637 C264.59727049 15.89186186 264.59727049 15.89186186 262.0401535 15.89498043 C261.06278874 15.90342037 260.08542397 15.91186031 259.0784421 15.92055601 C258.00724737 15.91454596 256.93605264 15.90853592 255.83239746 15.90234375 C254.69249092 15.90772929 253.55258437 15.91311483 252.3781352 15.91866356 C248.54413646 15.93301404 244.71047954 15.92582178 240.87646484 15.91871643 C238.13362223 15.92277143 235.39079729 15.93127791 232.64796448 15.93951416 C225.96284799 15.95672405 219.27782539 15.95753773 212.59269249 15.95230126 C207.16041301 15.94826271 201.72816133 15.94969934 196.29588318 15.95504951 C195.13693978 15.95617215 195.13693978 15.95617215 193.95458338 15.95731746 C192.38508943 15.95884891 190.81559549 15.96038725 189.24610156 15.96193243 C174.52282686 15.97566516 159.79960528 15.97021415 145.07633179 15.95874722 C131.59976116 15.94881198 118.12332775 15.96175912 104.64677829 15.98568141 C90.81526624 16.01004921 76.98381818 16.01968613 63.1522851 16.01302868 C55.38439601 16.00953155 47.61661252 16.01180108 39.84873962 16.02927971 C33.23676486 16.04397267 26.62497006 16.04467532 20.01299894 16.0272088 C16.63819449 16.01867241 13.26397727 16.01876455 9.8891468 16.03186035 C6.2339362 16.04496483 2.57961014 16.03361548 -1.07556152 16.01586914 C-2.14675625 16.02547415 -3.21795098 16.03507915 -4.32160616 16.04497522 C-11.44958613 15.97339901 -11.44958613 15.97339901 -14.77680206 13.70208836 C-16.78735545 10.4317139 -16.7245832 8.26667095 -16.12158203 4.5146637 C-11.69343084 -0.74741268 -6.35101023 -0.04920256 0 0 Z " fill="#D09746" transform="translate(156.12158203125,434.48533630371094)"/>
<path d="M0 0 C11.46680853 5.45838954 21.62658285 13.68893356 31.25 21.875 C32.20371868 22.68394085 32.20371868 22.68394085 33.17670441 23.50922394 C50.74558223 38.70679157 59.43750375 54.20279654 61.20031738 77.54855347 C61.92670585 90.8352343 61.83719678 104.08538397 61.375 117.375 C61.34088359 118.38018692 61.34088359 118.38018692 61.30607796 119.40568066 C60.69817422 136.97438864 59.57457802 154.49186141 58 172 C53.71 173.65 49.42 175.3 45 177 C45 137.73 45 98.46 45 58 C33.45 58 21.9 58 10 58 C2.34632215 52.8975481 2.34632215 52.8975481 0 48 C-0.51939002 44.29396146 -0.46631737 40.64997948 -0.390625 36.9140625 C-0.38496521 35.85714203 -0.37930542 34.80022156 -0.37347412 33.71127319 C-0.35115467 30.3487137 -0.30096481 26.98723528 -0.25 23.625 C-0.22992935 21.33985918 -0.21167957 19.0547016 -0.1953125 16.76953125 C-0.15130447 11.17932112 -0.08443626 5.58973782 0 0 Z " fill="#D2DCE4" transform="translate(376,93)"/>
<path d="M0 0 C0.64171316 -0.00623996 1.28342631 -0.01247993 1.94458532 -0.01890898 C4.0928669 -0.03485224 6.24001586 -0.02223099 8.38830566 -0.00964355 C9.92919069 -0.01506414 11.47007054 -0.02218644 13.01094055 -0.03088379 C17.19485224 -0.04912788 21.37836965 -0.04204529 25.56228828 -0.02936745 C29.93932285 -0.01924534 34.3163235 -0.02863093 38.69335938 -0.03491211 C46.04404771 -0.04219083 53.39457532 -0.03259497 60.74523926 -0.0135498 C69.24548329 0.00821943 77.74534356 0.00116821 86.24557829 -0.02085543 C93.54166052 -0.03900308 100.83762718 -0.04157088 108.13372469 -0.03110075 C112.49226453 -0.0248623 116.85062395 -0.02403977 121.20915222 -0.0372467 C125.30671351 -0.04879542 129.4037797 -0.04079781 133.50128746 -0.01766968 C135.00573085 -0.01237729 136.51021585 -0.01390547 138.01464272 -0.02272034 C140.06737315 -0.03363963 142.1185137 -0.01995958 144.17114258 0 C145.89447689 0.00226215 145.89447689 0.00226215 147.65262604 0.00457001 C151.24039936 0.62031895 152.4599785 1.58854722 154.58557129 4.50793457 C154.52608803 7.89848027 154.37537037 10.36200582 152.42036343 13.19854832 C149.71740194 15.1274974 147.59021447 14.88864324 144.29139709 14.89561462 C142.97203156 14.90551926 141.65266602 14.91542389 140.2933197 14.92562866 C138.82766631 14.92139035 137.36201382 14.91683247 135.8963623 14.9119873 C134.35562646 14.9176884 132.81489485 14.92465165 131.27416992 14.93278503 C127.08613536 14.95076089 122.89830982 14.94953976 118.71024823 14.94384265 C115.21608779 14.94075705 111.72196787 14.94683624 108.22781318 14.9528814 C99.98562225 14.96693966 91.74353494 14.96535465 83.50134277 14.95397949 C74.99374723 14.94249762 66.48646689 14.95657205 57.97891289 14.98337597 C50.67861538 15.00551651 43.37841693 15.01217406 36.07808822 15.00629956 C31.71616728 15.00292473 27.35444839 15.0053797 22.99255562 15.02255058 C18.89092446 15.03799148 14.78976099 15.03409634 10.6881485 15.01524544 C9.18208596 15.01155153 7.675989 15.01469137 6.16995811 15.02513123 C4.11500586 15.03828952 2.06161373 15.02684272 0.00672913 15.00914001 C-1.71855341 15.00882609 -1.71855341 15.00882609 -3.47869015 15.00850582 C-7.06333245 14.39729033 -8.24459782 13.37832849 -10.41442871 10.50793457 C-10.91442871 7.50793457 -10.91442871 7.50793457 -10.41442871 4.50793457 C-7.30949962 0.40239223 -5.03391412 0.00660782 0 0 Z " fill="#BEC7CF" transform="translate(251.4144287109375,240.4920654296875)"/>
<path d="M0 0 C0.64171316 -0.00623996 1.28342631 -0.01247993 1.94458532 -0.01890898 C4.0928669 -0.03485224 6.24001586 -0.02223099 8.38830566 -0.00964355 C9.92919069 -0.01506414 11.47007054 -0.02218644 13.01094055 -0.03088379 C17.19485224 -0.04912788 21.37836965 -0.04204529 25.56228828 -0.02936745 C29.93932285 -0.01924534 34.3163235 -0.02863093 38.69335938 -0.03491211 C46.04404771 -0.04219083 53.39457532 -0.03259497 60.74523926 -0.0135498 C69.24548329 0.00821943 77.74534356 0.00116821 86.24557829 -0.02085543 C93.54166052 -0.03900308 100.83762718 -0.04157088 108.13372469 -0.03110075 C112.49226453 -0.0248623 116.85062395 -0.02403977 121.20915222 -0.0372467 C125.30671351 -0.04879542 129.4037797 -0.04079781 133.50128746 -0.01766968 C135.00573085 -0.01237729 136.51021585 -0.01390547 138.01464272 -0.02272034 C140.06737315 -0.03363963 142.1185137 -0.01995958 144.17114258 0 C145.89447689 0.00226215 145.89447689 0.00226215 147.65262604 0.00457001 C151.24039936 0.62031895 152.4599785 1.58854722 154.58557129 4.50793457 C154.52608803 7.89848027 154.37537037 10.36200582 152.42036343 13.19854832 C149.71740194 15.1274974 147.59021447 14.88864324 144.29139709 14.89561462 C142.97203156 14.90551926 141.65266602 14.91542389 140.2933197 14.92562866 C138.82766631 14.92139035 137.36201382 14.91683247 135.8963623 14.9119873 C134.35562646 14.9176884 132.81489485 14.92465165 131.27416992 14.93278503 C127.08613536 14.95076089 122.89830982 14.94953976 118.71024823 14.94384265 C115.21608779 14.94075705 111.72196787 14.94683624 108.22781318 14.9528814 C99.98562225 14.96693966 91.74353494 14.96535465 83.50134277 14.95397949 C74.99374723 14.94249762 66.48646689 14.95657205 57.97891289 14.98337597 C50.67861538 15.00551651 43.37841693 15.01217406 36.07808822 15.00629956 C31.71616728 15.00292473 27.35444839 15.0053797 22.99255562 15.02255058 C18.89092446 15.03799148 14.78976099 15.03409634 10.6881485 15.01524544 C9.18208596 15.01155153 7.675989 15.01469137 6.16995811 15.02513123 C4.11500586 15.03828952 2.06161373 15.02684272 0.00672913 15.00914001 C-1.71855341 15.00882609 -1.71855341 15.00882609 -3.47869015 15.00850582 C-7.06333245 14.39729033 -8.24459782 13.37832849 -10.41442871 10.50793457 C-10.91442871 7.50793457 -10.91442871 7.50793457 -10.41442871 4.50793457 C-7.30949962 0.40239223 -5.03391412 0.00660782 0 0 Z " fill="#BEC7CF" transform="translate(251.4144287109375,205.4920654296875)"/>
<path d="M0 0 C0.64171316 -0.00623996 1.28342631 -0.01247993 1.94458532 -0.01890898 C4.0928669 -0.03485224 6.24001586 -0.02223099 8.38830566 -0.00964355 C9.92919069 -0.01506414 11.47007054 -0.02218644 13.01094055 -0.03088379 C17.19485224 -0.04912788 21.37836965 -0.04204529 25.56228828 -0.02936745 C29.93932285 -0.01924534 34.3163235 -0.02863093 38.69335938 -0.03491211 C46.04404771 -0.04219083 53.39457532 -0.03259497 60.74523926 -0.0135498 C69.24548329 0.00821943 77.74534356 0.00116821 86.24557829 -0.02085543 C93.54166052 -0.03900308 100.83762718 -0.04157088 108.13372469 -0.03110075 C112.49226453 -0.0248623 116.85062395 -0.02403977 121.20915222 -0.0372467 C125.30671351 -0.04879542 129.4037797 -0.04079781 133.50128746 -0.01766968 C135.00573085 -0.01237729 136.51021585 -0.01390547 138.01464272 -0.02272034 C140.06737315 -0.03363963 142.1185137 -0.01995958 144.17114258 0 C145.89447689 0.00226215 145.89447689 0.00226215 147.65262604 0.00457001 C151.24094838 0.62041318 152.45657737 1.59101879 154.58557129 4.50793457 C154.58557129 8.18163426 154.56469068 10.51313793 151.92160034 13.19854832 C148.86517499 14.91172964 146.70856534 14.88816547 143.20910645 14.89561462 C141.8967804 14.90551926 140.58445435 14.91542389 139.23236084 14.92562866 C137.77978422 14.92139063 136.32720851 14.91683277 134.87463379 14.9119873 C133.34360251 14.91769003 131.81257548 14.92465392 130.28155518 14.93278503 C126.12457003 14.9507412 121.96779568 14.94954364 117.81078339 14.94384265 C114.34142597 14.94075473 110.87210927 14.94683872 107.40275764 14.9528814 C99.21952052 14.96693271 91.03638777 14.96535995 82.85314941 14.95397949 C74.40744825 14.94249368 65.96206445 14.95658023 57.51640511 14.98337597 C50.26704227 15.00551605 43.01777919 15.0121743 35.76838493 15.00629956 C31.43777746 15.00292518 27.10737352 15.00537694 22.77679443 15.02255058 C18.70551752 15.03799114 14.63471178 15.03409676 10.56345367 15.01524544 C9.0686782 15.01155167 7.57386803 15.01469095 6.07912445 15.02513123 C4.04013048 15.03828654 2.00101529 15.02441945 -0.03796387 15.00914001 C-1.17947906 15.00893073 -2.32099426 15.00872145 -3.49710083 15.00850582 C-7.06866816 14.39567655 -8.2498004 13.36654719 -10.41442871 10.50793457 C-10.91442871 7.50793457 -10.91442871 7.50793457 -10.41442871 4.50793457 C-7.30949962 0.40239223 -5.03391412 0.00660782 0 0 Z " fill="#BEC7CF" transform="translate(251.4144287109375,170.4920654296875)"/>
<path d="M0 0 C0.09297796 10.12753427 0.16390546 20.25496578 0.20724869 30.38284111 C0.22805896 35.08643626 0.25625566 39.78973783 0.30175781 44.49316406 C0.34545098 49.03842144 0.36918636 53.58339772 0.37950897 58.12884903 C0.38685845 59.85668483 0.40120964 61.5845065 0.42292023 63.31222153 C0.56865019 75.39794463 -0.13756293 86.822654 -9 96 C-17.79341308 103.14254242 -25.85583814 105.48723953 -37 105.1875 C-37.96550781 105.17396484 -38.93101562 105.16042969 -39.92578125 105.14648438 C-42.28445425 105.11145458 -44.64191771 105.06234084 -47 105 C-44.99089922 103.98102395 -43.01705454 103.00676411 -40.921875 102.17578125 C-32.74639746 98.92617597 -26.24237646 93.83207961 -22 86 C-20.28914903 80.9713773 -19.71839956 76.40822509 -19.77294922 71.13696289 C-19.77265717 70.38491577 -19.77236511 69.63286865 -19.77206421 68.85803223 C-19.77344682 66.39611888 -19.78895705 63.93451609 -19.8046875 61.47265625 C-19.80842144 59.75630356 -19.81126661 58.03994873 -19.81326294 56.32359314 C-19.82086941 51.82402579 -19.84049202 47.32458922 -19.8626709 42.82507324 C-19.8831939 38.22649911 -19.89227842 33.62790368 -19.90234375 29.02929688 C-19.92374091 20.01947405 -19.95784052 11.00974793 -20 2 C-19.03578125 1.93941406 -18.0715625 1.87882812 -17.078125 1.81640625 C-15.81484375 1.73261719 -14.5515625 1.64882813 -13.25 1.5625 C-11.99703125 1.48128906 -10.7440625 1.40007812 -9.453125 1.31640625 C-6.25794727 1.02363544 -3.17641562 0 0 0 Z " fill="#E6A84E" transform="translate(467,383)"/>
<path d="M0 0 C0.95065842 -0.00571014 1.90131683 -0.01142029 2.88078308 -0.01730347 C3.92708389 -0.01842133 4.9733847 -0.01953918 6.0513916 -0.02069092 C7.15062454 -0.02565582 8.24985748 -0.03062073 9.38240051 -0.03573608 C13.03053403 -0.05038103 16.6786241 -0.05716269 20.32678223 -0.06268311 C22.85262046 -0.06843149 25.37845868 -0.07418925 27.90429688 -0.07995605 C32.52587355 -0.08912666 37.14743709 -0.09542506 41.76902056 -0.09845281 C48.57844874 -0.10293813 55.38767664 -0.12050859 62.1970439 -0.1494534 C68.08955806 -0.17363469 73.98202205 -0.18139509 79.87458801 -0.18312836 C82.38492423 -0.18616551 84.89525939 -0.19422945 87.40556335 -0.20731354 C90.90875655 -0.22427299 94.41145585 -0.22251876 97.91467285 -0.21600342 C99.48412407 -0.22982559 99.48412407 -0.22982559 101.08528137 -0.243927 C102.03593979 -0.23835785 102.98659821 -0.2327887 103.96606445 -0.22705078 C104.79492409 -0.22851734 105.62378372 -0.2299839 106.47776031 -0.2314949 C107.13950005 -0.10875576 107.80123978 0.01398338 108.48303223 0.14044189 C110.48303223 3.14044189 110.48303223 3.14044189 110.48303223 6.14044189 C54.54803223 6.63544189 54.54803223 6.63544189 -2.51696777 7.14044189 C-2.84696777 57.96044189 -3.17696777 108.78044189 -3.51696777 161.14044189 C-10.51696777 155.14044189 -10.51696777 155.14044189 -11.38947582 152.08913326 C-11.38821855 151.00238088 -11.38696127 149.91562849 -11.38566589 148.79594421 C-11.40106918 147.54121307 -11.41647247 146.28648193 -11.43234253 144.99372864 C-11.41395083 143.61611011 -11.39485382 142.23850086 -11.37512207 140.86090088 C-11.37969937 139.40015463 -11.38730069 137.9394152 -11.39768982 136.47869873 C-11.41675092 132.52172851 -11.39211167 128.56613021 -11.3584516 124.60930133 C-11.32951565 120.46499164 -11.33720082 116.32073313 -11.33992004 112.17634583 C-11.33893074 105.21826508 -11.310522 98.26071788 -11.26477051 91.30279541 C-11.21213333 83.26146434 -11.19809931 75.22079779 -11.20580357 67.17931312 C-11.21272155 59.43822213 -11.19685354 51.6973557 -11.1690464 43.95631599 C-11.15734957 40.66414667 -11.15279939 37.37208223 -11.15384483 34.07989311 C-11.15371887 30.20301319 -11.13336885 26.32674348 -11.09745216 22.4500351 C-11.08737954 21.0282743 -11.08405186 19.60644715 -11.08799744 18.18465614 C-11.09221039 16.24237465 -11.06931349 14.30009093 -11.04508972 12.35795593 C-11.03968516 11.27158057 -11.03428061 10.18520521 -11.02871227 9.06590939 C-10.39508431 5.44367603 -9.04209487 3.76444159 -6.51696777 1.14044189 C-4.13133685 -0.05237357 -2.66311209 0.00955754 0 0 Z " fill="#5AA7E7" transform="translate(216.5169677734375,86.85955810546875)"/>
<path d="M0 0 C1.25 2.0625 1.25 2.0625 2 4 C-34.42668082 20.8559599 -34.42668082 20.8559599 -52.11233521 28.89730835 C-53.45293473 29.50690091 -54.79332831 30.11694657 -56.1335144 30.72744751 C-63.55427925 34.10731957 -70.99110923 37.4447362 -78.4609375 40.71484375 C-80.49043348 41.60776865 -82.51963266 42.50136493 -84.54876709 43.39511108 C-86.4563596 44.23087994 -88.36880946 45.05470956 -90.28173828 45.87817383 C-91.41595215 46.37728271 -92.55016602 46.8763916 -93.71875 47.390625 C-95.21825195 48.0407959 -95.21825195 48.0407959 -96.74804688 48.70410156 C-99.31987264 49.85206209 -99.31987264 49.85206209 -100 53 C-98.91676991 55.78517751 -97.76011444 58.41402571 -96.46875 61.1015625 C-96.08644226 61.91748871 -95.70413452 62.73341492 -95.3102417 63.57406616 C-94.48232137 65.33818292 -93.64992382 67.10020379 -92.81359863 68.86035156 C-91.0413621 72.59026634 -89.29018223 76.32993797 -87.53741455 80.06903076 C-86.64465546 81.97261155 -85.75072585 83.8756438 -84.85565186 85.77813721 C-80.91628795 94.15373639 -77.06448962 102.56693979 -73.25 111 C-72.35456962 112.97767674 -71.45897993 114.95528127 -70.56336975 116.93287659 C-69.9679276 118.24776862 -69.372661 119.56274017 -68.77757263 120.87779236 C-66.80262464 125.23899788 -64.81511723 129.59431321 -62.82064819 133.94662476 C-61.40683887 137.03187584 -59.99568307 140.11833765 -58.58459473 143.20483398 C-57.90791742 144.68296942 -57.22995664 146.16051803 -56.55065918 147.63745117 C-55.61502132 149.67213472 -54.68397068 151.70885792 -53.75390625 153.74609375 C-53.22095947 154.90810303 -52.6880127 156.0701123 -52.13891602 157.26733398 C-51 160 -51 160 -51 162 C-53.31 162 -55.62 162 -58 162 C-66.22107173 144.67855931 -74.25825931 127.29248369 -81.99276733 109.74807739 C-87.55771196 97.13441926 -93.31866581 84.62327407 -99.21679688 72.16210938 C-99.51643845 71.52847977 -99.81608002 70.89485016 -100.12480164 70.24201965 C-100.92696111 68.54750402 -101.73156811 66.8541476 -102.53637695 65.16088867 C-107.921745 53.53046998 -107.921745 53.53046998 -107 48 C-102.8860164 44.0211001 -98.67666166 41.62242426 -93.48046875 39.3203125 C-92.39598701 38.82610558 -92.39598701 38.82610558 -91.28959656 38.32191467 C-88.92614677 37.24738513 -86.55697685 36.18616418 -84.1875 35.125 C-82.52516095 34.37236682 -80.86321959 33.6188547 -79.20166016 32.86450195 C-75.79626875 31.32003494 -72.3886221 29.78071803 -68.97900391 28.24560547 C-64.36880369 26.1688053 -59.76681364 24.07446204 -55.16796875 21.97265625 C-49.0706945 19.18671638 -42.96725664 16.41483136 -36.85824585 13.65472412 C-32.91104009 11.86993602 -28.97087348 10.07059183 -25.03540039 8.26008606 C-23.12526068 7.38312817 -21.21283572 6.51140168 -19.29931641 5.6418457 C-16.95248967 4.57503417 -14.6094635 3.49980771 -12.27099609 2.41479492 C-11.23668457 1.9479126 -10.20237305 1.48103027 -9.13671875 1 C-8.23655029 0.5875 -7.33638184 0.175 -6.40893555 -0.25 C-3.71238656 -1.08954581 -2.53949367 -1.23176956 0 0 Z " fill="#015D87" transform="translate(197,68)"/>
<path d="M0 0 C6.43702087 5.30704963 12.29723184 11.15122752 18.18359375 17.05078125 C19.24961513 18.11612798 20.31578483 19.18132632 21.38209534 20.24638367 C23.60165311 22.46447586 25.81941354 24.68434512 28.03588867 26.90551758 C30.88294135 29.75830884 33.73451666 32.6065308 36.58741665 35.45347309 C38.78271246 37.64516796 40.97563668 39.83922321 43.16783333 42.03401756 C44.21932563 43.08617827 45.27156493 44.13759299 46.32455254 45.18825722 C47.78707209 46.64825343 49.24637562 48.11138789 50.70483398 49.57543945 C51.53643539 50.40783646 52.3680368 51.24023346 53.22483826 52.09785461 C55 54 55 54 55 55 C48.27413135 55.12699773 41.54857299 55.21443406 34.82177734 55.2746582 C32.53455043 55.29976942 30.2474035 55.33386516 27.96044922 55.37719727 C24.66874435 55.43799581 21.3781023 55.4662444 18.0859375 55.48828125 C16.55747696 55.52699089 16.55747696 55.52699089 14.99813843 55.56648254 C7.05167234 55.56960684 7.05167234 55.56960684 3.36962891 52.59448242 C0.2859344 49.21817689 -0.12514213 47.80429499 -0.11352539 43.36669922 C-0.11344986 42.40585419 -0.11337433 41.44500916 -0.11329651 40.45504761 C-0.10813522 39.41542877 -0.10297394 38.37580994 -0.09765625 37.3046875 C-0.0962413 36.24210724 -0.09482635 35.17952698 -0.09336853 34.08474731 C-0.08775834 30.68146991 -0.07520409 27.27825762 -0.0625 23.875 C-0.05748631 21.57161553 -0.05292318 19.26823003 -0.04882812 16.96484375 C-0.0377856 11.30987351 -0.02103752 5.65494141 0 0 Z " fill="#BEC7CF" transform="translate(377,95)"/>
<path d="M0 0 C0.99062943 -0.00540298 1.98125885 -0.01080597 3.00190735 -0.01637268 C6.27753541 -0.02888378 9.55228872 -0.01235376 12.82788086 0.00561523 C15.10184271 0.00546031 17.37580484 0.00397251 19.64976501 0.00120544 C24.41539176 -0.00017958 29.18071793 0.01239814 33.94628906 0.03515625 C40.06222452 0.06355701 46.17766099 0.06080042 52.29363346 0.04806614 C56.98872661 0.04111986 61.68370391 0.04888599 66.37878227 0.06132317 C68.63428745 0.06584674 70.88980503 0.06616659 73.14531136 0.06225777 C76.29374938 0.05935549 79.44149331 0.07580529 82.58984375 0.09765625 C83.99490173 0.09090378 83.99490173 0.09090378 85.42834473 0.08401489 C86.71322533 0.09887184 86.71322533 0.09887184 88.02406311 0.11402893 C88.76828553 0.11645883 89.51250795 0.11888872 90.27928257 0.12139225 C92.81373398 0.61545833 93.69586344 1.45022863 95.23022461 3.50170898 C95.70292508 7.21578414 95.87911691 9.5032462 93.8067627 12.6920166 C89.88568217 15.44608012 86.25273103 15.06034865 81.56811523 15.01928711 C80.58884567 15.02629639 79.60957611 15.03330566 78.60063171 15.04052734 C75.36229125 15.05813847 72.12482403 15.04647314 68.88647461 15.03295898 C66.63732739 15.03565299 64.38818131 15.03953465 62.13903809 15.04455566 C57.42469192 15.05045496 52.71064884 15.04187359 47.99633789 15.02319336 C41.94991175 15.00040392 35.90419579 15.01352464 29.85779572 15.03748322 C25.21326332 15.05192934 20.56889962 15.04734057 15.92436218 15.03697205 C13.69479794 15.0343015 11.46521843 15.037586 9.235672 15.04689026 C6.12081262 15.057036 3.00710729 15.04158159 -0.10766602 15.01928711 C-1.49330498 15.0314325 -1.49330498 15.0314325 -2.90693665 15.04382324 C-9.12899803 14.961214 -9.12899803 14.961214 -12.34240723 12.65686035 C-14.30186438 9.69831968 -14.3496771 7.98111923 -13.76977539 4.50170898 C-10.30320543 -0.75960019 -5.71141898 -0.05907664 0 0 Z " fill="#BEC7CF" transform="translate(254.769775390625,135.498291015625)"/>
<path d="M0 0 C2 1.0625 2 1.0625 3 3 C3.40722882 7.04362834 3.509949 9.23759179 1.21810913 12.66404724 C0.38349152 13.5012178 -0.4511261 14.33838837 -1.31103516 15.20092773 C-1.76956879 15.67012131 -2.22810242 16.13931488 -2.70053101 16.62272644 C-4.21312035 18.16091976 -5.74961402 19.67231806 -7.2890625 21.18359375 C-8.35195824 22.24866668 -9.41374063 23.31485173 -10.47445679 24.38209534 C-12.69800756 26.6114447 -14.93342926 28.82793602 -17.17822266 31.03588867 C-20.05216247 33.86432189 -22.89608169 36.7208651 -25.73194313 39.58741665 C-27.91886228 41.79214573 -30.1200928 43.98211719 -32.32600021 46.16783333 C-33.38040547 47.21573057 -34.43053073 48.26795293 -35.47621536 49.32455254 C-36.94090239 50.79979241 -38.42353874 52.25425242 -39.91259766 53.70483398 C-40.75198883 54.53643539 -41.59138 55.3680368 -42.45620728 56.22483826 C-45.5650961 58.39434698 -47.28382392 58.44290773 -51 58 C-52.84375 56.9609375 -52.84375 56.9609375 -54.5 55.375 C-55.16128906 54.74980469 -55.82257813 54.12460937 -56.50390625 53.48046875 C-57.32761719 52.66191406 -58.15132813 51.84335937 -59 51 C-60.19657445 49.82938606 -61.39319264 48.65881683 -62.58984375 47.48828125 C-65.10945045 45.00523707 -67.62483146 42.51824528 -70.12109375 40.01171875 C-70.6514624 39.48022217 -71.18183105 38.94872559 -71.72827148 38.40112305 C-73.86242251 36.04982861 -74.01607243 34.8232033 -74.3125 31.5625 C-74 28 -74 28 -72.375 26.0625 C-69.10439159 24.59933308 -67.56961145 24.31353626 -64 25 C-61.04260584 27.04186684 -58.54387596 29.47077208 -56 32 C-55.31808594 32.66773438 -54.63617188 33.33546875 -53.93359375 34.0234375 C-52.27288387 35.66737253 -50.62923069 37.3249472 -49 39 C-45.77562399 37.58870215 -43.70192945 35.91303404 -41.27636719 33.37646484 C-40.56172302 32.63584808 -39.84707886 31.89523132 -39.11077881 31.13217163 C-37.96539642 29.93366074 -37.96539642 29.93366074 -36.796875 28.7109375 C-35.16106957 27.03036053 -33.52432127 25.35070088 -31.88671875 23.671875 C-29.31207678 21.0229976 -26.74406473 18.36878944 -24.19189453 15.69824219 C-21.72423756 13.12159902 -19.23190709 10.57108866 -16.734375 8.0234375 C-15.97888367 7.22038177 -15.22339233 6.41732605 -14.44500732 5.5899353 C-9.58428877 0.68203249 -6.95774618 -1.10393708 0 0 Z " fill="#E6F5FB" transform="translate(486,295)"/>
<path d="M0 0 C17.11911058 -0.74550965 32.58189386 3.63187956 45.4375 15.3125 C56.96779829 26.28551617 64.64141227 40.16887108 65.3359375 56.234375 C65.50871532 66.86832465 65.27253963 76.11534561 61 86 C60.66097656 86.85207031 60.32195312 87.70414062 59.97265625 88.58203125 C53.7063947 102.74244435 41.89432132 113.4415377 27.75 119.4375 C26.17780714 119.99105344 24.5944184 120.5141587 23 121 C22.27554687 121.22300781 21.55109375 121.44601562 20.8046875 121.67578125 C14.57442156 123.31708787 8.40440255 123.19505795 2 123 C2 122.67 2 122.34 2 122 C2.95519531 121.78085937 3.91039062 121.56171875 4.89453125 121.3359375 C21.95423805 117.23549375 35.16232368 108.89489612 45 94 C50.96154606 83.8637473 53.57456849 74.04995818 53.5 62.3125 C53.49141968 60.73529175 53.49141968 60.73529175 53.48266602 59.1262207 C53.17583487 45.66594133 49.0414785 34.84460825 41 24 C40.50113281 23.29488281 40.00226563 22.58976562 39.48828125 21.86328125 C30.1214245 9.85388557 14.62407664 3.36474431 0 1 C0 0.67 0 0.34 0 0 Z " fill="#21B435" transform="translate(447,262)"/>
<path d="M0 0 C0.72407043 -0.00700928 1.44814087 -0.01401855 2.19415283 -0.02124023 C4.58368476 -0.03882113 6.97202864 -0.02719697 9.36157227 -0.01367188 C11.02539802 -0.01636708 12.68922224 -0.02024974 14.3530426 -0.02526855 C17.83919275 -0.03116394 21.32493272 -0.02260076 24.81103516 -0.00390625 C29.27459397 0.01886597 33.7371898 0.00577203 38.20071316 -0.01819611 C41.63661418 -0.03266835 45.07228791 -0.02804133 48.50819588 -0.01768494 C50.15359677 -0.01502065 51.79901845 -0.01827693 53.44439507 -0.02760315 C55.74733783 -0.03779075 58.04873456 -0.02223843 60.3515625 0 C62.3153611 0.00477356 62.3153611 0.00477356 64.3188324 0.00964355 C68.2967331 0.60015269 69.96850917 1.64687386 72.74047852 4.51757812 C73.36547852 7.45507812 73.36547852 7.45507812 72.74047852 10.51757812 C70.09879844 13.87923285 68.61810005 15.35432082 64.36352539 16.14576721 C63.07510742 16.14672897 61.78668945 16.14769073 60.45922852 16.14868164 C59.38753418 16.1594146 59.38753418 16.1594146 58.29418945 16.17036438 C55.94229369 16.18721593 53.59231387 16.16787248 51.24047852 16.14648438 C49.60050296 16.14731341 47.96052748 16.14977412 46.32055664 16.15379333 C42.8873588 16.15664888 39.45481423 16.14197476 36.02172852 16.11450195 C31.62654179 16.08041891 27.23252291 16.08643931 22.83728027 16.10516453 C19.45196849 16.11574587 16.06692727 16.10678654 12.68164062 16.09177971 C11.06136886 16.08660571 9.44106874 16.08707021 7.82080078 16.09332466 C5.55382789 16.09879089 3.28851239 16.0783601 1.02172852 16.05102539 C-0.26668945 16.04482681 -1.55510742 16.03862823 -2.88256836 16.03224182 C-6.83786294 15.42943614 -8.51882196 14.39706175 -11.25952148 11.51757812 C-11.82202148 8.01757812 -11.82202148 8.01757812 -11.25952148 4.51757812 C-8.05073699 0.08129989 -5.29457843 0.01287777 0 0 Z " fill="#D09746" transform="translate(151.259521484375,385.482421875)"/>
<path d="M0 0 C8.56292068 -0.11634546 17.12550583 -0.20494177 25.68902397 -0.25906086 C29.66634101 -0.28504818 33.64311348 -0.32024366 37.62011719 -0.37719727 C41.46514284 -0.4319102 45.30964793 -0.46150205 49.15503311 -0.47438622 C50.61496286 -0.48355636 52.07486723 -0.50146227 53.5345726 -0.52865028 C65.70481808 -0.7461151 73.8798777 1.42021111 82.828125 10.015625 C83.56993011 10.72081268 83.56993011 10.72081268 84.32672119 11.44024658 C85.89948453 12.94556077 87.45194323 14.46931273 89 16 C89.78129272 16.76872437 89.78129272 16.76872437 90.57836914 17.55297852 C94.33209515 21.25590829 98.04540199 24.99800841 101.75 28.75 C108.31381629 35.39667781 114.86785286 41.95412041 122 48 C123.375 49.25 124.75 50.5 126.125 51.75 C129.25495928 54.50263217 132.17150995 56.37289173 136 58 C136 58.33 136 58.66 136 59 C123.79463911 59.59249325 115.73129557 59.97161908 106.25048828 51.56079102 C105.20874764 50.6070697 104.16967171 49.65043226 103.1328125 48.69140625 C102.56806717 48.1694014 102.00332184 47.64739655 101.42146301 47.10957336 C94.66358083 40.81633946 88.17922793 34.25284817 81.6875 27.6875 C66.37804443 10.01910786 66.37804443 10.01910786 45.9777832 1.79467773 C44.44653557 1.7647599 44.44653557 1.7647599 42.88435364 1.73423767 C41.78427475 1.71752518 40.68419586 1.70081268 39.55078125 1.68359375 C37.85915108 1.6524221 37.85915108 1.6524221 36.13334656 1.62062073 C32.5264604 1.55517153 28.91950071 1.49626156 25.3125 1.4375 C22.86913298 1.39431039 20.42577344 1.35069596 17.98242188 1.30664062 C11.98835926 1.19949484 5.99422329 1.09771971 0 1 C0 0.67 0 0.34 0 0 Z " fill="#E4A751" transform="translate(122,230)"/>
</svg>
