<?xml version="1.0" encoding="UTF-8"?>
<svg id="Layer_1" data-name="Layer 1" xmlns="http://www.w3.org/2000/svg" viewBox="0 0 215 55">
  <defs>
    <style>
      .cls-1 {
        fill: #ffcb05;
      }

      .cls-2 {
        fill: #fff;
      }
    </style>
  </defs>
  <rect class="cls-2" width="215" height="55"/>
  <g>
    <rect class="cls-1" x="22.27" y="37.18" width="168.06" height="17.11"/>
    <path d="M30.02,3.1c.14-.63-.16-1.8.54-2.32,1.4-1.02,2.04,2.52,2.26,3.35s.73,2.59.76,3.35c.02.57-.28,1.26-.32,1.82-.05.8,1.08,3.49,1.46,4.36.22.51.53.98.71,1.51.39,0,1.2-.39,1.28-.8.14-.74-.19-1.09-.35-1.69-.64-2.4.19-3.9,1.97-5.43,2.12-1.81,5.71-1.73,8.07-.39,1.14.65.95.95,1.61,1.74.59.71,1.24,0,2,.16,1.2.24,1.78,1.67,1.59,2.79-.16.94-1.39,1.56-1.38,2.51,0,.48.43.63.6,1.02.27.63.22,1.6-.22,2.15-.2.26-.55.34-.75.54-.44.45-.56,1.27-.47,1.87.06.17,2.37,1.27,2.75,1.46,1.67.82,3.82,1.62,5.37,2.52,1.06.61,1.4,1.41,1.47,2.61-.32,3.89-.69,7.81-1.08,11.65-.02.24-.12.49-.2.71l4.11-.32,1.08,8.96-9.51,1.51c.39.67.3,1.53-.59,1.62l-9.35-2.54c-.12-.08-.14-.22-.2-.34-.48-1.03-.65-2.62-1.13-3.62-.23-.47-.81-.53-1.1-.08-.21.34-.27,1.72-.56,1.82l-11.53,1.18c-.56-.25-.58-1.11,0-1.35l6.08-1.61-.24-1.65c-1.58-.37-3.28-.73-4.8-1.31-.31-.12-1.36-.47-1.41-.81l1.67-10.27c-.07-3.3-.58-6.83-1.23-10.08-.54-2.67-1.36-5.3-1.98-7.95l.03-.14c.15-.14.47-.25.55-.44.14-.32-.76-1.51-.87-2.04-.07-.35.04-1.15,0-1.2-.05-.08-.32-.18-.44-.31-.84-.99-.92-3,.71-3.02-.43.47-.09,2.36.7,2.16.2-.05.12-.17.09-.29-.09-.35-.6-1.77-.55-2.01.06-.3.69-.45.95-.39-.26.52-.1,2.06.51,2.24.27.08.8,0,.77-.34-.02-.2-.39-1.01-.47-1.36-.08-.32.09-.72-.26-.82.37-.39.79-.58,1.3-.7-.06.25-.38.53-.4,1.05-.02.48.42,2.13,1.09,1.98.31-.4-.1-.96-.15-1.47-.05-.53.04-1.13,0-1.67-.19-.01-.36.06-.54.11ZM32.29,3.85c-.13-.51-.43-2.63-.86-2.86-.4-.21-.56.04-.55.43,0,.36.27,2.05.51,2.2.08.04.87.26.9.23ZM32.36,4.65c-.13-.13-.48-.38-.66-.37-.82.28-.18,1.37.26,1.79-.75.3-1.25.77-.89,1.64.06.16,1.18.97.51,1.11-.46.09-1.54-1.87-1.74-2.26-.57.43-1.9.17-1.95,1.03-.08,1.19.6,2.61,1.99,2.01.17-.07.31-.31.42-.33.13-.03.34.17.53.19,1.71.2,2.63-1.28,2.42-2.85-.06-.4-.62-1.68-.89-1.97ZM48.36,20.44c.45-.49.2-2.9.25-3.69.06-1.09.34-2.38.34-3.45,0-.48-.14-1.32-.63-1.54-.22-.1-1.57-.37-1.81-.36-.61.03-.93.62-1.44.84-.2.09-.3.21-.45-.02.22-.43.72-1.24,1.19-1.4.63-.21,1.84.34,1.84-.44,0-1.25-2.28-.57-2.87-.58-.36,0-.68-.24-.97-.22-.3.02-.62.32-1.09.33-.54.01-1.14-.42-1.56-.06-.71.61.71,1.34,1.08,1.83.99,1.33.3,2.27.36,3.58.03.86,1.15.8,1.66.37l.25.16c.15.52-.91.81-.4,1.31.42.42,1.83-.28,2.18-.63s.26-1.01.93-.69c.72.35-.37.8-.59,1.03-1.05,1.12-.95,2.71-3.04,2.8-1.89.08-2.25-1.1-3.19-2.32-.31-.4-.94-.68-.86-1.24.52-.07.84.49,1.26.74.37.21,1.37.6,1.66.16.28-.41-.27-.62-.33-.95-.2-1.05.3-2.53-.24-3.54-.34-.65-.93-1.07-1.68-.75-.3.13-.6.94-.99.67-.51-.35,1.13-1.96.24-2.24-.8-.26-1.43,1-1.44,1.66-.02,1.15.34,2.6.34,3.77-.01,1.79-1.22,3.8.93,5,.59.33,3,1.08,3.65,1.11.72.03,4.18-.74,4.96-.99.15-.05.36-.12.46-.24ZM45.04,17.67h-3.19l-.17.27c.35,1.14,2.02,1.52,2.93.76.29-.24.59-.65.43-1.03ZM42.22,22.32c-1.21-.17-2.2-1.13-3.43-1.08-.56.76,1.18,3.32,1.79,3.42s1.95-1.87,1.64-2.34ZM47.72,21.25l-3.38.94c-.45.62,1.42,2.69,2.15,2.58.61-.1,1.95-2.56,1.92-3.16-.02-.46-.3-.41-.69-.35ZM53.23,33.77c-.54.05-1.12.66-1.35,1.14-.76,1.62.29,3.04.99.88,1.36-.65.59,2.05,1.21,2.26.46.15.87-.37,1.18-.63.24-.04.3.66,1.22.04.57-.39,1.24-1.55.65-2.15-.06-.07-1.45-.75-1.65-.83-.34-.14-2.02-.73-2.27-.71ZM61.03,38.61l-8.2.64.87,7.12,8.1-1.19-.77-6.57ZM51.96,39.36h-1.95l.75,6.83c.6.39,1.39.35,2.06.18l-.87-7.01ZM36.94,41.73h-.86s.11,1.4.11,1.4l.86-.11-.11-1.3ZM49.9,46.27c.09-.12-.44-2.92-.53-3.08-.52-.92-1.17-.02-1.83.07l.04,1.61,2.32,1.4Z"/>
    <polygon points="170.56 13.03 177.31 30.73 184.01 13.03 188.01 13.03 188.01 33.75 185.42 33.75 185.42 16.27 178.83 33.7 175.79 33.68 169.32 16.37 169.32 33.75 166.72 33.75 166.72 13.03 170.56 13.03"/>
    <path d="M103.51,13.03c3.35.16,6.88-.21,10.21,0,1.88.12,4.04.5,4.75,2.48.56,1.56.62,6.28-.14,7.73-.39.75-.91.94-1.53,1.44.98.22,1.57,1.1,1.8,2.03.15.59.22,1.51.25,2.12.08,1.62-.07,3.29,0,4.91h-2.7v-5.34c0-.17-.18-.94-.25-1.16-.17-.55-.42-.87-.94-1.11-.1-.05-.77-.27-.81-.27h-8.05v7.88h-2.59V13.03ZM106.1,23.28h7.83c.13,0,1.08-.3,1.24-.38.41-.21.67-.59.81-1.03.29-.9.28-4.33-.11-5.18-.1-.22-.4-.57-.6-.69-.15-.09-1.1-.39-1.23-.39h-7.94v7.66Z"/>
    <path d="M126.96,13.03c3.32.14,6.8-.19,10.1,0,2.63.15,4.82.73,5.12,3.74.12,1.24.16,4.94-.23,6.01-.35.98-.89,1.36-1.7,1.91.93.25,1.52,1.07,1.76,1.97.04.14.18.72.18.79v6.31h-2.59v-5.02c0-.14-.12-.84-.16-1.03-.12-.59-.34-1.18-.89-1.49-.12-.07-.88-.34-.96-.34h-8.05v7.88h-2.59V13.03ZM129.55,23.28h7.83c.12,0,1.09-.3,1.24-.38.73-.38.92-1.4.98-2.15.08-1.12.18-4.11-.88-4.74-.14-.09-1.11-.39-1.23-.39h-7.94v7.66Z"/>
    <path d="M78.87,19.29c-.09-1.77.32-3.23-1.81-3.64-1.46-.28-6.06-.31-7.37.24s-1.3,2.51-1.19,3.77c.1,1.11.5,1.71,1.61,1.95,2.69.58,8.83-.06,10.59,2.05,1.6,1.91,1.48,7.68-.87,9.16-1.96,1.23-7.09,1-9.44.82-2.59-.2-4.81-1.77-4.81-4.58v-2.43h2.59v2.32c0,.32.44,1.4.68,1.64.52.52,1.78.65,2.5.69,1.51.09,5.58.19,6.79-.46s1.02-2.74.94-3.92c-.14-2.05-.78-2.11-2.65-2.31-2.55-.28-7.92.07-9.62-1.94-1.34-1.59-1.26-5.91-.21-7.65,1.13-1.86,2.74-1.73,4.64-1.84,2.52-.15,7.54-.54,9.3,1.62.36.44.92,1.67.92,2.21v2.16l-.16.16h-2.43Z"/>
    <polygon points="87.08 21.77 98.21 21.77 98.21 13.03 100.64 13.03 100.8 13.19 100.8 33.75 98.21 33.75 98.21 24.36 87.08 24.36 87.08 33.75 84.49 33.75 84.49 13.03 86.92 13.03 87.08 13.19 87.08 21.77"/>
    <path d="M145,33.75l7.47-20.55c.08-.17.21-.16.36-.18,1.1-.13,2.43.11,3.56,0l7.52,20.73h-2.54l-1.96-5.19-9.81.02-1.91,5.17h-2.7ZM150.41,26.19h8.1l-3.94-10.58-.39.07-3.77,10.51Z"/>
    <rect x="121.55" y="13.03" width="2.59" height="20.72"/>
    <path d="M161.21,44.16c-.19-1.06-3.05-1.02-3.58-.55-.3.27-.12.71-.38.8-1.01.08-1.35.11-.96-.95.13-.34.3-.6.62-.78.96-.53,4.25-.57,5.05.18.43.39.5,1.38.53,1.95.12,1.77-.09,3.66,0,5.45h-1.19s0-.65,0-.65c-.91.99-4.05,1.04-4.91.1-.78-.84-.76-3.55.4-4.12.72-.35,2.64-.33,3.43-.15.36.09.67.29.97.49-.07-.54.09-1.27,0-1.78ZM158.38,46.4c-.42.05-.97.14-1.12.61-.13.41-.11,1.53.22,1.85.53.51,3.19.45,3.63-.16.14-.2.15-1.25.1-1.52-.17-.89-2.15-.87-2.83-.78Z"/>
    <path d="M188.01,46.59l-5.51.11c-.06,1.7-.01,2.54,1.89,2.6,1.02.03,2.46-.07,2.33-1.41h1.3c-.1,2.41-2.18,2.65-4.16,2.48-.97-.08-1.88-.32-2.27-1.29s-.46-4.74.07-5.65c.8-1.38,3.8-1.36,5.09-.8.55.23.91.73,1.08,1.29.03.11.18.74.18.79v1.89ZM186.82,45.51c.1-2.05-1.02-2.19-2.76-2.05-1.44.11-1.47.77-1.56,2.05h4.32Z"/>
    <polygon points="142.41 39.25 142.41 40.44 136.79 40.44 136.79 44 142.19 44 142.19 45.19 136.79 45.19 136.79 50.26 135.6 50.26 135.6 39.25 142.41 39.25"/>
    <path d="M179.58,45.08h-1.18c.03-1.69-1.44-1.74-2.76-1.62-.98.08-1.37.33-1.46,1.35-.07.79-.08,2.46,0,3.24.11.95.56,1.17,1.46,1.24,1.56.14,2.92-.02,2.76-1.95h1.19c.28,2.78-1.77,3.2-4.06,3.03-1.12-.08-2.07-.42-2.42-1.58s-.38-4.19.11-5.27c.63-1.37,3.1-1.38,4.35-1.13,1.42.28,2.11,1.24,2.01,2.69Z"/>
    <path d="M154.08,50.26h-1.19v-5.45c0-.05-.2-.75-.24-.84-.39-.81-2.59-.63-3.18-.04-.2.2-.58,1.05-.58,1.31v5.02h-1.19v-7.72c.25-.27.75-.18,1.09-.11l.15.82c.78-1.19,3.63-1.29,4.53-.32.27.29.6,1.18.6,1.56v5.77Z"/>
    <path d="M171.05,50.26h-1.19v-5.13c0-.05-.11-.75-.13-.84-.27-1.13-2.4-1.03-3.15-.49-.3.21-.72,1.01-.72,1.33v5.13h-1.19v-7.88h1.08s0,.97,0,.97c.93-1.38,4.03-1.53,4.88-.08.17.29.41,1.12.41,1.43v5.56Z"/>
    <rect x="144.25" y="42.37" width="1.19" height="7.88"/>
    <rect x="144.24" y="39.25" width="1.19" height="1.3"/>
    <path class="cls-2" d="M48.36,20.44c-.11.12-.31.19-.46.24-.78.25-4.25,1.02-4.96.99-.66-.02-3.06-.78-3.65-1.11-2.15-1.2-.94-3.2-.93-5,0-1.17-.36-2.62-.34-3.77.01-.66.65-1.92,1.44-1.66.88.29-.75,1.89-.24,2.24.39.27.69-.54.99-.67.75-.33,1.34.1,1.68.75.54,1.01.03,2.49.24,3.54.06.33.61.54.33.95-.29.44-1.3.05-1.66-.16-.42-.24-.74-.8-1.26-.74-.08.57.55.84.86,1.24.94,1.22,1.29,2.4,3.19,2.32,2.09-.09,1.98-1.68,3.04-2.8.22-.23,1.3-.68.59-1.03-.66-.32-.58.35-.93.69s-1.76,1.05-2.18.63c-.51-.5.55-.8.4-1.31l-.25-.16c-.51.43-1.63.49-1.66-.37-.05-1.31.63-2.25-.36-3.58-.37-.49-1.78-1.22-1.08-1.83.42-.36,1.03.07,1.56.06.46-.01.79-.31,1.09-.33.28-.02.6.21.97.22.6.01,2.88-.66,2.87.58,0,.77-1.21.22-1.84.44-.47.16-.97.96-1.19,1.4.15.24.25.11.45.02.51-.22.83-.81,1.44-.84.24-.01,1.59.26,1.81.36.49.22.63,1.05.63,1.54,0,1.07-.28,2.36-.34,3.45-.04.8.21,3.21-.25,3.69ZM45.61,13.27c-.55.55.32,1.64.95,1,.55-.56-.31-1.64-.95-1ZM41.21,13.94c0-.36-.29-.65-.66-.65s-.66.29-.66.65.29.65.66.65.66-.29.66-.65Z"/>
    <polygon class="cls-2" points="61.03 38.61 61.79 45.18 53.69 46.37 52.82 39.25 61.03 38.61"/>
    <path class="cls-2" d="M32.36,4.65c.28.29.84,1.56.89,1.97.22,1.57-.71,3.05-2.42,2.85-.19-.02-.4-.22-.53-.19-.11.02-.26.26-.42.33-1.38.61-2.07-.81-1.99-2.01.06-.86,1.39-.6,1.95-1.03.19.38,1.28,2.35,1.74,2.26.67-.14-.45-.95-.51-1.11-.36-.87.14-1.34.89-1.64-.44-.41-1.08-1.5-.26-1.79.18-.01.53.23.66.37Z"/>
    <path class="cls-2" d="M53.23,33.77c.25-.02,1.93.57,2.27.71.2.09,1.59.77,1.65.83.58.6-.08,1.76-.65,2.15-.92.62-.98-.08-1.22-.04-.31.26-.73.78-1.18.63-.63-.21.15-2.9-1.21-2.26-.71,2.16-1.76.74-.99-.88.22-.47.8-1.09,1.35-1.14Z"/>
    <path class="cls-2" d="M51.96,39.36l.87,7.01c-.67.17-1.46.22-2.06-.18l-.75-6.83h1.95Z"/>
    <path class="cls-2" d="M47.72,21.25c.38-.06.67-.11.69.35.02.6-1.32,3.07-1.92,3.16-.73.11-2.59-1.96-2.15-2.58l3.38-.94Z"/>
    <path class="cls-2" d="M42.22,22.32c.31.48-1,2.44-1.64,2.34s-2.35-2.66-1.79-3.42c1.23-.05,2.21.91,3.43,1.08Z"/>
    <path class="cls-2" d="M49.9,46.27l-2.32-1.4-.04-1.61c.66-.09,1.31-.99,1.83-.07.09.16.63,2.96.53,3.08Z"/>
    <path class="cls-2" d="M45.04,17.67c.16.38-.14.79-.43,1.03-.91.76-2.58.38-2.93-.76l.17-.27h3.19Z"/>
    <path class="cls-2" d="M32.29,3.85s-.83-.19-.9-.23c-.24-.14-.51-1.84-.51-2.2,0-.39.15-.64.55-.43.44.23.73,2.35.86,2.86Z"/>
    <polygon class="cls-2" points="36.94 41.73 37.05 43.03 36.18 43.14 36.07 41.73 36.94 41.73"/>
    <circle cx="40.56" cy="13.94" r=".66"/>
    <path d="M45.61,13.27c.64-.64,1.5.44.95,1-.63.63-1.5-.45-.95-1Z"/>
  </g>
</svg>