<?xml version="1.0" encoding="UTF-8"?>
<svg id="Layer_1" data-name="Layer 1" xmlns="http://www.w3.org/2000/svg" viewBox="0 0 215 55">
  <defs>
    <style>
      .cls-1 {
        fill: #b6cf48;
      }

      .cls-2 {
        fill: #005e44;
      }
    </style>
  </defs>
  <g id="layer1">
    <path id="path3860" class="cls-2" d="M95.38,22.18c-3.96,0-6.59,2.32-6.59,5.79,0,2.11.68,4.08,4.1,6.87l1.37,1.13c2.73,2.25,3.48,3.43,3.48,5.41s-1.43,3.86-4.19,3.86c-1.12,0-3.79-.28-4.33-2.97-.09-.41-.09-.81-.09-1.08,0-.17-.03-.56-.47-.56-.41,0-.45.48-.47.71,0,0,0,.38,0,.38-.05.62-.14,1.66-.14,2.92,0,.84,0,1.09.56,1.37,1.19.58,2.61.85,4.28.85,1.88,0,3.54-.44,4.8-1.32,2.01-1.43,2.73-3.69,2.73-5.32,0-2.42-.77-4.41-4.61-7.44l-.89-.71c-2.97-2.43-3.67-3.39-3.67-4.99,0-2.01,1.43-3.39,3.58-3.39,2.56,0,3.42,1.1,3.67,1.55.16.31.35,1.06.38,1.41.03.24.07.66.47.66.45,0,.42-.61.42-.94,0-1.64.11-2.64.14-3.06v-.24c0-.29-.17-.42-.52-.42-.21,0-.48-.06-1.08-.19-.88-.21-1.82-.28-2.92-.28ZM109.27,22.18c-.41,0-.53.54-.56.75,0,.02-2.07,20.24-2.07,20.24-.1,1.08-.18,2.15-.94,2.31-.41.08-.53.05-.8.05-.29,0-.52.16-.52.38,0,.18.09.52.71.52.49,0,1.42-.08,1.79-.09.36-.02.47,0,.47,0,0,0,.35,0,.71,0,.35,0,1.4.08,2.12.09.24.02.71-.03.71-.52,0-.21-.17-.38-.42-.38-.3,0-.57-.03-1.04-.14-.34-.07-.56-.39-.56-.75,0-.53-.03-1.07,0-1.55,0,0,1.06-13.65,1.08-13.65-.07,0,6.97,15.49,6.97,15.49.58,1.18.7,1.46,1.04,1.46.37,0,.47-.25.94-1.32,0-.01,6.92-15.91,6.92-15.91,0,0,1.32,15.25,1.32,15.25,0,.18.03.33.05.47.02.25.02.54-.05.56-.23.09-.33.28-.33.42,0,.4.49.49,1.04.52,1.12.07,4.18.05,4.8.05.77,0,.85-.41.85-.52s-.06-.38-.47-.38c-.27,0-.99.03-1.79-.24-1.12-.39-1.31-2.1-1.41-3.11l-1.93-18.97c-.04-.43-.1-1.04-.56-1.04-.38,0-.52.38-.61.61.02.02-8.19,18.88-8.24,18.97-.05-.05-8.57-19.02-8.57-19.02-.12-.28-.26-.56-.61-.56ZM168.06,22.18c-2.18,0-5.02.22-7.58,1.98-2.99,2.08-4.75,5.96-4.75,10.36s1.82,7.45,3.39,8.94c2.32,2.24,5.46,3.39,9.37,3.39,1.75,0,4.28-.36,6.07-1.41.46-.29.47-.51.47-1.88v-3.44l.05-3.2c.05-1.06.24-1.43.85-1.55,0,0,.71-.09.71-.09.24,0,.42-.2.42-.42,0-.46-.49-.47-.66-.47l-2.31.09h-.85l-2.78-.09c-.16,0-.66,0-.66.47,0,.22.17.42.42.42l.89.09c.97.29,1.13.49,1.13,2.97v5.23c0,.43-.15.7-.47.89-.67.43-2.09.61-3.11.61-2.77,0-5.15-1.05-7.16-3.2-1.01-1.08-2.92-4.24-2.92-8.43,0-3.33.99-6.19,2.68-7.67,2.01-1.74,4.02-1.98,5.88-1.98,3.42,0,5.71,1.2,6.4,2.35.46.82.55,1.8.56,1.98.03.29.03.66.38.66.47,0,.47-.51.47-.85,0-2.24.13-3.33.19-3.91v-.52c0-.16-.06-.42-.52-.47-.75-.03-1.68-.19-2.21-.33-.79-.19-2.74-.52-4.38-.52ZM150.65,22.37l-.28.09-.19.09-.94.09-.38.05h-9.04l-3.11-.09c-.18,0-.71.01-.71.47,0,.23.21.42.47.42l.99.05c.86.18,1.11.55,1.18,1.6.06.98.05,1.83.05,6.64v5.46c0,2.9.01,5.4-.14,6.68-.13.93-.31,1.41-.75,1.51,0,0-.85.09-.85.09-.32,0-.47.22-.47.42,0,.46.53.47.71.47l2.5-.09h.89l3.44.09c.64,0,.85-.33.85-.47,0-.2-.3-.42-.61-.42l-1.37-.09c-.74-.1-.9-.58-.99-1.51-.16-1.29-.19-3.79-.19-6.68v-2.64s0-.02,0-.05c1.22,0,5.06.01,5.74.09.84.1,1.27.54,1.41.94l.19.99v.09c0,.27.16.47.42.47.43,0,.42-.5.42-.8l.14-2.07.24-1.74c0-.42-.26-.47-.38-.47-.21,0-.31.18-.42.33l-.09.05c-.21.31-.5.45-1.27.52h-1.37s-5.01.05-5.04.05v-8.62s.05-.09.05-.09c0,0,.05,0,.05,0l5.79.09c1.12.03,1.78.51,1.93.85.18.38.28.88.28,1.08,0,.55.33.56.42.56.16,0,.34-.05.42-.47,0,0,.14-1.46.14-1.46l.05-.61.19-1.08.05-.38c0-.29-.19-.52-.42-.52Z"/>
    <path id="path3868" class="cls-1" d="M74.48.1l-11.2,4.75v27.4l11.2-4.75V.1ZM61.81,5.47l-11.2,16.67v27.4l11.2-16.67V5.47ZM49.15,22.75l-11.2,4.75v27.4l11.2-4.75v-27.4Z"/>
  </g>
</svg>