<?xml version="1.0" encoding="UTF-8"?>
<svg id="Layer_1" data-name="Layer 1" xmlns="http://www.w3.org/2000/svg" viewBox="0 0 215 55">
  <defs>
    <style>
      .cls-1 {
        fill: #fff;
      }

      .cls-2 {
        fill: #2f6eb5;
      }
    </style>
  </defs>
  <rect class="cls-1" width="215" height="55"/>
  <g>
    <path class="cls-2" d="M64.82,37.2l7.36-19.1,7.63-.46,8.25,19.56h-7.37l-4.03-11.1c-.91-.19-.63.35-.87.89-1.43,3.22-2.33,6.85-3.37,10.21h-7.6Z"/>
    <path class="cls-2" d="M25.48,37.2l7.37-19.09,7.62-.47,8.25,19.56h-7.6c-1.32-3.24-2.12-7.33-3.56-10.45-.2-.44-.27-1.04-.91-1.09l-3.58,11.54h-7.6Z"/>
    <polygon class="cls-2" points="27.27 17.67 27.27 23 21.46 23 21.46 37.2 13.86 37.2 13.86 23 8.05 23 8.05 17.67 27.27 17.67"/>
    <polygon class="cls-2" points="66.6 17.67 66.61 23 60.79 23 60.79 37.2 53.2 37.2 53.2 23 47.38 23 47.38 17.67 66.6 17.67"/>
    <path class="cls-2" d="M133.65,37.2l-3.56-.02-1.31-5.04-7.15-.21-1.44,5.23-3.53.04,6.32-19.47,4.64.38,6.03,19.09ZM127.84,29.21c.3-.28-1.9-7.05-2.21-7.79-.19-.45-.3-1.03-.91-1.09l-2.24,8.87h5.36Z"/>
    <path class="cls-2" d="M185.43,17.73l6.32,19.47-3.53-.04-1.43-5.24-7.16.22-1.31,5.04-3.56.02,6.21-19.25,4.45-.21ZM185.94,29.21c-.97-2.47-1.29-5.29-2.26-7.74-.18-.46-.18-1.07-.86-1.13l-2.24,8.87h5.36Z"/>
    <path class="cls-2" d="M140.8,29.65v7.55h-3.58v-18.86l.67-.67h7.6c1.46,0,3.59,1.48,4.34,2.8,3.4,5.99-3.47,11-9.03,9.19ZM140.8,27.44c3.02.36,6.82-.42,6.56-4.16-.26-3.84-6.56-3.91-6.56-2.72v6.88Z"/>
    <path class="cls-2" d="M114.43,18.12l-1.1,2.56c-10.71-4.98-15.67,12.41-5.28,14.2,3.04.52,6.58-1.83,5.93,2.32-6.58,1.33-13.81.11-14.99-7.52-1.48-9.47,7.01-14.35,15.44-11.56Z"/>
    <polygon class="cls-2" points="175.22 17.67 175.22 20.34 169.41 20.33 169.41 37.2 166.28 37.2 166.28 20.33 160.46 20.34 160.47 17.67 175.22 17.67"/>
    <polygon class="cls-2" points="198.46 17.67 198.46 34.54 206.95 34.54 206.95 37.2 195.33 37.2 195.33 17.67 198.46 17.67"/>
    <rect class="cls-2" x="154.21" y="17.67" width="3.58" height="19.53"/>
  </g>
</svg>