<svg width="32" height="32" viewBox="0 0 32 32" fill="none" xmlns="http://www.w3.org/2000/svg">
<path d="M0.5 3.2C0.5 1.70883 1.70883 0.5 3.2 0.5H28.8C30.2912 0.5 31.5 1.70883 31.5 3.2V28.8C31.5 30.2912 30.2912 31.5 28.8 31.5H3.2C1.70883 31.5 0.5 30.2912 0.5 28.8V3.2Z" fill="#1265E1"/>
<path d="M0.5 3.2C0.5 1.70883 1.70883 0.5 3.2 0.5H28.8C30.2912 0.5 31.5 1.70883 31.5 3.2V28.8C31.5 30.2912 30.2912 31.5 28.8 31.5H3.2C1.70883 31.5 0.5 30.2912 0.5 28.8V3.2Z" stroke="#1265E1"/>
<path d="M21.2676 13.2665C21.2848 13.3845 21.2934 13.494 21.2934 13.5951C21.2934 14.7976 20.9905 15.9743 20.3846 17.125C19.7947 18.2757 18.9198 19.2321 17.7597 19.994C16.6169 20.756 15.2056 21.1538 13.5259 21.1875C11.9668 21.1706 10.5728 20.7728 9.34375 19.994C9.55187 20.0109 9.76861 20.0193 9.99397 20.0193C11.292 20.0025 12.4261 19.6215 13.3966 18.8764C12.7734 18.8595 12.2365 18.682 11.7858 18.3438C11.3351 18.0055 11.0235 17.574 10.8511 17.0492C11.0063 17.066 11.1707 17.0744 11.3443 17.0744C11.6041 17.0744 11.8467 17.0492 12.0721 16.9986C11.4305 16.8626 10.9108 16.5575 10.513 16.0832C10.114 15.6101 9.90592 15.0432 9.88868 14.3824V14.3318C10.2532 14.5352 10.6602 14.6538 11.1097 14.6875C10.3486 14.1627 9.94163 13.4182 9.88868 12.454C9.90592 11.9629 10.0358 11.5139 10.2784 11.1071C10.9545 11.9196 11.7772 12.5714 12.7463 13.0625C13.6995 13.5536 14.7475 13.8329 15.8903 13.9003C15.8558 13.6969 15.8386 13.494 15.8386 13.2918C15.8558 12.5467 16.1157 11.9202 16.6181 11.4122C17.1366 10.9043 17.7769 10.6419 18.5392 10.625C19.3532 10.6419 20.0201 10.9211 20.5398 11.4628C21.1629 11.3448 21.7429 11.1336 22.2798 10.829C22.0545 11.455 21.6561 11.9455 21.0847 12.3006C21.6216 12.2331 22.1413 12.0893 22.6438 11.869C22.2632 12.4107 21.8045 12.8765 21.2676 13.2665Z" fill="white"/>
</svg>
