<svg xmlns="http://www.w3.org/2000/svg" width="48" height="48" viewBox="0 0 48 48"><path fill="#25D366" d="M42.6,6.3C38.1,1.8,32.2,0,25.9,0C13.1,0,2.9,10.2,2.9,23c0,4.3,1.2,8.5,3.4,12.1L0,48l13.3-6.1c3.5,1.9,7.4,2.9,11.4,2.9h0.1c12.8,0,23-10.2,23-22.9C47.8,14.4,45.8,9.5,42.6,6.3z M25.9,43.3h-0.1c-3.5,0-6.9-0.9-9.9-2.7l-0.7-0.4l-7.4,3.4l3.5-7.2l-0.5-0.8c-2-3.2-3.1-6.8-3.1-10.6c0-10.6,8.6-19.2,19.2-19.2c5.2,0,10,2,13.6,5.6c3.6,3.6,5.6,8.4,5.6,13.6C45.1,34.7,36.5,43.3,25.9,43.3z M36.6,29.4c-0.5-0.2-2.8-1.4-3.2-1.5c-0.4-0.2-0.7-0.2-1,0.2c-0.3,0.5-1.2,1.5-1.5,1.8c-0.3,0.3-0.6,0.3-1.1,0.1c-0.5-0.2-2.1-0.8-4-2.5c-1.5-1.3-2.5-2.9-2.8-3.4c-0.3-0.5,0-0.8,0.2-1c0.2-0.2,0.5-0.5,0.7-0.7c0.2-0.2,0.3-0.5,0.5-0.8c0.2-0.3,0.1-0.6,0-0.8c-0.1-0.2-1-2.5-1.4-3.4c-0.4-0.9-0.8-0.8-1.1-0.8c-0.3,0-0.6,0-0.9,0c-0.3,0-0.8,0.1-1.2,0.6c-0.4,0.5-1.5,1.5-1.5,3.6c0,2.1,1.6,4.2,1.8,4.5c0.2,0.3,3,4.6,7.2,6.4c1,0.4,1.7,0.7,2.3,0.9c0.9,0.3,1.7,0.2,2.3,0.1c0.7-0.1,2.1-0.9,2.4-1.7c0.3-0.8,0.3-1.5,0.2-1.7C37.3,29.7,37.1,29.6,36.6,29.4z"/></svg>