<?xml version="1.0" encoding="UTF-8"?>
<svg id="Layer_1" data-name="Layer 1" xmlns="http://www.w3.org/2000/svg" viewBox="0 0 215 55">
  <defs>
    <style>
      .cls-1 {
        fill: #fff;
      }

      .cls-2 {
        fill: #c4261b;
      }

      .cls-3 {
        fill: #005192;
      }
    </style>
  </defs>
  <g id="g2998">
    <g id="gffffffff">
      <path id="path5" class="cls-1" d="M139.46,20.75c.31.1.53.35.74.58,3.05,3.21,6.12,6.4,9.16,9.61,0-3.22,0-6.43,0-9.65.82,0,1.65.01,2.47-.01.08.29.11.59.1.89-.02,4.89,0,9.78-.01,14.67-.06.03-.18.08-.24.11-3.28-3.33-6.45-6.77-9.72-10.11-.03,3.21.04,6.41-.03,9.62-.83-.04-1.66-.02-2.49-.01,0-5.23-.02-10.47.01-15.7h0Z"/>
      <path id="path7" class="cls-1" d="M74.12,21.14c1.92-.7,3.99-.2,5.86.41.02,1.19.01,2.38.01,3.57-1.15-.7-2.39-1.4-3.77-1.44-.7-.05-1.55.38-1.56,1.16-.05.57.41,1.01.84,1.3,1.67,1.04,3.6,1.78,4.89,3.33,1.56,2.14.73,5.55-1.63,6.75-2.17,1.15-4.76.68-7.01-.01-.13-1.34-.21-2.68-.27-4.03,1.3.81,2.74,1.57,4.31,1.54.67-.05,1.46-.25,1.79-.9.34-.58.08-1.35-.43-1.74-1.47-1.17-3.37-1.75-4.66-3.15-.84-.87-1.26-2.11-1.14-3.32.09-1.59,1.29-2.98,2.78-3.47Z"/>
      <path id="path9" class="cls-1" d="M128.76,22.49c.3-.6.52-1.24.92-1.79,2.44,5.22,4.79,10.48,7.18,15.73-.91,0-1.82,0-2.74.01-.43-.89-.82-1.8-1.22-2.7-2.28-.01-4.56,0-6.84,0-.4.9-.8,1.81-1.24,2.7-.89-.01-1.77,0-2.66,0,2.22-4.64,4.38-9.3,6.59-13.94M129.37,26.29c-.78,1.75-1.52,3.52-2.32,5.26,1.63.07,3.27.02,4.9.03-.78-1.85-1.6-3.69-2.38-5.54-.05.07-.15.2-.2.26h0Z"/>
      <path id="path11" class="cls-1" d="M42.61,21.29c1.42,0,2.83.01,4.25-.01,1.1,1.58,2.1,3.23,3.19,4.82,1.14-1.62,2.29-3.23,3.47-4.81,1.25.01,2.49,0,3.74.01-1.89,2.65-3.92,5.2-5.76,7.88-.03,2.42,0,4.84-.01,7.26-1.18,0-2.37,0-3.55,0-.02-2.4.04-4.81-.03-7.21-1.73-2.67-3.57-5.26-5.3-7.94Z"/>
      <path id="path13" class="cls-1" d="M58.81,36.44c0-5.05-.01-10.1.01-15.15,3.07,0,6.14,0,9.21,0,0,1.03-.01,2.06.01,3.09-1.92.08-3.85-.07-5.77.07,0,.91,0,1.82,0,2.73,1.65,0,3.29-.02,4.94.01-.02,1.02,0,2.05,0,3.07-1.65,0-3.29,0-4.94,0,0,1,0,1.99,0,2.99,1.94,0,3.88-.02,5.83,0,0,1.06.01,2.13,0,3.19-3.1-.01-6.19,0-9.29,0Z"/>
      <path id="path15" class="cls-1" d="M110.66,21.29c1.92.04,3.84-.1,5.74.11,1.23.14,2.58.64,3.22,1.77.69,1.26.7,2.98-.25,4.11-.41.51-1.03.79-1.6,1.08,1.1.3,2.08,1.1,2.44,2.21.42,1.36.3,2.98-.58,4.14-.98,1.25-2.65,1.6-4.15,1.7-1.61.05-3.22.01-4.83.02.01-5.05,0-10.1,0-15.15M113.18,23.32c0,1.42,0,2.85,0,4.28,1.13-.03,2.37.17,3.39-.45,1.2-.67,1.35-2.78.07-3.45-1.07-.54-2.31-.34-3.46-.37M113.18,29.61c0,1.57,0,3.15,0,4.72,1.15-.04,2.38.17,3.46-.33,1.44-.66,1.64-2.96.36-3.88-1.12-.78-2.56-.44-3.83-.51h0Z"/>
      <path id="path17" class="cls-1" d="M156.71,36.44c0-5.05-.04-10.11.02-15.16.85.01,1.7,0,2.54,0,.03,2.26,0,4.53.01,6.79,2.13-2.26,4.26-4.53,6.4-6.78,1.01,0,2.01,0,3.02,0-2.26,2.44-4.56,4.85-6.84,7.28,2.53,2.61,5.02,5.25,7.55,7.86-1.13.02-2.25,0-3.37.02-2.25-2.37-4.51-4.73-6.76-7.08-.01,2.36,0,4.72,0,7.08-.86,0-1.72,0-2.57,0h0Z"/>
    </g>
    <g id="gc4261bff">
      <path id="path20" class="cls-2" d="M111.21,5.33c.74-.97,1.41-1.98,2.2-2.91-7.71,13.63-15.37,27.29-23.06,40.93-1.92,3.44-3.88,6.86-5.78,10.31-.17-.09-.32-.2-.45-.33-2.71-2.76-5.43-5.5-8.14-8.26,1.93-.02,3.85,0,5.77-.01,9.82-13.24,19.64-26.48,29.45-39.72Z"/>
    </g>
    <g id="g005192ff">
      <path id="path23" class="cls-3" d="M35.11,13.7c23.01-.03,46.02,0,69.03-.02-7.65,10.11-15.25,20.26-22.94,30.34-15.36-.01-30.72,0-46.07,0-.03-10.11,0-20.22-.02-30.33M74.12,21.14c-1.49.49-2.69,1.87-2.78,3.47-.12,1.2.31,2.44,1.14,3.32,1.29,1.4,3.19,1.98,4.66,3.15.51.39.77,1.16.43,1.74-.33.65-1.12.85-1.79.9-1.57.03-3.01-.73-4.31-1.54.05,1.35.14,2.69.27,4.03,2.24.7,4.83,1.17,7.01.01,2.36-1.2,3.18-4.61,1.63-6.75-1.28-1.56-3.22-2.29-4.89-3.33-.43-.29-.89-.73-.84-1.3.01-.78.87-1.21,1.56-1.16,1.38.04,2.62.74,3.77,1.44,0-1.19.01-2.38-.01-3.57-1.87-.6-3.94-1.1-5.86-.41M42.61,21.29c1.73,2.67,3.57,5.27,5.3,7.94.07,2.4,0,4.81.03,7.21,1.18,0,2.37,0,3.55,0,0-2.42-.02-4.84.01-7.26,1.84-2.68,3.88-5.23,5.76-7.88-1.25-.02-2.49,0-3.74-.01-1.18,1.59-2.33,3.2-3.47,4.81-1.09-1.59-2.09-3.24-3.19-4.82-1.42.03-2.83,0-4.25.01M58.81,36.44c3.1,0,6.19,0,9.29,0,.02-1.07,0-2.13,0-3.19-1.94-.02-3.88,0-5.83,0,0-1,0-1.99,0-2.99,1.65,0,3.29,0,4.94,0,0-1.03-.01-2.05,0-3.07-1.65-.03-3.29-.02-4.94-.01-.01-.91,0-1.82,0-2.73,1.92-.13,3.86.01,5.77-.07-.02-1.03,0-2.06-.01-3.09-3.07,0-6.14,0-9.21,0-.02,5.05,0,10.1-.01,15.15Z"/>
      <path id="path25" class="cls-3" d="M102.89,22.5c1.66-2.93,3.21-5.93,4.92-8.83,23.24.01,46.47.02,69.71,0,.07,10.12.02,20.24.03,30.35-28.84-.02-57.67,0-86.51,0,3.92-7.19,7.91-14.34,11.85-21.51M139.46,20.75c-.03,5.23-.01,10.47-.01,15.7.83,0,1.66-.02,2.49.01.07-3.21,0-6.42.03-9.62,3.27,3.34,6.44,6.77,9.72,10.11.06-.03.18-.08.24-.11.02-4.89,0-9.78.01-14.67,0-.3-.02-.6-.1-.89-.82.03-1.65.01-2.47.01-.01,3.22,0,6.43,0,9.65-3.04-3.21-6.11-6.4-9.16-9.61-.22-.23-.43-.48-.74-.58M128.76,22.49c-2.2,4.65-4.37,9.31-6.59,13.94.88,0,1.77,0,2.66,0,.44-.89.83-1.8,1.24-2.7,2.28,0,4.56,0,6.84,0,.39.91.79,1.81,1.22,2.7.91-.02,1.82,0,2.74-.01-2.39-5.25-4.74-10.51-7.18-15.73-.41.54-.62,1.19-.92,1.79M110.66,21.29c-.01,5.05,0,10.1,0,15.15,1.61-.01,3.22.02,4.83-.02,1.5-.1,3.17-.45,4.15-1.7.88-1.16,1-2.78.58-4.14-.35-1.11-1.34-1.91-2.44-2.21.57-.29,1.19-.56,1.6-1.08.95-1.13.94-2.86.25-4.11-.65-1.14-1.99-1.63-3.22-1.77-1.91-.2-3.83-.06-5.74-.11M156.71,36.44c.86,0,1.72,0,2.57,0,.01-2.36,0-4.72,0-7.08,2.26,2.36,4.52,4.72,6.76,7.08,1.13-.01,2.25,0,3.37-.02-2.53-2.61-5.03-5.25-7.55-7.86,2.28-2.43,4.58-4.84,6.84-7.28-1.01,0-2.02,0-3.02,0-2.14,2.25-4.27,4.52-6.4,6.78-.01-2.26.02-4.53-.01-6.79-.85,0-1.7,0-2.54,0-.06,5.05-.01,10.11-.02,15.16h0Z"/>
      <path id="path27" class="cls-3" d="M113.18,23.32c1.15.03,2.39-.16,3.46.37,1.27.67,1.13,2.78-.07,3.45-1.01.62-2.26.42-3.39.45,0-1.43,0-2.85,0-4.28Z"/>
      <path id="path29" class="cls-3" d="M129.37,26.29c.05-.07.15-.2.2-.26.78,1.85,1.6,3.69,2.38,5.54-1.63-.01-3.27.05-4.9-.03.81-1.74,1.55-3.51,2.32-5.26h0Z"/>
      <path id="path31" class="cls-3" d="M113.18,29.61c1.27.07,2.71-.27,3.83.51,1.27.92,1.08,3.22-.36,3.88-1.08.5-2.31.29-3.46.33,0-1.57,0-3.15,0-4.72h0Z"/>
    </g>
  </g>
</svg>