<svg width="32" height="32" viewBox="0 0 32 32" fill="none" xmlns="http://www.w3.org/2000/svg">
<path d="M0.5 3.2C0.5 1.70883 1.70883 0.5 3.2 0.5H28.8C30.2912 0.5 31.5 1.70883 31.5 3.2V28.8C31.5 30.2912 30.2912 31.5 28.8 31.5H3.2C1.70883 31.5 0.5 30.2912 0.5 28.8V3.2Z" fill="#1265E1"/>
<path d="M0.5 3.2C0.5 1.70883 1.70883 0.5 3.2 0.5H28.8C30.2912 0.5 31.5 1.70883 31.5 3.2V28.8C31.5 30.2912 30.2912 31.5 28.8 31.5H3.2C1.70883 31.5 0.5 30.2912 0.5 28.8V3.2Z" stroke="#1265E1"/>
<path d="M22.7832 12.5551C22.577 11.928 22.1543 11.5133 21.5149 11.3111C21.1014 11.2256 20.4632 11.1576 19.6006 11.1071C18.7379 11.0734 17.9353 11.0481 17.1929 11.0312C16.4504 11.0312 16.0534 11.0312 16.0019 11.0312C15.9504 11.0312 15.5534 11.0312 14.8109 11.0312C14.0685 11.0481 13.266 11.0734 12.4033 11.1071C11.5406 11.1576 10.9024 11.2256 10.4889 11.3111C9.84954 11.5133 9.42678 11.928 9.22062 12.5551C9.13349 12.9439 9.06415 13.3923 9.01261 13.9003C8.97825 14.4251 8.95248 14.8909 8.9353 15.2978C8.9353 15.6866 8.9353 15.8894 8.9353 15.9062C8.9353 15.94 8.9353 16.1518 8.9353 16.5418C8.95248 16.9475 8.97825 17.4043 9.01261 17.9122C9.06415 18.437 9.13349 18.8938 9.22062 19.2826C9.42678 19.9098 9.84954 20.316 10.4889 20.5014C10.9024 20.5869 11.5406 20.6549 12.4033 20.7054C13.266 20.7391 14.0685 20.7644 14.8109 20.7812C15.5534 20.7812 15.9504 20.7812 16.0019 20.7812C16.0534 20.7812 16.4504 20.7812 17.1929 20.7812C17.9353 20.7644 18.7379 20.7391 19.6006 20.7054C20.4632 20.6549 21.1014 20.5869 21.5149 20.5014C22.1543 20.316 22.577 19.9098 22.7832 19.2826C22.8703 18.8938 22.9397 18.437 22.9912 17.9122C23.0256 17.4043 23.0513 16.9475 23.0685 16.5418C23.0685 16.1518 23.0685 15.94 23.0685 15.9062C23.0685 15.8894 23.0685 15.6866 23.0685 15.2978C23.0513 14.8909 23.0256 14.4251 22.9912 13.9003C22.9397 13.3923 22.8703 12.9439 22.7832 12.5551ZM14.5532 17.9881V13.8497L18.2531 15.9062L14.5532 17.9881Z" fill="white"/>
</svg>
